<?xml version="1.0" encoding="UTF-8"?>
<svg width="60px" height="40px" viewBox="0 0 60 40" version="1.1" xmlns="http://www.w3.org/2000/svg" xmlns:xlink="http://www.w3.org/1999/xlink">
    <!-- Generator: Sketch 50.2 (55047) - http://www.bohemiancoding.com/sketch -->
    <title>icons/off</title>
    <desc>Created with Sketch.</desc>
    <defs></defs>
    <g id="icons/off" stroke="none" stroke-width="1" fill="none" fill-rule="evenodd">
        <path d="M19.2181818,8.09090909 L16.7963636,10.5454545 L8.84363636,10.5454545 L6.42181818,8.09090909 L19.2181818,8.09090909 Z M19.2181818,31 L6.42181818,31 L8.84363636,28.5454545 L16.7963636,28.5454545 L19.2181818,31 Z M8.41818182,21.5418182 L8.41818182,28.0872727 L5.96363636,30.5418182 L5.96363636,20.9527273 L6.88,20.0036364 L8.41818182,21.5418182 Z M5.96363636,18.1709091 L5.96363636,8.54909091 L8.41818182,11.0036364 L8.41818182,17.5490909 L6.88,19.0872727 L5.96363636,18.1709091 Z M19.6763636,20.9527273 L19.6763636,30.5418182 L17.2545455,28.0872727 L17.2545455,21.5418182 L18.7927273,20.0036364 L19.6763636,20.9527273 Z M17.2545455,17.5490909 L17.2545455,11.0036364 L19.6763636,8.54909091 L19.6763636,18.1709091 L18.7927273,19.0872727 L17.2545455,17.5490909 Z M17.0909091,18.3345455 L18.3345455,19.5454545 L17.0909091,20.7563636 L8.54909091,20.7563636 L7.33818182,19.5454545 L8.54909091,18.3345455 L17.0909091,18.3345455 Z M36.6331818,8.09090909 L34.2113636,10.5454545 L26.2586364,10.5454545 L23.8368182,8.09090909 L36.6331818,8.09090909 Z M36.6331818,31 L23.8368182,31 L26.2586364,28.5454545 L34.2113636,28.5454545 L36.6331818,31 Z M25.8331818,21.5418182 L25.8331818,28.0872727 L23.3786364,30.5418182 L23.3786364,20.9527273 L24.295,20.0036364 L25.8331818,21.5418182 Z M23.3786364,18.1709091 L23.3786364,8.54909091 L25.8331818,11.0036364 L25.8331818,17.5490909 L24.295,19.0872727 L23.3786364,18.1709091 Z M37.0913636,20.9527273 L37.0913636,30.5418182 L34.6695455,28.0872727 L34.6695455,21.5418182 L36.2077273,20.0036364 L37.0913636,20.9527273 Z M34.6695455,17.5490909 L34.6695455,11.0036364 L37.0913636,8.54909091 L37.0913636,18.1709091 L36.2077273,19.0872727 L34.6695455,17.5490909 Z M34.5059091,18.3345455 L35.7495455,19.5454545 L34.5059091,20.7563636 L25.9640909,20.7563636 L24.7531818,19.5454545 L25.9640909,18.3345455 L34.5059091,18.3345455 Z M54.0481818,8.09090909 L51.6263636,10.5454545 L43.6736364,10.5454545 L41.2518182,8.09090909 L54.0481818,8.09090909 Z M54.0481818,31 L41.2518182,31 L43.6736364,28.5454545 L51.6263636,28.5454545 L54.0481818,31 Z M43.2481818,21.5418182 L43.2481818,28.0872727 L40.7936364,30.5418182 L40.7936364,20.9527273 L41.71,20.0036364 L43.2481818,21.5418182 Z M40.7936364,18.1709091 L40.7936364,8.54909091 L43.2481818,11.0036364 L43.2481818,17.5490909 L41.71,19.0872727 L40.7936364,18.1709091 Z M54.5063636,20.9527273 L54.5063636,30.5418182 L52.0845455,28.0872727 L52.0845455,21.5418182 L53.6227273,20.0036364 L54.5063636,20.9527273 Z M52.0845455,17.5490909 L52.0845455,11.0036364 L54.5063636,8.54909091 L54.5063636,18.1709091 L53.6227273,19.0872727 L52.0845455,17.5490909 Z M51.9209091,18.3345455 L53.1645455,19.5454545 L51.9209091,20.7563636 L43.3790909,20.7563636 L42.1681818,19.5454545 L43.3790909,18.3345455 L51.9209091,18.3345455 Z" id="888" fill-opacity="0.1" fill="#000000"></path>
        <path d="M19.6763636,18.1709091 L18.7927273,19.0872727 L17.2545455,17.5490909 L17.2545455,11.0036364 L18.4654545,9.76 L19.6763636,11.0036364 L19.6763636,18.1709091 Z M18.0072727,9.30181818 L16.7963636,10.5454545 L8.84363636,10.5454545 L7.63272727,9.30181818 L8.84363636,8.09090909 L16.7963636,8.09090909 L18.0072727,9.30181818 Z M19.6763636,28.0872727 L18.4654545,29.3309091 L17.2545455,28.0872727 L17.2545455,21.5418182 L18.7927273,20.0036364 L19.6763636,20.9527273 L19.6763636,28.0872727 Z M8.41818182,17.5490909 L6.88,19.0872727 L5.96363636,18.1709091 L5.96363636,11.0036364 L7.17454545,9.76 L8.41818182,11.0036364 L8.41818182,17.5490909 Z M5.96363636,20.9527273 L6.88,20.0036364 L8.41818182,21.5418182 L8.41818182,28.0872727 L7.17454545,29.3309091 L5.96363636,28.0872727 L5.96363636,20.9527273 Z M8.84363636,31 L7.63272727,29.7890909 L8.84363636,28.5454545 L16.7963636,28.5454545 L18.0072727,29.7890909 L16.7963636,31 L8.84363636,31 Z M37.0913636,8.09090909 L34.6695455,10.5454545 L26.2586364,10.5454545 L23.8368182,8.09090909 L37.0913636,8.09090909 Z M25.8331818,21.5418182 L25.8331818,28.0872727 L23.3786364,30.5418182 L23.3786364,20.9527273 L24.295,20.0036364 L25.8331818,21.5418182 Z M23.3786364,18.1709091 L23.3786364,8.54909091 L25.8331818,11.0036364 L25.8331818,17.5490909 L24.295,19.0872727 L23.3786364,18.1709091 Z M34.5059091,18.3345455 L35.7495455,19.5454545 L34.5059091,20.7563636 L25.9640909,20.7563636 L24.7531818,19.5454545 L25.9640909,18.3345455 L34.5059091,18.3345455 Z M54.5063636,8.09090909 L52.0845455,10.5454545 L43.6736364,10.5454545 L41.2518182,8.09090909 L54.5063636,8.09090909 Z M43.2481818,21.5418182 L43.2481818,28.0872727 L40.7936364,30.5418182 L40.7936364,20.9527273 L41.71,20.0036364 L43.2481818,21.5418182 Z M40.7936364,18.1709091 L40.7936364,8.54909091 L43.2481818,11.0036364 L43.2481818,17.5490909 L41.71,19.0872727 L40.7936364,18.1709091 Z M51.9209091,18.3345455 L53.1645455,19.5454545 L51.9209091,20.7563636 L43.3790909,20.7563636 L42.1681818,19.5454545 L43.3790909,18.3345455 L51.9209091,18.3345455 Z" id="Off" fill="#D0021B"></path>
    </g>
</svg>