<?xml version="1.0" encoding="UTF-8"?>
<svg width="260px" height="76px" viewBox="0 0 260 76" version="1.1" xmlns="http://www.w3.org/2000/svg" xmlns:xlink="http://www.w3.org/1999/xlink">
    <!-- Generator: Sketch 50.2 (55047) - http://www.bohemiancoding.com/sketch -->
    <title>logos/watson</title>
    <desc>Created with Sketch.</desc>
    <defs></defs>
    <g id="logos/watson" stroke="none" stroke-width="1" fill="none" fill-rule="evenodd">
        <path d="M133.152231,63.3333333 L125.971129,63.3333333 L120.385827,40.8923885 L120.286089,40.8923885 L114.800525,63.3333333 L107.419948,63.3333333 L98.6430446,30.32021 L105.923885,30.32021 L111.209974,52.7611549 L111.309711,52.7611549 L117.094488,30.32021 L123.87664,30.32021 L129.56168,53.0603675 L129.661417,53.0603675 L135.047244,30.32021 L142.228346,30.32021 L133.152231,63.3333333 Z M142.028871,46.6771654 C142.427822,40.5931759 147.913386,38.6981627 153.199475,38.6981627 C157.986877,38.6981627 163.671916,39.7952756 163.671916,45.480315 L163.671916,57.9475066 C163.671916,60.1417323 163.871391,62.335958 164.469816,63.3333333 L157.887139,63.3333333 C157.687664,62.6351706 157.488189,61.8372703 157.388451,61.0393701 C155.293963,63.2335958 152.301837,64.0314961 149.309711,64.0314961 C144.721785,64.0314961 141.131234,61.7375328 141.131234,56.8503937 C141.230971,46.0787402 157.288714,51.7637795 156.989501,46.4776903 C156.989501,43.6850394 154.994751,43.1863517 152.700787,43.1863517 C150.107612,43.1863517 148.611549,44.183727 148.312336,46.7769029 L142.028871,46.7769029 L142.028871,46.6771654 Z M157.089239,51.5643045 C155.992126,52.5616798 153.698163,52.5616798 151.603675,52.9606299 C149.608924,53.3595801 147.713911,54.0577428 147.713911,56.4514436 C147.713911,58.8451444 149.608924,59.5433071 151.703412,59.5433071 C156.889764,59.5433071 156.989501,55.5538058 156.989501,54.0577428 L157.089239,51.5643045 Z M176.338583,39.3963255 L181.125984,39.3963255 L181.125984,43.7847769 L176.338583,43.7847769 L176.338583,55.5538058 C176.338583,57.7480315 176.937008,58.3464567 179.131234,58.3464567 C179.829396,58.3464567 180.527559,58.3464567 181.125984,58.1469816 L181.125984,63.3333333 C180.028871,63.5328084 178.532808,63.5328084 177.23622,63.5328084 C173.146982,63.5328084 169.656168,62.6351706 169.656168,57.847769 L169.656168,43.7847769 L165.666667,43.7847769 L165.666667,39.3963255 L169.656168,39.3963255 L169.656168,32.2152231 L176.238845,32.2152231 L176.338583,39.3963255 Z M189.503937,55.4540682 C189.503937,58.2467192 191.997375,59.4435696 194.590551,59.4435696 C196.485564,59.4435696 198.879265,58.7454068 198.879265,56.351706 C198.879265,54.3569554 196.086614,53.6587927 191.39895,52.6614173 C187.509186,51.7637795 183.818898,50.5669291 183.818898,46.2782152 C183.818898,40.1942257 189.104987,38.5984252 194.191601,38.5984252 C199.278215,38.5984252 204.165354,40.3937008 204.664042,46.2782152 L198.380577,46.2782152 C198.181102,43.6850394 196.286089,42.9868766 193.892388,42.9868766 C192.396325,42.9868766 190.2021,43.1863517 190.2021,45.1811024 C190.2021,47.5748031 193.992126,47.8740157 197.682415,48.7716535 C201.572178,49.6692913 205.262467,51.0656168 205.262467,55.4540682 C205.262467,61.7375328 199.776903,63.832021 194.391076,63.832021 C188.805774,63.832021 183.419948,61.7375328 183.220472,55.3543307 L189.503937,55.4540682 Z M220.023622,38.7979003 C227.603675,38.7979003 232.391076,43.7847769 232.391076,51.3648294 C232.391076,58.9448819 227.503937,63.9317585 220.023622,63.9317585 C212.543307,63.9317585 207.755906,58.9448819 207.755906,51.3648294 C207.755906,43.7847769 212.543307,38.7979003 220.023622,38.7979003 Z M220.023622,58.9448819 C224.511811,58.9448819 225.908136,55.1548556 225.908136,51.2650919 C225.908136,47.3753281 224.511811,43.5853018 220.023622,43.5853018 C215.535433,43.5853018 214.238845,47.4750656 214.238845,51.2650919 C214.238845,55.0551181 215.535433,58.9448819 220.023622,58.9448819 Z M235.48294,39.3963255 L241.766404,39.3963255 L241.766404,42.687664 L241.866142,42.687664 C243.56168,39.9947507 246.454068,38.6981627 249.246719,38.6981627 C256.228346,38.6981627 258.023622,42.687664 258.023622,48.4724409 L258.023622,63.1338583 L251.440945,63.1338583 L251.440945,49.7690289 C251.440945,45.7795276 250.343832,43.8845144 247.251969,43.8845144 C243.661417,43.8845144 242.165354,45.8792651 242.165354,50.7664042 L242.165354,63.2335958 L235.582677,63.2335958 L235.48294,39.3963255 Z M10.3753281,30.2204724 C10.0761155,30.2204724 9.77690289,30.1207349 9.57742782,30.0209974 L1.79790026,25.5328084 C1,25.1338583 0.800524934,24.1364829 1.19947507,23.3385827 C1.69816273,22.5406824 2.69553806,22.2414698 3.39370079,22.7401575 L11.1732283,27.2283465 C11.9711286,27.6272966 12.1706037,28.6246719 11.7716535,29.4225722 C11.5721785,29.9212598 10.9737533,30.2204724 10.3753281,30.2204724 Z M24.4383202,16.855643 C24.2388451,16.9553806 23.9396325,17.0551181 23.6404199,16.9553806 C23.0419948,16.9553806 22.5433071,16.656168 22.2440945,16.1574803 L17.7559055,8.37795276 C17.3569554,7.58005249 17.5564304,6.58267717 18.3543307,6.18372703 C19.152231,5.7847769 20.1496063,5.98425197 20.5485564,6.78215223 L25.0367454,14.6614173 C25.4356955,15.4593176 25.2362205,16.4566929 24.4383202,16.855643 Z M43.3884514,10.5721785 C43.3884514,11.4698163 42.6902887,12.167979 41.7926509,12.167979 C40.8950131,12.167979 40.1968504,11.4698163 40.1968504,10.5721785 L40.1968504,1.59580052 C40.1968504,0.69816273 40.8950131,0 41.7926509,0 C42.6902887,0 43.3884514,0.69816273 43.3884514,1.59580052 L43.3884514,10.5721785 Z M61.2414698,16.2572178 C60.9422572,16.7559055 60.4435696,17.0551181 59.8451444,17.0551181 C59.5459318,17.0551181 59.3464567,16.9553806 59.0472441,16.855643 C58.2493438,16.3569554 57.9501312,15.3595801 58.4488189,14.6614173 L62.9370079,6.88188976 C63.335958,6.0839895 64.3333333,5.88451444 65.1312336,6.28346457 C65.9291339,6.6824147 66.1286089,7.67979003 65.7296588,8.47769029 L61.2414698,16.2572178 Z M74.007874,30.0209974 C73.7086614,30.2204724 73.4094488,30.2204724 73.2099738,30.2204724 C72.6115486,30.2204724 72.1128609,29.9212598 71.8136483,29.4225722 C71.4146982,28.6246719 71.6141732,27.6272966 72.4120735,27.2283465 L80.191601,22.7401575 C80.9895013,22.3412073 81.9868766,22.5406824 82.3858268,23.3385827 C82.7847769,24.1364829 82.5853018,25.1338583 81.7874016,25.5328084 L74.007874,30.0209974 Z M43.1889764,18.351706 C59.1469816,18.351706 70.9160105,31.4173228 70.816273,46.8766404 C70.816273,61.7375328 58.9475066,76 41.6929134,76 C26.0341207,76 16.5590551,63.832021 14.664042,54.2572178 C14.664042,54.0577428 14.5643045,53.4593176 14.5643045,53.2598425 C14.5643045,53.0603675 14.664042,52.9606299 14.8635171,52.9606299 C15.0629921,52.9606299 15.1627297,52.9606299 15.2624672,53.2598425 C15.3622047,53.7585302 15.8608924,55.0551181 16.160105,55.7532808 C17.4566929,59.144357 19.8503937,62.5354331 23.0419948,65.328084 C22.8425197,63.9317585 22.7427822,62.5354331 22.7427822,61.8372703 C22.7427822,60.1417323 22.9422572,58.3464567 23.2414698,56.5511811 C17.9553806,51.1653543 14.5643045,44.9816273 14.5643045,39.1968504 C14.5643045,30.7191601 21.1469816,26.0314961 30.3228346,26.0314961 C31.8188976,26.0314961 33.2152231,26.2309711 33.8136483,26.3307087 C34.0131234,26.3307087 34.1128609,26.4304462 34.1128609,26.6299213 C34.1128609,26.7296588 34.1128609,26.9291339 33.9133858,26.9291339 C33.7139108,26.9291339 33.5144357,26.9291339 33.2152231,26.9291339 C24.1391076,26.9291339 17.855643,31.5170604 17.855643,39.1968504 C17.855643,43.6850394 20.2493438,48.5721785 24.1391076,52.8608924 C27.7296588,39.7952756 38.2020997,25.2335958 48.6745407,21.2440945 C46.0813648,20.2467192 43.2887139,19.7480315 40.5958005,19.7480315 C38.2020997,19.7480315 37.3044619,19.847769 35.6089239,20.1469816 C35.3097113,20.2467192 34.8110236,20.3464567 34.7112861,20.3464567 C34.6115486,20.3464567 34.4120735,20.2467192 34.4120735,20.0472441 C34.4120735,19.9475066 34.6115486,19.847769 34.8110236,19.7480315 C36.8057743,19.0498688 40.1968504,18.351706 43.1889764,18.351706 Z M41.6929134,72.7086614 C48.3753281,72.7086614 53.7611549,70.2152231 56.8530184,68.0209974 C55.1574803,68.519685 53.2624672,68.8188976 51.2677165,68.8188976 C42.0918635,68.8188976 33.015748,64.9291339 26.1338583,59.144357 C26.0341207,60.1417323 25.9343832,61.1391076 25.9343832,62.1364829 C25.9343832,65.4278215 26.7322835,68.1207349 29.4251969,69.6167979 C31.4199475,70.7139108 36.007874,72.7086614 41.6929134,72.7086614 Z M51.167979,65.6272966 C56.0551181,65.6272966 60.7427822,64.3307087 63.4356955,61.1391076 C65.7296588,58.1469816 67.9238845,53.2598425 67.9238845,46.8766404 C67.9238845,38.6981627 64.1338583,32.1154856 60.144357,28.2257218 C58.847769,26.9291339 57.2519685,25.7322835 55.5564304,24.6351706 C54.3595801,23.9370079 53.5616798,23.7375328 52.5643045,23.7375328 C43.7874016,23.7375328 30.2230971,40.4934383 26.832021,55.5538058 C33.3149606,61.3385827 42.4908136,65.6272966 51.167979,65.6272966 Z" id="Combined-Shape" fill="#FFFFFF" fill-rule="nonzero"></path>
    </g>
</svg>