<?xml version="1.0" encoding="UTF-8"?>
<svg width="240px" height="102px" viewBox="0 0 240 102" version="1.1" xmlns="http://www.w3.org/2000/svg" xmlns:xlink="http://www.w3.org/1999/xlink">
    <!-- Generator: Sketch 50.2 (55047) - http://www.bohemiancoding.com/sketch -->
    <title>logos/ort</title>
    <desc>Created with Sketch.</desc>
    <defs></defs>
    <g id="logos/ort" stroke="none" stroke-width="1" fill="none" fill-rule="evenodd">
        <path d="M28.3707772,0.406568246 L39.0495184,0.406568246 L101.738313,0.406568246 L101.738313,100.872466 L100.603662,100.872466 C100.603662,102.761114 100.320706,92.0908179 100.320706,91.8080861 C98.1476079,67.9653182 87.1859111,46.1553916 71.4507548,30.670174 C62.3961782,21.4587738 51.3778903,13.9465914 39.0495184,8.85176541 C35.5889724,7.42114279 32.0237329,6.18277776 28.3707772,5.14797958 C25.5497107,4.34784874 22.6777121,3.67211988 19.7576112,3.12644761 C16.9337151,2.60056657 14.0645462,2.19343286 11.1614226,1.91635575 C10.8162168,1.88242794 10.4681815,1.85132745 10.1229758,1.82305428 C10.0296005,1.82305428 -2.02147502,1.44419374 0.295930675,1.44419374 L0.295930675,0.406568246 L11.1614226,0.406568246 L19.7576112,0.406568246 L28.3707772,0.406568246 Z M25.7146737,26.4198677 L24.4385443,39.4990382 C24.2970666,40.2539319 25.1487627,41.4329233 26.7531205,41.9983868 C27.2850768,42.2556727 27.8481583,42.4083478 28.371626,42.4677215 C29.2855724,42.5723322 30.0750183,42.3913839 30.3466556,41.9983868 L38.5665133,31.944446 C38.6853547,31.8256987 38.8494689,31.7748069 39.0503673,31.7719796 C39.5710054,31.766325 40.3321558,32.0999484 41.1187721,32.5099095 C42.392072,33.1234374 43.3852458,33.9744599 43.1022903,34.5399234 L39.0503673,45.5042604 L38.5665133,46.8161357 C38.3910809,47.0762489 38.5948089,47.7321865 39.0503673,48.4616344 C39.3361524,48.9168325 39.7181423,49.4031311 40.1737007,49.8357107 C41.495103,50.9242279 43.1022903,51.0175294 43.6682013,50.7347976 L54.0639871,43.0388396 C54.6298981,42.614742 55.7645497,43.4629372 56.8510989,44.5005627 C57.5613173,45.3515852 58.3168085,46.3892107 57.9376481,47.0027386 L50.3799062,57.3422385 C49.8111656,57.8624649 50.3799062,59.609747 51.2768752,60.8368028 C52.1738442,61.9705571 53.7810316,62.8668167 54.3469426,62.5360206 L66.443291,57.8624649 C67.1506798,57.721099 68.0957512,58.7587245 68.5201845,59.609747 C68.8993449,60.8368028 69.4652559,61.9705571 69.2304028,62.5360206 L58.8827195,70.752205 C58.5516616,71.1763026 58.3168085,72.6380258 58.8827195,74.4333723 C59.7344156,75.8498584 60.9624426,76.8874839 61.6698314,76.8874839 L74.4763981,75.3776963 C75.0904116,75.3776963 75.6563226,76.6047521 75.9392782,77.7385064 C76.2222337,78.7761319 76.3637114,80.3820482 75.9392782,80.4753497 L64.1287148,85.9518635 C63.2770187,86.0960567 62.8525855,87.6058442 62.9940632,89.2569976 C63.2770187,90.8629139 64.2220902,92.2793999 64.6946259,92.5140673 L77.6879433,94.3574783 C78.3953321,94.4988441 78.3953321,96.1019331 78.3953321,97.1423859 C78.3953321,98.3213773 78.3500592,99.6445618 77.6879433,99.6445618 L65.1671616,99.6897989 L39.0503673,99.6897989 L28.371626,99.6897989 L19.7584601,99.6897989 L11.1594419,99.6897989 L1.38049918,99.6897989 L1.33522629,36.1939041 L1.33522629,23.3041639 C1.33522629,22.7387004 2.75283344,22.5973346 4.12233814,22.5973346 C5.25698977,22.5973346 6.57839204,22.7387004 6.7198698,23.3041639 L8.79959286,36.1939041 C8.79959286,36.6773754 9.87199427,37.5086067 11.1594419,37.8252662 C11.3773176,37.8818126 11.5980229,37.9185677 11.8243873,37.9383589 C13.6183253,38.1758536 15.0840349,37.6556272 15.2255127,37.0420993 L19.7584601,26.8015556 L20.4686784,25.192812 C20.6101562,24.6273485 22.0758658,24.72065 23.2586198,25.0514461 C24.4385443,25.4755437 25.7146737,25.8544042 25.7146737,26.4198677 Z M17.3052357,66.0305849 C12.7694588,70.466646 12.2969231,77.4557747 16.2639594,82.553428 C16.8327,82.1293304 17.5881912,81.5610396 18.0126245,81.1850063 C18.6917178,80.4753497 19.2746061,79.6950101 19.7584601,78.8694334 C22.0588884,74.9281529 22.1069909,69.8870459 19.7584601,65.9344561 C19.5179479,65.5301497 19.2491401,65.1371526 18.957696,64.7554648 C18.29558,64.8968306 17.8711468,65.5103585 17.3052357,66.0305849 Z M8.75149042,74.3400708 C4.31191834,79.0136266 3.79128019,86.1412938 7.76114611,91.0975813 C8.32705714,90.6734836 8.89296818,90.2013216 9.41360633,89.6358581 C10.0926996,88.9431654 10.6755879,88.1769624 11.1594419,87.3598676 C13.4428929,83.5090613 13.5334387,78.5047094 11.1594419,74.3853079 C10.9189297,73.9668649 10.6501219,73.5569039 10.3586778,73.1582522 C9.74466429,73.4890483 9.1759237,74.1958777 8.75149042,74.3400708 Z M26.4220625,92.1832712 C26.8012229,91.6658721 27.5086117,90.9562154 27.5086117,90.5321178 C25.2845813,88.6349878 22.5229355,87.6736998 19.7584601,87.6228081 C16.6431198,87.5662618 13.52495,88.663261 11.1594419,90.8742232 C11.0802143,90.9477334 11.0038163,91.024071 10.9245888,91.0975813 C10.3586778,91.8072379 9.83803961,92.3727014 9.41360633,92.9409922 C9.96254004,93.4103269 10.548258,93.8202879 11.1594419,94.1737026 C13.7513144,95.6750082 16.8270409,96.1556521 19.7584601,95.6184618 C22.1975366,95.174573 24.5404083,94.0266821 26.4220625,92.1832712 Z M34.9277054,83.5938808 C35.5417189,82.9775256 36.1076299,82.4120621 36.2038348,82.0332016 C33.9656566,80.1049711 31.1757152,79.1323739 28.371626,79.0843095 C25.2789222,79.0334178 22.1692411,80.1021438 19.7584601,82.250905 C19.6481074,82.3498611 19.5377548,82.4516446 19.4302317,82.553428 C18.957696,82.9775256 18.29558,83.8766125 18.0126245,84.3007102 C18.5700469,84.7502536 19.1557648,85.1460781 19.7584601,85.4938381 C22.4323897,87.0318988 25.4883093,87.5662618 28.371626,87.0629993 C30.7880662,86.641729 33.085665,85.4910108 34.9277054,83.5938808 Z M39.0503673,56.6580276 C35.0748423,58.8378894 32.4320377,63.0110099 32.754607,67.919233 C33.2271427,67.919233 33.9373611,67.919233 34.5032721,67.7298027 C36.1444141,67.5064446 37.6808626,66.9720816 39.0503673,66.1945693 C42.9240283,63.9977437 45.4734575,59.858551 45.368764,55.3602889 C44.6132728,54.9814284 43.8577815,54.9814284 43.1956656,55.2189231 C41.7129787,55.467727 40.3151784,55.9625076 39.0503673,56.6580276 Z M39.0503673,70.6193211 C35.2870589,70.0001386 31.2973861,71.1395475 28.371626,73.9103186 C28.2725916,74.0036201 28.1735572,74.0997489 28.0773523,74.1958777 C27.5086117,74.4814367 26.9427007,75.143029 26.5663698,75.5671266 C27.1351104,76.0788711 27.7406352,76.5227599 28.371626,76.9044478 C31.6510805,78.9005339 35.6124577,79.1804383 39.0503673,77.9081454 C40.6915093,77.3002722 42.2109804,76.3418116 43.4786211,75.0469002 C44.0473617,74.3400708 44.6132728,74.0092747 44.8962283,73.299618 C43.1645405,71.8492042 41.1414086,70.9614265 39.0503673,70.6193211 Z M25.808049,57.4864316 C21.5580572,61.5916966 20.9893166,68.9087941 25.1487627,74.0092747 C25.6665713,73.6304142 25.9495268,73.0168863 26.5663698,72.6380258 C27.2709291,71.9142325 27.8707948,71.1254109 28.371626,70.2941796 C30.7626002,66.316144 30.7908957,61.3344107 28.371626,57.2150092 C28.111307,56.776775 27.8255219,56.3441954 27.5086117,55.9257524 C26.9427007,56.2565486 26.4220625,56.776775 25.808049,57.4864316 Z M125.492146,41.5757028 C123.101172,39.2714391 121.290257,36.6476885 120.056571,33.7101057 C118.811566,30.7696956 118.194723,27.6539918 118.194723,24.3545123 C118.194723,21.0352417 118.811566,17.9110559 120.056571,14.9876097 C121.290257,12.0556815 123.101172,9.4404129 125.492146,7.13614919 C127.798234,4.85450403 130.472163,3.09308527 133.511106,1.85754755 C136.541559,0.6163552 139.727638,0 143.041047,0 L143.046707,0 C146.351627,0 149.529217,0.6163552 152.582307,1.85754755 C155.643886,3.09308527 158.334793,4.85450403 160.657858,7.13614919 C162.989411,9.41779436 164.769202,12.0302357 166.002888,14.9706458 C167.247892,17.9110559 167.864735,21.0352417 167.864735,24.3545123 C167.864735,27.6935742 167.247892,30.8262419 166.019865,33.7412062 C164.791838,36.6646524 163.006389,39.2714391 160.657858,41.5757028 C158.29235,43.857348 155.578806,45.6187667 152.534205,46.8543045 C149.486774,48.0954968 146.326161,48.711852 143.046707,48.711852 L143.041047,48.711852 C139.727638,48.711852 136.541559,48.0954968 133.511106,46.8543045 C130.472163,45.6187667 127.798234,43.857348 125.492146,41.5757028 Z M134.340165,14.6059218 C132.039737,17.1957446 130.896597,20.441505 130.896597,24.3545123 C130.896597,28.3353753 132.02276,31.5980996 134.292063,34.1539946 C136.550048,36.7127168 139.472978,37.9934916 143.046707,37.9963189 L143.049536,37.9963189 C146.561014,37.9963189 149.461308,36.7042349 151.753248,34.1228941 C154.053676,31.5500352 155.196816,28.2844836 155.196816,24.3545123 C155.196816,20.4669509 154.036699,17.2183631 151.705145,14.6228857 C149.379251,12.0160991 146.495934,10.7155331 143.049536,10.7155331 L143.046707,10.7155331 C139.529569,10.7183604 136.632105,12.0160991 134.340165,14.6059218 Z M181.654855,29.300056 L181.654855,47.4797071 L169.784871,47.4797071 L169.784871,1.04667291 L183.02153,1.04667291 C184.376887,1.04667291 185.624721,1.06363682 186.765032,1.09473731 C189.987895,1.18803878 192.353403,1.40856954 193.858727,1.76198422 C195.898836,2.23131892 197.661649,3.03427707 199.141506,4.15672209 C200.816603,5.42336029 202.098391,7.03775855 203.001019,9.00274416 C203.903648,10.9677298 204.347888,13.1362822 204.347888,15.5055743 C204.347888,19.1047493 203.465066,22.0253682 201.702254,24.2759129 C199.936611,26.5236303 197.361716,28.0164539 193.971909,28.765693 L206.130507,46.7361226 L206.631339,47.4797071 L206.130507,47.4797071 L192.316619,47.4797071 L186.765032,38.0138483 L181.654855,29.300056 Z M181.654855,10.7811268 L181.654855,22.9923108 L184.003386,22.9923108 C185.027685,22.9923108 185.94729,22.9272825 186.765032,22.7972259 C188.128877,22.5795225 189.204108,22.1780434 189.993554,21.595616 C191.249877,20.6710832 191.878038,19.2093601 191.878038,17.2189286 C191.878038,14.897701 191.29232,13.240893 190.115225,12.2598138 C189.345586,11.6123581 188.227912,11.1769513 186.765032,10.9564205 C186.003881,10.8405005 185.146526,10.7811268 184.198625,10.7811268 L181.654855,10.7811268 Z M216.035082,12.0228846 L206.12881,12.0228846 L205.627978,12.0228846 L205.627978,1.04723838 L206.12881,1.04723838 L239.112934,1.04723838 L239.112934,12.0228846 L228.703001,12.0228846 L228.703001,47.4774452 L216.035082,47.4774452 L216.035082,12.0228846 Z M187.923169,77.9236957 L181.211464,77.9236957 L181.211464,63.2697095 C181.211464,59.1700992 177.48211,56.8121164 171.268407,56.8121164 L162.069523,56.8121164 L162.069523,54.7001103 L171.268407,54.7001103 C176.361606,54.7001103 180.21829,55.3192928 182.080137,55.8169007 C185.684991,56.8121164 187.923169,59.5433051 187.923169,62.5232977 L187.923169,77.9236957 Z M155.48345,59.1709474 C156.352124,60.7853456 157.348127,62.7729498 157.348127,65.1309325 C157.348127,66.4965268 156.601125,69.6037487 155.981452,70.5961371 L156.103123,70.4717351 C154.985449,73.0813491 152.252098,75.3149299 149.88942,76.4345476 C147.27774,77.551338 143.053215,78.6681284 138.330687,78.6681284 C133.110158,78.6681284 128.26313,77.426936 125.529779,75.8125378 C122.422928,74.0737375 120.682751,71.3425489 120.682751,68.2353271 L120.682751,54.6981312 L127.269956,54.6981312 L127.269956,67.8649485 C127.269956,69.3549448 128.138629,71.5885255 129.380804,73.0813491 C131.245481,75.3149299 134.601333,76.3101456 138.828689,76.3101456 C142.309042,76.3101456 145.291393,75.4393319 147.15607,74.0737375 C149.269747,72.5837413 150.758093,69.4793467 150.758093,66.0017463 C150.758093,64.2629461 149.88942,62.026538 149.391418,60.7853456 C148.896246,59.541326 147.031569,57.6809511 145.166892,56.9345393 C143.675717,56.3153568 140.942366,55.8177489 139.448361,55.8177489 C138.579688,55.8177489 137.711014,55.8177489 137.210183,56.0665528 L137.210183,53.8301447 C138.579688,53.7057428 140.441535,53.5813408 142.433542,53.5813408 C143.800217,53.5813408 145.166892,53.7057428 146.284567,53.7057428 C149.145247,53.7057428 154.362947,57.3077452 155.48345,59.1709474 Z M193.639719,77.9228475 L193.639719,54.6992621 L200.226924,54.6992621 L200.226924,77.9228475 L193.639719,77.9228475 Z M228.565768,67.8638175 L240,77.923413 L231.423618,78.2966189 L216.509033,64.5106191 C215.017857,65.5030075 213.900183,66.9930038 213.526682,68.2370234 C213.15318,69.4782158 212.655179,71.7146239 212.655179,72.8314143 L212.655179,77.923413 L206.192475,77.923413 L206.192475,72.0850025 C206.192475,70.4706042 207.68365,68.4858274 209.672828,66.8686018 C211.288504,65.7518114 213.277681,64.5106191 215.515859,63.7670346 L206.070804,55.1974355 L214.024683,55.0730335 L227.323593,66.9930038 C228.814768,66.2494193 230.430444,64.883825 231.052947,64.1374132 C231.79712,63.1450248 232.419622,61.6550285 232.419622,60.0406302 L232.419622,54.6998276 L238.882326,54.6998276 L238.882326,60.6598127 C238.882326,62.149809 237.26665,64.3862171 235.152972,65.5030075 C233.661796,66.2494193 231.052947,67.4906116 228.565768,67.8638175 Z M155.618703,94.8245511 L155.618703,93.122506 L161.260836,93.122506 L161.260836,93.656869 C161.260836,96.1731815 160.652482,98.1607857 159.430114,99.6168541 C158.210576,101.072923 156.543968,101.802371 154.43312,101.802371 C153.79364,101.802371 153.182456,101.720378 152.599568,101.562049 C152.016679,101.400891 151.481893,101.166224 150.989551,100.860874 C149.866217,100.139908 149.003203,99.1446921 148.392019,97.8780539 C147.780835,96.6057611 147.478073,95.1610019 147.478073,93.5466036 C147.478073,92.2149371 147.659164,91.0133272 148.024177,89.9389466 C148.38636,88.864566 148.938123,87.9202419 149.670978,87.1059745 C150.287821,86.4189364 151.003699,85.9043646 151.818611,85.5537772 C152.636352,85.2031899 153.536151,85.0307235 154.526495,85.0307235 C155.842238,85.0307235 156.979719,85.3106279 157.947427,85.8676095 C158.912305,86.424591 159.71024,87.261477 160.34689,88.3810947 L158.980215,89.6590421 C158.490702,88.6920996 157.876688,87.965479 157.143833,87.4820077 C156.408149,86.9985364 155.556453,86.7553871 154.583086,86.7553871 C152.992876,86.7553871 151.705428,87.3802243 150.715084,88.6327259 C149.72474,89.8852275 149.229568,91.5250717 149.229568,93.5466036 C149.229568,95.4522156 149.733228,97.0185494 150.74055,98.2427779 C151.747872,99.464179 153.024001,100.077707 154.583086,100.077707 C155.952591,100.077707 157.092901,99.588581 158.004018,98.6159838 C158.917965,97.6462139 159.421625,96.382403 159.523489,94.8245511 L155.618703,94.8245511 Z M197.901312,101.376294 L196.257341,101.376294 L196.257341,87.2029515 L192.392168,87.2029515 L192.392168,85.390641 L201.746678,85.390641 L201.746678,87.2029515 L197.901312,87.2029515 L197.901312,101.376294 Z M205.385203,101.375446 L205.385203,85.3897928 L207.009367,85.3897928 L207.009367,101.375446 L205.385203,101.375446 Z M120.427525,101.376294 L126.62991,84.7601492 L126.62991,84.7629766 L132.846443,101.376294 L131.08363,101.376294 L129.309499,96.4737254 L126.62991,96.4737254 L123.967299,96.4737254 L122.193168,101.376294 L120.427525,101.376294 Z M128.803009,94.8480178 L126.62991,88.9643703 L124.453982,94.8480178 L126.62991,94.8480178 L128.803009,94.8480178 Z M140.005784,93.7544114 L139.869965,93.7544114 L139.717169,93.7544114 L139.869965,93.9749422 L144.934869,101.376859 L142.872123,101.376859 L139.869965,96.7852957 L137.886447,93.7544114 L137.651594,93.7544114 L137.651594,101.376859 L136.064213,101.376859 L136.064213,85.3912065 L139.278588,85.3912065 C139.487975,85.3912065 139.686044,85.3940338 139.869965,85.3996884 C140.486808,85.422307 140.959344,85.476026 141.290402,85.5693275 C141.714835,85.6909021 142.091166,85.8972963 142.413735,86.18851 C142.818361,86.5588886 143.132442,87.0564965 143.355977,87.6785063 C143.579512,88.3005161 143.692694,88.9903816 143.692694,89.7452753 C143.692694,91.0571506 143.378613,92.0523664 142.756111,92.7337499 C142.12795,93.412306 141.214004,93.7544114 140.005784,93.7544114 Z M138.896598,92.3464074 C139.253122,92.3464074 139.578521,92.3294435 139.869965,92.3011703 C140.608479,92.2220054 141.134776,92.0467117 141.443198,91.7724619 C141.87046,91.3907741 142.085507,90.7206998 142.085507,89.7678939 C142.085507,88.7415776 141.867631,88.023439 141.423391,87.613478 C141.10931,87.319437 140.591502,87.132834 139.869965,87.0480145 C139.578521,87.0112594 139.253122,86.9971228 138.896598,86.9971228 L137.651594,86.9971228 L137.651594,92.3464074 L138.896598,92.3464074 Z M187.247188,97.5328385 L187.247188,85.3923374 L188.794955,85.3923374 L188.794955,102 L178.795307,89.3675457 L178.795307,101.375163 L177.24471,101.375163 L177.24471,84.7590183 L187.247188,97.5328385 Z M212.119544,84.7601492 L222.122022,97.5339694 L222.122022,85.390641 L223.672618,85.390641 L223.672618,101.998304 L213.667311,89.3658493 L213.667311,101.376294 L212.119544,101.376294 L212.119544,84.7601492 Z M172.686297,87.1271794 L167.100755,87.1271794 L167.100755,91.7130883 L172.686297,91.7130883 L172.686297,93.482989 L167.100755,93.482989 L167.100755,99.6069585 L172.686297,99.6069585 L172.686297,101.376859 L165.47659,101.376859 L165.47659,85.3912065 L172.686297,85.3912065 L172.686297,87.1271794 Z M228.631979,101.376294 L226.866337,101.376294 L233.065892,84.7601492 L239.285254,101.376294 L237.519612,101.376294 L235.745481,96.4737254 L233.065892,96.4737254 L230.40611,96.4737254 L228.631979,101.376294 Z M233.065892,88.9643703 L230.889964,94.8480178 L233.065892,94.8480178 L235.24182,94.8480178 L233.065892,88.9643703 Z" id="Combined-Shape" fill="#FFFFFF"></path>
    </g>
</svg>