<?xml version="1.0" encoding="UTF-8"?>
<svg width="348px" height="120px" viewBox="0 0 348 120" version="1.1" xmlns="http://www.w3.org/2000/svg" xmlns:xlink="http://www.w3.org/1999/xlink">
    <!-- Generator: Sketch 50.2 (55047) - http://www.bohemiancoding.com/sketch -->
    <title>logos/fanatic</title>
    <desc>Created with Sketch.</desc>
    <defs></defs>
    <g id="logos/fanatic" stroke="none" stroke-width="1" fill="none" fill-rule="evenodd">
        <path d="M15,85.03125 C14.6249981,87.1562606 13.5625087,88.6249959 11.8125,89.4375 C10.9999959,89.5000003 10.390627,89.4687506 9.984375,89.34375 C9.57812297,89.2187494 9.15625219,89.0625009 8.71875,88.875 C8.15624719,88.6249987 7.65625219,88.4687503 7.21875,88.40625 L6.1875,87.65625 C6.06249937,87.3437484 5.90625094,87.0312516 5.71875,86.71875 C5.53124906,86.4062484 5.31250125,86.0937516 5.0625,85.78125 C4.5624975,85.1562469 4.0625025,84.3750047 3.5625,83.4375 C3.18749812,81.6249909 3.12499875,80.1093811 3.375,78.890625 C3.62500125,77.6718689 3.93749812,76.4687559 4.3125,75.28125 C4.43750062,74.9062481 4.56249937,74.515627 4.6875,74.109375 C4.81250062,73.703123 4.93749937,73.3125019 5.0625,72.9375 C3.43749187,72.0624956 2.21875406,70.8125081 1.40625,69.1875 C0.593745937,67.5624919 0.125000625,66.0000075 0,64.5 C0.187500937,63.3124941 0.5312475,62.3593786 1.03125,61.640625 C1.5312525,60.9218714 2.10937172,60.3437522 2.765625,59.90625 C3.42187828,59.4687478 4.10937141,59.1250012 4.828125,58.875 C5.54687859,58.6249987 6.24999656,58.4062509 6.9375,58.21875 L8.15625,58.6875 C8.71875281,59.2500028 9.28124719,59.6874984 9.84375,60 C10.2812522,59.8124991 10.5781242,59.515627 10.734375,59.109375 C10.8906258,58.703123 11.0312494,58.2500025 11.15625,57.75 C11.3437509,57.1874972 11.5468739,56.6250028 11.765625,56.0625 C11.9843761,55.4999972 12.2499984,54.9375028 12.5625,54.375 C12.4999997,53.5624959 12.6249984,52.8125034 12.9375,52.125 C12.4999978,51.8124984 12.0312525,51.6250003 11.53125,51.5625 C11.4062494,51.5625 11.0937525,51.5000006 10.59375,51.375 C9.84374625,50.8124972 9.32812641,50.328127 9.046875,49.921875 C8.76562359,49.515623 8.50000125,49.1250019 8.25,48.75 C7.87499812,47.9374959 7.40625281,47.2812525 6.84375,46.78125 L5.90625,46.125 L6.375,45.1875 C6.50000062,45.0624994 6.5625,44.9062509 6.5625,44.71875 C6.5625,44.5312491 6.43750125,44.2500019 6.1875,43.875 C6.06249937,43.1874966 6.06249937,42.7187512 6.1875,42.46875 L6.375,41.53125 C6.8750025,40.8437466 7.125,40.4687503 7.125,40.40625 L7.96875,39.5625 C9.21875625,39.2499984 10.4531189,38.890627 11.671875,38.484375 C12.8906311,38.078123 14.1249937,37.6562522 15.375,37.21875 C16.5625059,36.8437481 17.7656189,36.453127 18.984375,36.046875 C20.2031311,35.640623 21.4374937,35.2812516 22.6875,34.96875 C23.1250022,34.6562484 23.5937475,34.4531255 24.09375,34.359375 C24.5937525,34.2656245 25.0624978,34.1875003 25.5,34.125 C25.8750019,34.0624997 26.2187484,34.0156252 26.53125,33.984375 C26.8437516,33.9531248 27.0624994,33.8437509 27.1875,33.65625 C27.9375037,33.4062487 28.812495,33.1250016 29.8125,32.8125 C31.3750078,32.3749978 33.4374872,31.8906277 36,31.359375 C38.5625128,30.8281223 41.4374841,30.4062516 44.625,30.09375 L46.21875,30 C46.5312516,30.0625003 46.8437484,30.0781252 47.15625,30.046875 C47.4687516,30.0156248 47.7812484,30 48.09375,30 C50.9062641,30 52.6874962,30.8437416 53.4375,32.53125 C54.0000028,32.8437516 54.4999978,33.1874981 54.9375,33.5625 C55.3750022,33.9375019 55.7812481,34.3124981 56.15625,34.6875 C56.3437509,34.9375012 56.5468739,35.1562491 56.765625,35.34375 C56.9843761,35.5312509 57.1562494,35.6562497 57.28125,35.71875 C58.3437553,37.3437581 58.6875019,38.7812437 58.3125,40.03125 C57.7499972,40.8437541 57.0312544,41.3124994 56.15625,41.4375 L55.125,42 C54.4374966,41.9374997 53.9218767,41.90625 53.578125,41.90625 L52.5,41.90625 C50.9374922,41.90625 49.1250103,41.9999991 47.0625,42.1875 C44.9999897,42.3750009 42.8906358,42.6406233 40.734375,42.984375 C38.5781142,43.3281267 36.50001,43.7499975 34.5,44.25 C32.49999,44.7500025 30.7500075,45.2812472 29.25,45.84375 L27.5625,46.6875 C27.1249978,47.3750034 26.8750003,47.921873 26.8125,48.328125 C26.7499997,48.734377 26.6875003,49.1249981 26.625,49.5 C26.5624997,49.7500012 26.5156252,49.9999987 26.484375,50.25 C26.4531248,50.5000012 26.4062503,50.7812484 26.34375,51.09375 C25.2812447,52.4062566 24.75,53.9687409 24.75,55.78125 C24.3124978,56.5312537 24.0312506,57.0781233 23.90625,57.421875 C23.7812494,57.7656267 23.7812494,58.1874975 23.90625,58.6875 C25.0937559,59.1875025 26.2187447,59.3750006 27.28125,59.25 C28.3437553,59.1249994 29.4062447,58.9687509 30.46875,58.78125 C31.9062572,58.5312487 33.3906173,58.3125009 34.921875,58.125 C36.4531327,57.9374991 38.0312419,57.84375 39.65625,57.84375 L42.65625,57.84375 L41.90625,58.59375 L42.375,59.90625 C42.7500019,60.0937509 43.0156242,60.2187497 43.171875,60.28125 C43.3281258,60.3437503 43.4999991,60.4374994 43.6875,60.5625 L44.15625,61.40625 C44.4062512,61.5312506 44.6406239,61.7499984 44.859375,62.0625 C45.0781261,62.3750016 45.2187497,62.8437469 45.28125,63.46875 L41.4375,68.90625 L40.125,69.28125 C39.0624947,69.2187497 38.1250041,69.3437484 37.3125,69.65625 C36.8749978,69.7812506 36.4375022,69.8906245 36,69.984375 C35.5624978,70.0781255 35.0937525,70.125 34.59375,70.125 C33.3437437,70.3750012 32.2968792,70.5624994 31.453125,70.6875 C30.6093708,70.8125006 29.7500044,70.9374994 28.875,71.0625 C27.7499944,71.1875006 26.6562553,71.3593739 25.59375,71.578125 C24.5312447,71.7968761 23.5312547,72.0937481 22.59375,72.46875 L21.28125,72.46875 C20.7812475,72.46875 20.2656277,72.5468742 19.734375,72.703125 C19.2031223,72.8593758 18.7187522,72.9999994 18.28125,73.125 C17.9687484,73.3750012 17.7500006,73.6406236 17.625,73.921875 C17.4999994,74.2031264 17.3750006,74.4999984 17.25,74.8125 C16.9999987,75.6875044 16.6562522,76.4062472 16.21875,76.96875 L16.21875,78.375 C15.7187475,79.0000031 15.4218755,79.4843733 15.328125,79.828125 C15.2343745,80.1718767 15.1250006,80.4999984 15,80.8125 C14.8749994,81.0000009 14.7812503,81.1718742 14.71875,81.328125 C14.6562497,81.4843758 14.625,81.6562491 14.625,81.84375 C15.1250025,82.7812547 15.2500012,83.8437441 15,85.03125 Z M93.61875,80.34375 C93.2437481,81.4062553 92.6968786,82.4843695 91.978125,83.578125 C91.2593714,84.6718805 90.4156298,85.6406208 89.446875,86.484375 C88.4781201,87.3281292 87.4000059,88.0312472 86.2125,88.59375 C85.024994,89.1562528 83.7750065,89.4687497 82.4625,89.53125 C81.6499959,89.3437491 81.1031264,89.1406261 80.821875,88.921875 C80.5406236,88.7031239 80.2437515,88.5000009 79.93125,88.3125 C79.743749,88.1874994 79.5718758,88.0781255 79.415625,87.984375 C79.2593742,87.8906245 79.1187506,87.8125003 78.99375,87.75 L77.86875,87.28125 L78.24375,86.0625 C78.3687506,85.5624975 78.3375009,85.1718764 78.15,84.890625 C77.962499,84.6093736 77.5875028,84.2187525 77.025,83.71875 L76.4625,83.15625 C76.274999,82.9687491 76.1187506,82.7812509 75.99375,82.59375 L74.4,80.8125 L76.93125,80.15625 C78.4937578,79.7187478 79.5406223,79.1562534 80.071875,78.46875 C80.6031276,77.7812466 80.8062506,76.6250081 80.68125,75 C79.4312437,74.7499987 78.3843792,74.7187491 77.540625,74.90625 C76.6968708,75.0937509 75.8375044,75.3124987 74.9625,75.5625 C73.8374944,75.8750016 72.6968808,76.1406239 71.540625,76.359375 C70.3843692,76.5781261 69.1187569,76.6875 67.74375,76.6875 C67.2437475,76.6875 66.7750022,76.6718752 66.3375,76.640625 C65.8999978,76.6093748 65.4312525,76.5625003 64.93125,76.5 L63.99375,76.3125 C63.8687494,75.6249966 63.7437506,75.2343755 63.61875,75.140625 C63.4937494,75.0468745 63.3687506,74.9375006 63.24375,74.8125 C62.9312484,74.4999984 62.6031267,74.0781277 62.259375,73.546875 C61.9156233,73.0156223 61.837499,72.3437541 62.025,71.53125 C61.7124984,70.9687472 61.5250003,70.4062528 61.4625,69.84375 C61.0874981,70.5937537 60.8062509,71.3749959 60.61875,72.1875 L60.24375,73.125 L59.30625,73.3125 C59.1812494,73.3750003 59.0875003,73.5156239 59.025,73.734375 C58.9624997,73.9531261 58.93125,74.1249994 58.93125,74.25 L58.4625,75.84375 C58.3374994,75.9687506 58.2125006,76.0781245 58.0875,76.171875 C57.9624994,76.2656255 57.8375006,76.3749994 57.7125,76.5 C57.5874994,77.0625028 57.4312509,77.6249972 57.24375,78.1875 C57.056249,78.7500028 56.8687509,79.2812475 56.68125,79.78125 C56.3687484,80.5937541 56.1031261,81.3906211 55.884375,82.171875 C55.6656239,82.9531289 55.5874997,83.7187462 55.65,84.46875 L55.275,85.5 C54.9624984,85.8750019 54.6187519,86.1718739 54.24375,86.390625 C53.8687481,86.6093761 53.4937519,86.8124991 53.11875,87 C52.9937494,87.1250006 52.8218761,87.2343745 52.603125,87.328125 C52.3843739,87.4218755 52.2125006,87.4999997 52.0875,87.5625 L51.80625,88.59375 L50.68125,88.78125 C49.9937465,88.9062506 49.5093764,88.9999997 49.228125,89.0625 C48.9468736,89.1250003 48.6187519,89.15625 48.24375,89.15625 L47.30625,89.0625 C46.6187465,88.4999972 46.0875019,88.0468767 45.7125,87.703125 C45.3374981,87.3593733 44.9000025,87.0312516 44.4,86.71875 C43.8374972,85.9687462 43.5250003,85.4062519 43.4625,85.03125 C43.3999997,84.6562481 43.3375003,84.3125016 43.275,84 C43.1499994,83.6249981 43.0718751,83.3125012 43.040625,83.0625 C43.0093748,82.8124987 42.9312506,82.6250006 42.80625,82.5 L41.5875,81.375 L42.61875,80.53125 L42.7125,78.9375 C43.9625062,75.7499841 45.2906179,72.6875147 46.696875,69.75 C48.103132,66.8124853 49.5562425,63.8125153 51.05625,60.75 C51.5562525,59.749995 52.0406226,58.750005 52.509375,57.75 C52.9781273,56.749995 53.4624975,55.750005 53.9625,54.75 C53.8999997,54.5624991 53.86875,54.3437512 53.86875,54.09375 C53.86875,53.8437487 53.9312494,53.5625016 54.05625,53.25 C54.7437534,52.1874947 55.3062478,51.2343792 55.74375,50.390625 C56.1812522,49.5468708 56.6187478,48.6875044 57.05625,47.8125 C57.5562525,46.7499947 58.0718723,45.718755 58.603125,44.71875 C59.1343776,43.718745 59.8062459,42.6875053 60.61875,41.625 L62.11875,40.96875 C62.3062509,40.9062497 62.5249987,40.8281255 62.775,40.734375 C63.0250012,40.6406245 63.3062484,40.59375 63.61875,40.59375 L65.025,40.78125 C66.7750087,39.9687459 68.3062434,38.8281323 69.61875,37.359375 C70.9312565,35.8906177 72.2749931,34.1250103 73.65,32.0625 L74.5875,30.75 L75.80625,31.5 C76.1187515,31.6875009 76.5562472,31.8593742 77.11875,32.015625 C77.6812528,32.1718758 78.2749969,32.3437491 78.9,32.53125 C80.0250056,32.7812512 81.087495,33.0624984 82.0875,33.375 C83.087505,33.6875016 83.8999969,34.1562469 84.525,34.78125 C84.9000019,35.781255 85.1187497,36.5312475 85.18125,37.03125 C85.2437503,37.5312525 85.3374994,38.0312475 85.4625,38.53125 C85.6500009,39.5937553 85.8218742,40.6562447 85.978125,41.71875 C86.1343758,42.7812553 86.2437497,43.9687434 86.30625,45.28125 C86.6187515,46.3437553 86.8843739,47.3906198 87.103125,48.421875 C87.3218761,49.4531302 87.524999,50.4999947 87.7125,51.5625 C88.0250015,53.0625075 88.3374984,54.515618 88.65,55.921875 C88.9625015,57.328132 89.3687475,58.6562437 89.86875,59.90625 C90.3687525,59.90625 90.6812494,59.9374997 90.80625,60 C91.1187515,59.8749994 91.4468733,59.7812503 91.790625,59.71875 C92.1343767,59.6562497 92.5249978,59.5937503 92.9625,59.53125 L93.99375,59.4375 L94.36875,60.375 C94.4312503,60.6875016 94.7437472,60.9999984 95.30625,61.3125 C96.118754,61.3750003 96.7124981,61.5468736 97.0875,61.828125 C97.4625019,62.1093764 97.8062484,62.4062484 98.11875,62.71875 C98.3687512,62.9687512 98.6187487,63.1562494 98.86875,63.28125 L100.275,63.84375 L99.525,65.25 C98.8999969,66.3750056 98.0093808,67.4531198 96.853125,68.484375 C95.6968692,69.5156302 94.4000072,70.3749966 92.9625,71.0625 C93.0250003,71.4375019 93.0718748,71.7968733 93.103125,72.140625 C93.1343751,72.4843767 93.2124994,72.8437481 93.3375,73.21875 C93.5250009,74.2812553 93.6812494,75.3749944 93.80625,76.5 C93.9312506,77.6250056 93.9312506,78.7812441 93.80625,79.96875 L93.61875,80.34375 Z M66.525,64.125 C68.4000094,63.9999994 70.1031173,63.8593758 71.634375,63.703125 C73.1656326,63.5468742 74.8687406,63.2812519 76.74375,62.90625 C76.3062478,61.0312406 75.8375025,59.0781352 75.3375,57.046875 C74.8374975,55.0156148 74.3062528,53.00001 73.74375,51 L73.18125,51.9375 C71.9312437,53.2500066 70.7281308,54.7187419 69.571875,56.34375 C68.4156192,57.9687581 67.431254,59.4999928 66.61875,60.9375 L65.49375,62.625 C65.1187481,63.1875028 64.7750015,63.7499972 64.4625,64.3125 C64.8375019,64.2499997 65.1968733,64.21875 65.540625,64.21875 C65.8843767,64.21875 66.2124984,64.1875003 66.525,64.125 Z M118.425,71.15625 C117.862497,71.2812506 117.456251,71.6093723 117.20625,72.140625 C116.956249,72.6718777 116.721876,73.2187472 116.503125,73.78125 C116.284374,74.3437528 116.065626,74.8593727 115.846875,75.328125 C115.628124,75.7968773 115.300002,76.03125 114.8625,76.03125 C114.8,76.5312525 114.628126,76.9687481 114.346875,77.34375 C114.065624,77.7187519 113.800001,78.109373 113.55,78.515625 C113.299999,78.921877 113.112501,79.3593727 112.9875,79.828125 C112.862499,80.2968773 112.924999,80.8437469 113.175,81.46875 C112.674997,81.8437519 112.362501,82.3749966 112.2375,83.0625 C112.112499,83.7500034 111.971876,84.4062469 111.815625,85.03125 C111.659374,85.6562531 111.393752,86.1874978 111.01875,86.625 C110.643748,87.0625022 109.956255,87.2500003 108.95625,87.1875 C108.768749,87.4375012 108.737499,87.5937497 108.8625,87.65625 C108.987501,87.7187503 109.08125,87.9374981 109.14375,88.3125 C108.456247,88.1874994 107.940627,88.2343739 107.596875,88.453125 C107.253123,88.6718761 106.831252,88.8124997 106.33125,88.875 C105.143744,88.4999981 104.159379,87.8437547 103.378125,86.90625 C102.596871,85.9687453 101.909378,84.9218808 101.315625,83.765625 C100.721872,82.6093692 100.190627,81.4375059 99.721875,80.25 C99.2531226,79.0624941 98.8000021,78.0312544 98.3625,77.15625 C98.5500009,76.4687466 98.5812506,75.7968783 98.45625,75.140625 C98.3312493,74.4843717 98.1125015,73.9375022 97.8,73.5 C100.862515,66.9999675 104.206232,60.0625369 107.83125,52.6875 C111.456268,45.3124631 114.893734,38.0312859 118.14375,30.84375 C119.581257,31.4062528 121.003118,32.0468714 122.409375,32.765625 C123.815632,33.4843786 125.096869,34.3124953 126.253125,35.25 C127.409381,36.1875047 128.393746,37.2656189 129.20625,38.484375 C130.018754,39.7031311 130.549999,41.0624925 130.8,42.5625 C130.674999,42.9375019 130.534376,43.0781255 130.378125,42.984375 C130.221874,42.8906245 130.081251,42.9374991 129.95625,43.125 C130.206251,43.4375016 130.346875,43.6562494 130.378125,43.78125 C130.409375,43.9062506 130.409375,44.0312494 130.378125,44.15625 C130.346875,44.2812506 130.33125,44.4531239 130.33125,44.671875 C130.33125,44.8906261 130.424999,45.1874981 130.6125,45.5625 C130.362499,45.4999997 130.190625,45.5312494 130.096875,45.65625 C130.003124,45.7812506 129.800002,45.7812506 129.4875,45.65625 C129.737501,46.3437534 129.815625,46.9062478 129.721875,47.34375 C129.628124,47.7812522 129.487501,48.1718733 129.3,48.515625 C129.112499,48.8593767 128.956251,49.234373 128.83125,49.640625 C128.706249,50.046877 128.737499,50.5624969 128.925,51.1875 C128.737499,51.1875 128.596875,51.2343745 128.503125,51.328125 C128.409374,51.4218755 128.33125,51.5156245 128.26875,51.609375 C128.20625,51.7031255 128.128125,51.7968745 128.034375,51.890625 C127.940624,51.9843755 127.800001,52.0000003 127.6125,51.9375 C127.800001,53.3125069 127.8625,54.6874931 127.8,56.0625 C127.7375,57.4375069 127.690625,58.828118 127.659375,60.234375 C127.628125,61.640632 127.64375,63.1093673 127.70625,64.640625 C127.76875,66.1718827 127.987498,67.7499919 128.3625,69.375 C130.612511,68.0624934 132.409368,66.3750103 133.753125,64.3125 C135.096882,62.2499897 136.190621,59.9375128 137.034375,57.375 C137.878129,54.8124872 138.518748,52.0625147 138.95625,49.125 C139.393752,46.1874853 139.862497,43.1875153 140.3625,40.125 C140.925003,39.5624972 141.362498,38.8750041 141.675,38.0625 C141.987502,37.2499959 142.268749,36.3906295 142.51875,35.484375 L143.26875,32.765625 C143.518751,31.8593705 143.831248,31.0312537 144.20625,30.28125 C145.143755,30.4062506 145.940622,30.7031227 146.596875,31.171875 C147.253128,31.6406273 147.862497,32.1406223 148.425,32.671875 C148.987503,33.2031277 149.581247,33.7031227 150.20625,34.171875 C150.831253,34.6406273 151.612495,34.9374994 152.55,35.0625 C153.300004,36.1250053 153.987497,37.156245 154.6125,38.15625 C155.237503,39.156255 155.643749,40.2187444 155.83125,41.34375 C155.518748,41.8437525 155.284376,42.4062469 155.128125,43.03125 C154.971874,43.6562531 154.800001,44.2812469 154.6125,44.90625 C154.424999,45.5312531 154.175002,46.1093723 153.8625,46.640625 C153.549998,47.1718777 153.112503,47.6249981 152.55,48 C152.362499,49.6250081 152.128126,51.1093683 151.846875,52.453125 C151.565624,53.7968817 151.284376,55.1249934 151.003125,56.4375 C150.721874,57.7500066 150.487501,59.109368 150.3,60.515625 C150.112499,61.921882 150.05,63.4687416 150.1125,65.15625 C149.612497,66.5937572 149.081253,68.1249919 148.51875,69.75 C147.956247,71.3750081 147.518752,72.8437434 147.20625,74.15625 C146.206245,74.9687541 145.425003,75.9374944 144.8625,77.0625 C144.299997,78.1875056 143.706253,79.3124944 143.08125,80.4375 C142.831249,80.6875012 142.675,80.7500006 142.6125,80.625 C142.55,80.4999994 142.331252,80.4062503 141.95625,80.34375 C142.01875,80.5937512 142.01875,80.7812494 141.95625,80.90625 C141.89375,81.0312506 141.815625,81.1406245 141.721875,81.234375 C141.628124,81.3281255 141.565625,81.4687491 141.534375,81.65625 C141.503125,81.8437509 141.549999,82.0937484 141.675,82.40625 C140.799996,82.7812519 140.018753,83.3124966 139.33125,84 C138.643747,84.6875034 137.909379,85.3124972 137.128125,85.875 C136.346871,86.4375028 135.40938,86.8124991 134.315625,87 C133.221869,87.1875009 131.800009,86.9687531 130.05,86.34375 C127.487487,84.4687406 125.221885,82.3125122 123.253125,79.875 C121.284365,77.4374878 119.675006,74.5312669 118.425,71.15625 Z M202.3875,80.34375 C202.012498,81.4062553 201.465629,82.4843695 200.746875,83.578125 C200.028121,84.6718805 199.18438,85.6406208 198.215625,86.484375 C197.24687,87.3281292 196.168756,88.0312472 194.98125,88.59375 C193.793744,89.1562528 192.543756,89.4687497 191.23125,89.53125 C190.418746,89.3437491 189.871876,89.1406261 189.590625,88.921875 C189.309374,88.7031239 189.012501,88.5000009 188.7,88.3125 C188.512499,88.1874994 188.340626,88.0781255 188.184375,87.984375 C188.028124,87.8906245 187.887501,87.8125003 187.7625,87.75 L186.6375,87.28125 L187.0125,86.0625 C187.137501,85.5624975 187.106251,85.1718764 186.91875,84.890625 C186.731249,84.6093736 186.356253,84.2187525 185.79375,83.71875 L185.23125,83.15625 C185.043749,82.9687491 184.887501,82.7812509 184.7625,82.59375 L183.16875,80.8125 L185.7,80.15625 C187.262508,79.7187478 188.309372,79.1562534 188.840625,78.46875 C189.371878,77.7812466 189.575001,76.6250081 189.45,75 C188.199994,74.7499987 187.153129,74.7187491 186.309375,74.90625 C185.465621,75.0937509 184.606254,75.3124987 183.73125,75.5625 C182.606244,75.8750016 181.465631,76.1406239 180.309375,76.359375 C179.153119,76.5781261 177.887507,76.6875 176.5125,76.6875 C176.012497,76.6875 175.543752,76.6718752 175.10625,76.640625 C174.668748,76.6093748 174.200002,76.5625003 173.7,76.5 L172.7625,76.3125 C172.637499,75.6249966 172.512501,75.2343755 172.3875,75.140625 C172.262499,75.0468745 172.137501,74.9375006 172.0125,74.8125 C171.699998,74.4999984 171.371877,74.0781277 171.028125,73.546875 C170.684373,73.0156223 170.606249,72.3437541 170.79375,71.53125 C170.481248,70.9687472 170.29375,70.4062528 170.23125,69.84375 C169.856248,70.5937537 169.575001,71.3749959 169.3875,72.1875 L169.0125,73.125 L168.075,73.3125 C167.949999,73.3750003 167.85625,73.5156239 167.79375,73.734375 C167.73125,73.9531261 167.7,74.1249994 167.7,74.25 L167.23125,75.84375 C167.106249,75.9687506 166.981251,76.0781245 166.85625,76.171875 C166.731249,76.2656255 166.606251,76.3749994 166.48125,76.5 C166.356249,77.0625028 166.200001,77.6249972 166.0125,78.1875 C165.824999,78.7500028 165.637501,79.2812475 165.45,79.78125 C165.137498,80.5937541 164.871876,81.3906211 164.653125,82.171875 C164.434374,82.9531289 164.35625,83.7187462 164.41875,84.46875 L164.04375,85.5 C163.731248,85.8750019 163.387502,86.1718739 163.0125,86.390625 C162.637498,86.6093761 162.262502,86.8124991 161.8875,87 C161.762499,87.1250006 161.590626,87.2343745 161.371875,87.328125 C161.153124,87.4218755 160.981251,87.4999997 160.85625,87.5625 L160.575,88.59375 L159.45,88.78125 C158.762496,88.9062506 158.278126,88.9999997 157.996875,89.0625 C157.715624,89.1250003 157.387502,89.15625 157.0125,89.15625 L156.075,89.0625 C155.387496,88.4999972 154.856252,88.0468767 154.48125,87.703125 C154.106248,87.3593733 153.668752,87.0312516 153.16875,86.71875 C152.606247,85.9687462 152.29375,85.4062519 152.23125,85.03125 C152.16875,84.6562481 152.10625,84.3125016 152.04375,84 C151.918749,83.6249981 151.840625,83.3125012 151.809375,83.0625 C151.778125,82.8124987 151.700001,82.6250006 151.575,82.5 L150.35625,81.375 L151.3875,80.53125 L151.48125,78.9375 C152.731256,75.7499841 154.059368,72.6875147 155.465625,69.75 C156.871882,66.8124853 158.324992,63.8125153 159.825,60.75 C160.325002,59.749995 160.809373,58.750005 161.278125,57.75 C161.746877,56.749995 162.231247,55.750005 162.73125,54.75 C162.66875,54.5624991 162.6375,54.3437512 162.6375,54.09375 C162.6375,53.8437487 162.699999,53.5625016 162.825,53.25 C163.512503,52.1874947 164.074998,51.2343792 164.5125,50.390625 C164.950002,49.5468708 165.387498,48.6875044 165.825,47.8125 C166.325002,46.7499947 166.840622,45.718755 167.371875,44.71875 C167.903128,43.718745 168.574996,42.6875053 169.3875,41.625 L170.8875,40.96875 C171.075001,40.9062497 171.293749,40.8281255 171.54375,40.734375 C171.793751,40.6406245 172.074998,40.59375 172.3875,40.59375 L173.79375,40.78125 C175.543759,39.9687459 177.074993,38.8281323 178.3875,37.359375 C179.700006,35.8906177 181.043743,34.1250103 182.41875,32.0625 L183.35625,30.75 L184.575,31.5 C184.887501,31.6875009 185.324997,31.8593742 185.8875,32.015625 C186.450003,32.1718758 187.043747,32.3437491 187.66875,32.53125 C188.793756,32.7812512 189.856245,33.0624984 190.85625,33.375 C191.856255,33.6875016 192.668747,34.1562469 193.29375,34.78125 C193.668752,35.781255 193.8875,36.5312475 193.95,37.03125 C194.0125,37.5312525 194.106249,38.0312475 194.23125,38.53125 C194.418751,39.5937553 194.590624,40.6562447 194.746875,41.71875 C194.903126,42.7812553 195.0125,43.9687434 195.075,45.28125 C195.387501,46.3437553 195.653124,47.3906198 195.871875,48.421875 C196.090626,49.4531302 196.293749,50.4999947 196.48125,51.5625 C196.793751,53.0625075 197.106248,54.515618 197.41875,55.921875 C197.731251,57.328132 198.137497,58.6562437 198.6375,59.90625 C199.137502,59.90625 199.449999,59.9374997 199.575,60 C199.887501,59.8749994 200.215623,59.7812503 200.559375,59.71875 C200.903127,59.6562497 201.293748,59.5937503 201.73125,59.53125 L202.7625,59.4375 L203.1375,60.375 C203.2,60.6875016 203.512497,60.9999984 204.075,61.3125 C204.887504,61.3750003 205.481248,61.5468736 205.85625,61.828125 C206.231252,62.1093764 206.574998,62.4062484 206.8875,62.71875 C207.137501,62.9687512 207.387499,63.1562494 207.6375,63.28125 L209.04375,63.84375 L208.29375,65.25 C207.668747,66.3750056 206.778131,67.4531198 205.621875,68.484375 C204.465619,69.5156302 203.168757,70.3749966 201.73125,71.0625 C201.79375,71.4375019 201.840625,71.7968733 201.871875,72.140625 C201.903125,72.4843767 201.981249,72.8437481 202.10625,73.21875 C202.293751,74.2812553 202.449999,75.3749944 202.575,76.5 C202.700001,77.6250056 202.700001,78.7812441 202.575,79.96875 L202.3875,80.34375 Z M294.325134,21.0245115 C302.454785,0.756831929 327.351067,-2.70710078 340.537989,1.67787314 L343.351489,26.7088731 C331.891489,18.7352731 317.149489,20.9145731 316.773489,35.6804731 C316.637759,46.1614731 328.577489,56.3964731 345.413489,40.7505731 L347.429389,66.3725731 C339.987189,71.3081731 324.875389,73.5872731 312.237389,68.4602731 L312.237389,101.396273 L288.336389,101.396273 L288.880479,120.000273 L264.218479,120.000273 L264.583649,101.396273 L264.674639,96.6973731 L251.718639,96.6973731 L252.297569,77.2853731 L287.572569,75.2938731 L288.335989,101.396873 L288.3354,101.396373 L264.5824,101.396373 L231.906649,101.396273 L231.8643,83.2232731 L220.7973,82.0584731 L225.287,36.0694731 L212,34.8960731 L214.1469,12.6870731 L265.8169,17.9219731 L265.49553,21.1019731 L294.32453,21.0244401 L294.324925,21.0248131 L294.324989,21.0253401 C292.361689,25.9200401 291.376389,31.7943401 291.769889,38.7753401 C293.340789,55.2503401 301.973889,64.2973401 312.236889,68.4603401 L312.236889,20.9763401 L294.325134,21.0245115 Z M175.29375,64.125 C174.981248,64.1875003 174.653127,64.21875 174.309375,64.21875 C173.965623,64.21875 173.606252,64.2499997 173.23125,64.3125 C173.543751,63.7499972 173.887498,63.1875028 174.2625,62.625 C174.637502,62.0624972 175.012498,61.5000028 175.3875,60.9375 C176.200004,59.4999928 177.184369,57.9687581 178.340625,56.34375 C179.496881,54.7187419 180.699994,53.2500066 181.95,51.9375 L182.5125,51 C183.075003,53.00001 183.606247,55.0156148 184.10625,57.046875 C184.606252,59.0781352 185.074998,61.0312406 185.5125,62.90625 C183.637491,63.2812519 181.934383,63.5468742 180.403125,63.703125 C178.871867,63.8593758 177.168759,63.9999994 175.29375,64.125 Z M276.504989,72.5438731 C284.212389,72.5438731 290.818989,66.8646731 290.818989,59.1638731 C290.818989,51.4628731 284.241889,45.7838731 276.533989,45.7838731 C268.826089,45.7838731 262.496989,51.4630731 262.496989,59.1638731 C262.496989,66.8648731 268.797689,72.5438731 276.504989,72.5438731 Z M265.495989,21.1028731 L231.719989,21.1937111 L231.864539,83.2247111 L245.244539,84.6329111 L249.943639,38.8189111 L263.560639,40.2622111 L265.496839,21.1028731 L265.495989,21.1028731 Z" id="Combined-Shape" fill="#FFFFFF"></path>
    </g>
</svg>