<?xml version="1.0" encoding="UTF-8"?>
<svg width="182px" height="160px" viewBox="0 0 182 160" version="1.1" xmlns="http://www.w3.org/2000/svg" xmlns:xlink="http://www.w3.org/1999/xlink">
    <!-- Generator: Sketch 50.2 (55047) - http://www.bohemiancoding.com/sketch -->
    <title>logos/tic</title>
    <desc>Created with Sketch.</desc>
    <defs></defs>
    <g id="logos/tic" stroke="none" stroke-width="1" fill="none" fill-rule="evenodd">
        <path d="M71.1599245,135.009723 L27.5979501,135.009723 L27.5979501,110.794754 L45.2627484,112.634395 L51.5881919,51.8606967 L69.6437657,53.7196892 L72.3130242,28.2943151 L110.810649,28.2943151 C109.993516,30.1601743 109.267523,32.055997 108.703832,34.0404622 C107.007143,40.0718877 106.562682,46.4397797 107.298664,53.2078108 C108.304942,62.34484 111.301303,70.1784521 116.147293,76.7236288 C120.705508,82.8312119 126.786873,87.6703354 134.385145,91.3190295 L134.385145,135.009723 L102.668037,135.009723 L101.596838,100.456059 L54.8479833,103.160275 L54.0040082,128.769176 L71.3410795,128.769176 L71.1600494,135.009723 L102.667912,135.009723 L103.457578,159.931958 L70.4882402,160 L71.1599245,135.009723 Z M72.3127745,28.2943776 L27.5977004,28.2943776 L27.5977004,110.794816 L12.8006696,109.257308 L19.0636889,48.4736224 L1,46.6127572 L4.04942186,17.0748772 L72.739756,24.1768778 L72.3127745,28.2943776 Z M178.583285,54.3961178 L181.361161,88.5059456 C177.974649,90.3081321 174.580021,91.8337794 171.131085,92.8993604 C167.635954,94.028614 164.140823,94.7602256 160.636953,95.1460071 C156.234175,95.6672491 151.949378,95.6672491 147.765085,95.0960677 C143.534597,94.591056 139.749818,93.5797841 136.200378,92.1727428 C135.574264,91.9005733 134.99247,91.6053068 134.385083,91.3187798 L134.385083,28.2946897 L110.81121,28.2946897 C112.434864,24.5323835 114.505474,20.9966772 117.109812,17.7418798 C121.122439,12.7853988 125.925356,8.83706854 131.562261,5.90375568 C137.262838,2.976061 143.534597,1.12081397 150.370046,0.332396406 C154.029352,-0.0639972234 157.705513,-0.130791111 161.318001,0.268099487 C164.975435,0.608311342 168.598535,1.34366834 172.093666,2.5234856 L175.87782,35.9659988 C172.546865,33.4278311 169.333892,31.6119113 166.056622,30.6043848 C162.834285,29.5381796 159.511445,29.1923496 156.071248,29.5887432 C150.760822,30.1511852 146.703249,32.2985775 143.81613,35.8960837 C140.993308,39.5091961 139.813491,44.0755258 140.430866,49.4902004 C141.056981,54.7906387 143.0171,58.8544537 146.467286,61.6722818 C149.916847,64.4819947 154.265316,65.6081272 159.447772,65.0544246 C162.552128,64.7135885 165.665846,63.6380196 168.707153,61.9488209 C171.820872,60.2471374 175.08753,57.7782606 178.583285,54.3961178 Z M100.289675,91.7098049 C104.020769,88.2202925 105.817337,84.0491079 105.817337,79.0326997 C105.817337,74.0681036 104.020769,69.8382402 100.289675,66.4017884 C96.6228779,62.966585 92.1739057,61.2130894 86.9633582,61.2130894 C81.771538,61.2130894 77.3144506,62.966585 73.6470292,66.4017884 C69.9252988,69.8382402 68.1187427,74.0681036 68.1187427,79.0326997 C68.1187427,84.0491079 69.9252988,88.2202925 73.6470292,91.7098049 C77.3144506,95.1462568 81.771538,96.8516858 86.9633582,96.8516858 C92.1739057,96.8516858 96.6228779,95.1462568 100.289675,91.7098049 Z" id="Combined-Shape" fill="#FEFEFE"></path>
    </g>
</svg>