<?xml version="1.0" encoding="UTF-8"?>
<svg width="22px" height="22px" viewBox="0 0 22 22" version="1.1" xmlns="http://www.w3.org/2000/svg" xmlns:xlink="http://www.w3.org/1999/xlink">
    <!-- Generator: Sketch 50.2 (55047) - http://www.bohemiancoding.com/sketch -->
    <title>icon</title>
    <desc>Created with Sketch.</desc>
    <defs></defs>
    <g id="icon" stroke="none" stroke-width="1" fill="none" fill-rule="evenodd">
        <path d="M19.5307048,7.04327219 C18.9929669,5.95889724 18.2547743,4.98614344 17.3551305,4.17640766 C17.3333061,4.15593925 17.3012725,4.15069739 17.2740624,4.16314196 C17.2473852,4.17598819 17.2302634,4.20281231 17.2298434,4.23241838 L17.244583,4.93255239 C17.244537,4.95133416 17.2519608,4.96936351 17.2652186,4.98266725 C17.8828105,5.62679054 18.5755746,6.47432118 18.9927071,7.3100601 C19.1739381,7.67484905 19.3300503,8.05158661 19.4599544,8.43764435 C19.4707542,8.46767269 19.4605674,8.50122942 19.434897,8.52018646 C19.4085884,8.53781267 19.3742416,8.53781267 19.347933,8.52018646 L17.3551305,7.24078368 C17.3304127,7.22496687 17.2987506,7.22497956 17.2740454,7.24081619 C17.2493403,7.25665283 17.2361091,7.28541785 17.2401611,7.314482 L17.3153334,7.91291233 C17.3184739,7.93504536 17.3307771,7.95483751 17.3492346,7.96744909 L19.7208465,9.47531665 C19.7388932,9.4859011 19.7517125,9.50352762 19.7562217,9.52395754 C20.047088,10.9497785 19.9894445,12.4247454 19.5881895,13.8235174 C19.5810907,13.8479704 19.5623117,13.8673017 19.5380747,13.8751062 C19.5113092,13.8842099 19.4859925,13.8971164 19.4629024,13.9134293 L17.1134,15.592277 C17.0856006,15.6152643 17.0453916,15.6152643 17.0175922,15.592277 C17.0058115,15.581653 16.9929696,15.5722685 16.9792691,15.5642716 L14.3010723,13.838257 C14.277403,13.822203 14.2643987,13.7944981 14.267171,13.7660327 L14.5398548,11.3826291 C14.5427228,11.3589296 14.5339337,11.3353089 14.5162713,11.3192485 C14.4996214,11.3027594 14.4758872,11.2955839 14.4528908,11.300087 L13.9871174,11.3826291 C13.9546713,11.3886647 13.9297316,11.414792 13.9252108,11.4474836 L13.6864283,13.5287241 C13.683638,13.5611594 13.659493,13.5877189 13.6274696,13.5935786 L9.13039833,14.5015419 C9.09876623,14.5071535 9.06699106,14.4924427 9.05080415,14.4646927 L6.79563565,10.4717179 C6.77989279,10.4432705 6.78341518,10.4080466 6.80447945,10.3832799 L7.33363336,9.80548511 C7.35278253,9.78484863 7.3585023,9.75510581 7.34837303,9.72883886 L7.1700231,9.2542217 C7.16157362,9.22930906 7.13999954,9.21114142 7.11401238,9.20705478 C7.08862378,9.20141399 7.06216302,9.20985892 7.04473596,9.22916427 L6.40503457,9.92635035 C6.38764775,9.94672115 6.36041611,9.95579836 6.33428418,9.94993381 L6.31512262,9.94993381 L4.79251539,9.91161069 C4.77149343,9.91191156 4.75141053,9.92036752 4.73650467,9.93519415 C4.72187185,9.95001564 4.71434982,9.97043259 4.71586914,9.99120487 L4.7438745,10.4451865 C4.74685123,10.4840909 4.77857941,10.5145499 4.81757282,10.5159369 L6.10287147,10.5498381 C6.12901701,10.5514059 6.15271768,10.5657365 6.16625202,10.5881612 L8.66020307,15.0100603 C8.66020307,15.0100603 8.67052083,15.020378 8.67346877,15.0277479 L7.6166349,18.1230772 C7.61599458,18.1294483 7.61599458,18.1358676 7.6166349,18.1422387 C7.61084849,18.1762036 7.58310984,18.2021332 7.54883245,18.2056193 L5.1904863,18.3382763 C5.17091561,18.3399192 5.15144412,18.3341303 5.13594955,18.3220626 C3.53059269,16.9985797 2.43190116,15.1610051 2.02588057,13.1204354 L2.02588057,13.1071697 C2.02588057,13.0467371 1.91828103,12.4350411 1.87848394,12.2375296 C1.87273235,12.2020395 1.84221182,12.175879 1.80625959,12.175623 L1.36406969,12.175623 C1.34276372,12.1744382 1.32210063,12.1831385 1.30805897,12.1992064 C1.29335541,12.2145843 1.28585701,12.2354727 1.28742344,12.2566911 C1.65166509,16.1142014 4.28781313,19.37979 7.98173102,20.5494175 C11.6756489,21.719045 15.7109357,20.565873 18.2290505,17.6210206 C20.7471652,14.6761681 21.259743,10.5107619 19.5307048,7.04327219 Z M9.62565102,20.2382189 C9.6113303,20.2708158 9.57678063,20.289606 9.54163494,20.2839118 C8.32432749,20.0986679 7.15710092,19.6689801 6.1102413,19.0207227 C6.07910001,19.0046438 6.06320183,18.9691787 6.07191818,18.9352326 C6.07971884,18.9012045 6.11074212,18.8776268 6.14561649,18.8792219 L7.66085389,18.7937319 C7.67813463,18.7921674 7.69540103,18.7968764 7.70949478,18.8069975 L9.59617169,20.146833 C9.62622644,20.1666023 9.63848811,20.2046135 9.62565102,20.2382189 Z M16.7139552,16.1538581 L16.1848012,18.6478092 C16.1809391,18.6665372 16.1698077,18.6829693 16.1538479,18.6935021 C14.6504665,19.7772309 12.8481595,20.3683876 10.9949658,20.3856155 C10.9735408,20.3858019 10.9530953,20.3766553 10.938955,20.3605581 C10.9331628,20.3535018 10.9261787,20.3475153 10.9183195,20.3428705 L8.2076954,18.4178704 C8.17834144,18.3960751 8.16846801,18.3565814 8.18411194,18.3235366 C8.18435776,18.3186264 8.18435776,18.3137071 8.18411194,18.3087969 L9.27042513,15.1265036 C9.27870626,15.1012078 9.30022914,15.0825169 9.32643585,15.0778627 L13.6952721,14.1934829 C13.7141011,14.1901305 13.7335058,14.1938016 13.7498088,14.2038007 L16.6505746,16.0595243 L16.675632,16.074264 C16.7063787,16.0879275 16.723968,16.1206799 16.718377,16.1538581 L16.7139552,16.1538581 Z M19.128312,15.0557532 C18.6443744,16.1343832 17.9532657,17.1074442 17.0942385,17.9196698 C17.0701246,17.9412204 17.0349298,17.9449326 17.0068504,17.9288873 C16.978771,17.9128419 16.9641011,17.8806355 16.9704253,17.8489194 L17.3212293,16.2010251 C17.3238878,16.1822111 17.3346631,16.1655093 17.3507086,16.1553321 L19.0177645,14.9628933 C19.0450493,14.9432176 19.0818657,14.9432176 19.1091505,14.9628933 C19.1382734,14.9841789 19.1481711,15.0231508 19.1327339,15.0557532 L19.128312,15.0557532 Z M13.9001534,10.9713925 C13.4357594,10.9952045 12.9794526,10.8431022 12.6222246,10.5454162 C12.1991963,10.1710288 11.9839972,9.5608067 11.9839972,8.73685951 L11.9839972,3.75780122 C11.9839972,2.1688655 12.8020485,1.19752169 14.2760148,1.02359366 C14.9864666,0.941051542 15.5465738,1.07518248 15.9386489,1.4245125 C16.3616772,1.80037392 16.5768763,2.40912202 16.5768763,3.2330692 L16.5768763,4.22357458 L15.0321596,4.40487244 L15.0321596,3.30529355 C15.0321596,2.97954699 14.9614092,2.75255617 14.8228563,2.628743 C14.6828755,2.52154024 14.5031357,2.48064137 14.3305516,2.51672156 C13.8485646,2.57420625 13.6142039,2.89700488 13.6142039,3.48659141 L13.6142039,8.6498955 C13.6142039,8.9697462 13.6820064,9.19378908 13.8190853,9.31465432 C13.9606448,9.4221159 14.1422528,9.46199421 14.3158119,9.42372783 C14.8051687,9.36771711 15.0336335,9.05818418 15.0336335,8.46859764 L15.0336335,7.04327219 L16.5783502,6.8678702 L16.5783502,8.21360146 C16.5783502,9.80253718 15.7647208,10.773881 14.2907545,10.947809 C14.1611051,10.9630525 14.0306951,10.9709263 13.9001534,10.9713925 Z M9.52689528,1.69130041 L9.52689528,11.3988427 L7.9011104,11.5889844 L7.9011104,1.88291603 L9.52689528,1.69130041 Z M2.56387829,12.216894 L2.56387829,4.00984946 L1,4.19262129 L1,2.69359752 L5.75059351,2.13496428 L5.75059351,3.63398805 L4.18818919,3.81823384 L4.18818919,12.0252784 L2.56387829,12.216894 Z" id="Combined-Shape" fill="#000000" fill-rule="nonzero"></path>
    </g>
</svg>