<?xml version="1.0" encoding="UTF-8"?>
<svg width="512px" height="512px" viewBox="0 0 512 512" version="1.1" xmlns="http://www.w3.org/2000/svg" xmlns:xlink="http://www.w3.org/1999/xlink">
    <!-- Generator: Sketch 50.2 (55047) - http://www.bohemiancoding.com/sketch -->
    <title>icons/football</title>
    <desc>Created with Sketch.</desc>
    <defs></defs>
    <g id="icons/football" stroke="none" stroke-width="1" fill="none" fill-rule="evenodd">
        <path d="M489.73,72.7635359 C494.515,75.5205359 496.159,81.6335359 493.401,86.4165359 L450.054,161.651536 C450.13,161.694536 450.207,161.732536 450.282,161.775536 C460.404,167.618536 464.189,180.078536 458.721,189.551536 L420.044,256.542536 L403.589,285.043536 C396.079,298.050536 381.952,305.163536 366.874,305.163536 C361.407,305.163536 355.82,304.212536 350.374,302.285536 L347.687,306.940536 L348.836,314.252536 C348.851,314.349536 348.865,314.445536 348.877,314.543536 C348.984,315.382536 349.063,316.228536 349.158,317.071536 C349.176,317.211536 349.193,317.351536 349.205,317.492536 C349.909,323.896536 350.287,330.390536 350.287,336.853536 C350.287,380.687536 334.098,420.811536 307.388,451.563536 C306.929,452.226536 306.391,452.832536 305.785,453.369536 C288.262,472.997536 266.393,488.663536 241.704,498.845536 C241.216,499.096536 240.708,499.299536 240.188,499.466536 C220.068,507.543536 198.118,511.997536 175.144,511.997536 C154.534,511.997536 134.749,508.408536 116.368,501.840536 C115.942,501.721536 115.525,501.573536 115.116,501.398536 C89.221,491.922536 66.174,476.492536 47.627,456.782536 C46.987,456.249536 46.422,455.636536 45.935,454.965536 C17.422,423.799536 0,382.324536 0,336.854536 C0,330.131536 0.401,323.434536 1.174,316.793536 C1.196,316.471536 1.234,316.151536 1.287,315.832536 C4.173,292.114536 11.891,269.159536 23.894,248.557536 C24.105,248.143536 24.339,247.742536 24.605,247.361536 C28.708,240.445536 33.288,233.797536 38.341,227.484536 C59.481,201.073536 88.029,181.256536 119.86,170.635536 L96.309,157.038536 L92.413,163.787536 C89.023,169.659536 83.549,173.859536 77,175.614536 C74.812,176.201536 72.593,176.491536 70.388,176.491536 C65.988,176.491536 61.648,175.338536 57.736,173.079536 L55.653,171.876536 C49.781,168.486536 45.58,163.013536 43.825,156.463536 C42.07,149.913536 42.971,143.073536 46.361,137.201536 L50.293,130.389536 C29.33,116.833536 21.497,90.6835359 32.922,70.8965359 L49.374,42.3965359 C58.292,26.9495359 76.46,18.9855359 95.65,22.0965359 C95.718,22.1085359 95.786,22.1195359 95.854,22.1325359 C128.001,28.0365359 289.345,58.0665359 308.863,69.3365359 L313.419,71.9665359 L352.198,4.98953586 C354.965,0.210535863 361.082,-1.41846414 365.86,1.34653586 C370.639,4.11353586 372.269,10.2305359 369.503,15.0085359 L325.72,90.6275359 C325.72,90.6295359 325.719,90.6305359 325.718,90.6315359 L315.859,107.708536 C311.976,114.434536 314.287,123.067536 321.013,126.952536 L374.322,157.748536 C380.074,161.068536 386.651,162.525536 392.775,161.967536 L404.808,158.743536 L410.057,157.029536 C412.755,156.147536 415.529,155.539536 418.338,155.169536 C418.355,155.166536 418.371,155.166536 418.388,155.163536 C422.456,154.633536 426.6,154.627536 430.725,155.148536 L476.076,76.4355359 C478.832,71.6515359 484.944,70.0075359 489.73,72.7635359 Z M250.874,73.5965359 C246.251,72.5545359 241.401,71.4815359 236.367,70.3855359 L244.944,102.398536 L259.256,104.882536 L250.874,73.5965359 Z M177.958,58.2555359 C173.162,57.2975359 168.349,56.3415359 163.544,55.3925359 L172.642,89.3465359 L186.954,91.8305359 L177.958,58.2555359 Z M75.092,153.790536 L78.99,147.041536 L67.574,140.450536 L63.678,147.200536 C62.958,148.446536 62.767,149.898536 63.14,151.288536 C63.511,152.677536 64.403,153.839536 65.649,154.559536 C65.65,154.559536 65.65,154.559536 65.65,154.559536 L67.733,155.762536 C68.98,156.482536 70.431,156.674536 71.821,156.300536 C73.21,155.929536 74.372,155.037536 75.092,153.790536 Z M122.237,190.939536 C95.213,200.661536 72.067,217.405536 54.666,238.805536 L99.482,230.388536 L122.237,190.939536 Z M155.917,225.856536 C151.613,225.856536 147.255,224.764536 143.269,222.459536 L141.186,221.257536 C137.644,219.212536 134.715,216.404536 132.559,213.063536 L117.568,239.052536 L148.503,286.657536 L201.821,286.657536 L218.576,261.196536 C221.612,256.584536 227.814,255.308536 232.424,258.341536 C237.036,261.377536 238.314,267.577536 235.279,272.189536 L218.203,298.137536 L229.43,332.688536 L234.676,348.834536 L283.96,359.899536 L320.911,322.624536 C317.577,322.237536 314.266,321.188536 311.179,319.405536 L309.097,318.204536 L309.096,318.203536 C296.975,311.205536 292.806,295.649536 299.805,283.527536 L303.884,276.462536 L294.346,270.955536 C292.243,269.741536 290.654,267.804536 289.875,265.503536 C286.705,256.141536 279.597,247.718536 270.373,242.392536 L242.724,226.429536 C238.972,224.262536 234.606,223.463536 230.746,224.234536 C222.097,225.960536 212.935,224.374536 204.951,219.764536 L181.84,206.419536 L177.944,213.169536 C173.247,221.303536 164.696,225.856536 155.917,225.856536 Z M149.21,196.582536 C148.49,197.829536 148.3,199.283536 148.672,200.672536 C149.044,202.061536 149.935,203.223536 151.182,203.943536 C151.183,203.943536 151.184,203.943536 151.184,203.944536 L153.267,205.147536 C155.84,206.631536 159.141,205.746536 160.627,203.173536 L164.522,196.424536 L160.068,193.852536 L153.106,189.833536 L149.21,196.582536 Z M215.174,353.523536 L199.946,306.654536 L150.666,306.654536 L135.438,353.523536 L175.306,382.489536 L195.24,368.006536 L215.174,353.523536 Z M39.014,262.091536 C30.332,277.959536 24.374,295.470536 21.662,313.966536 L66.381,359.888536 L75.135,357.922536 L115.608,348.835536 L132.092,298.105536 L101.11,250.428536 L39.014,262.091536 Z M46.869,424.028536 L52.638,374.433536 L20.051,340.970536 C20.855,371.697536 30.641,400.226536 46.869,424.028536 Z M64.502,445.499536 C79.451,460.720536 97.503,472.882536 117.625,480.943536 L164.98,447.002536 L164.98,399.941536 L121.137,368.086536 L118.862,368.597536 L72.229,379.068536 L64.502,445.499536 Z M175.143,492.001536 C188.366,492.001536 201.205,490.334536 213.467,487.207536 L175.566,464.018536 L141.625,488.344536 C152.422,490.732536 163.636,492.002536 175.143,492.001536 Z M237.913,478.722536 C257.152,470.176536 274.341,457.828536 288.524,442.637536 L278.366,379.138536 L232.301,368.795536 L229.149,368.087536 L217.581,376.491536 L185.304,399.941536 L185.304,446.534536 L237.913,478.722536 Z M305.336,421.143536 C320.297,398.112536 329.316,370.887536 330.21,341.649536 L297.843,374.300536 L305.336,421.143536 Z M328.537,300.117536 L332.432,293.367536 L321.016,286.776536 L317.12,293.526536 C315.636,296.099536 316.521,299.401536 319.092,300.888536 L321.174,302.089536 C323.749,303.576536 327.051,302.690536 328.537,300.117536 Z M351.754,281.011536 C363.932,288.043536 378.473,286.002536 385.227,276.654536 C384.606,276.678536 383.985,276.699536 383.363,276.699536 C374.741,276.699536 366.058,274.355536 358.213,269.826536 L310.805,242.454536 C308.702,241.240536 307.113,239.303536 306.334,237.002536 C303.164,227.640536 296.056,219.217536 286.832,213.891536 L259.184,197.928536 C255.431,195.761536 251.064,194.958536 247.207,195.734536 C238.558,197.460536 229.396,195.874536 221.411,191.264536 L69.03,103.287536 C60.217,98.1995359 53.509,90.9535359 49.284,82.7995359 C44.583,93.5265359 50.201,107.329536 62.573,114.473536 L68.909,118.131536 C68.911,118.132536 68.914,118.133536 68.916,118.134536 L97.648,134.723536 C97.651,134.724536 97.653,134.726536 97.656,134.728536 L173.307,178.406536 L183.18,184.106536 C183.181,184.106536 183.181,184.107536 183.182,184.107536 L214.951,202.448536 C218.674,204.598536 223.003,205.394536 226.832,204.626536 C235.514,202.891536 244.71,204.486536 252.724,209.113536 L280.372,225.076536 C292.749,232.222536 302.241,242.901536 307.436,255.424536 L351.754,281.011536 Z M402.728,246.545536 L441.17,179.959536 C441.055,179.740536 440.797,179.391536 440.283,179.094536 C434.493,175.751536 427.865,174.306536 421.71,174.914536 L410.492,177.920536 L404.655,179.826536 C401.991,180.697536 399.254,181.302536 396.483,181.675536 L348.709,194.476536 C347.843,194.709536 346.971,194.820536 346.115,194.820536 C341.7,194.820536 337.661,191.873536 336.464,187.406536 C335.036,182.073536 338.201,176.591536 343.534,175.161536 L357.851,171.325536 L311.011,144.267536 C294.74,134.868536 289.147,113.982536 298.542,97.7105359 L303.411,89.2775359 L298.865,86.6535359 C295.788,84.8775359 286.419,82.1285359 272.966,78.7945359 L282.62,114.825536 C283.503,118.120536 282.645,121.638536 280.343,124.157536 C278.432,126.248536 275.744,127.410536 272.963,127.410536 C272.395,127.410536 271.823,127.363536 271.253,127.263536 L235.229,121.010536 C231.391,120.344536 228.29,117.509536 227.282,113.746536 L214.411,65.7075359 C209.639,64.7095359 204.772,63.7015359 199.845,62.6905359 L210.317,101.771536 C211.2,105.066536 210.342,108.584536 208.04,111.103536 C206.129,113.194536 203.441,114.356536 200.66,114.356536 C200.092,114.356536 199.52,114.309536 198.95,114.209536 L162.926,107.956536 C159.088,107.290536 155.987,104.455536 154.979,100.692536 L141.699,51.1295359 C124.154,47.7395359 107.266,44.5575359 92.354,41.8185359 C81.473,40.0865359 71.408,44.2305359 66.695,52.3935359 C60.377,63.3345359 65.909,78.3975359 79.025,85.9705359 L231.406,173.946536 C235.129,176.096536 239.459,176.893536 243.287,176.124536 C251.968,174.391536 261.163,175.983536 269.178,180.610536 L296.828,196.573536 C309.205,203.719536 318.696,214.398536 323.892,226.921536 L368.21,252.509536 C374.644,256.225536 381.887,257.532536 388.603,256.189536 C394.84,254.942536 399.857,251.518536 402.728,246.545536 Z M324.075,185.552536 C325.945,187.412536 327.004,189.980536 327.004,192.621536 C327.004,195.251536 325.945,197.830536 324.075,199.689536 C322.215,201.549536 319.646,202.619536 317.006,202.619536 C314.376,202.619536 311.797,201.549536 309.937,199.689536 C308.078,197.830536 307.008,195.251536 307.008,192.621536 C307.008,189.981536 308.077,187.412536 309.937,185.552536 C311.797,183.692536 314.377,182.623536 317.006,182.623536 C319.646,182.623536 322.215,183.692536 324.075,185.552536 Z M508.969,44.5705359 C510.828,46.4295359 511.898,49.0095359 511.898,51.6385359 C511.898,54.2695359 510.829,56.8465359 508.969,58.7075359 C507.109,60.5675359 504.529,61.6365359 501.9,61.6365359 C499.27,61.6365359 496.691,60.5675359 494.831,58.7075359 C492.972,56.8475359 491.902,54.2785359 491.902,51.6385359 C491.902,49.0085359 492.971,46.4295359 494.831,44.5705359 C496.691,42.7105359 499.27,41.6405359 501.9,41.6405359 C504.53,41.6405359 507.109,42.7105359 508.969,44.5705359 Z" id="Combined-Shape" stroke="#00A7E1" stroke-width="3" fill-rule="nonzero"></path>
    </g>
</svg>