<?xml version="1.0" encoding="UTF-8"?>
<svg width="512px" height="512px" viewBox="0 0 512 512" version="1.1" xmlns="http://www.w3.org/2000/svg" xmlns:xlink="http://www.w3.org/1999/xlink">
    <!-- Generator: Sketch 50.2 (55047) - http://www.bohemiancoding.com/sketch -->
    <title>icons/strategy</title>
    <desc>Created with Sketch.</desc>
    <defs></defs>
    <g id="icons/strategy" stroke="none" stroke-width="1" fill="none" fill-rule="evenodd">
        <path d="M393.729889,97.9843943 C420.644057,97.9843943 442.511819,76.011499 442.511819,48.9921971 C442.511819,21.9728953 420.644057,0 393.729889,0 C366.815721,0 344.947959,22.0780287 344.947959,48.9921971 C344.947959,75.9063655 366.815721,97.9843943 393.729889,97.9843943 Z M393.729889,25.3371663 C406.661306,25.3371663 417.279786,35.9555735 417.279786,49.0971666 C417.279786,62.2387596 406.766439,72.8571668 393.729889,72.8571668 C380.693339,72.8571668 370.179992,62.1336269 370.179992,48.9920338 C370.179992,35.8504408 380.693339,25.3371663 393.729889,25.3371663 Z M106.084715,413.910472 C132.893749,413.910472 154.866645,435.883368 154.866645,462.902669 C154.866645,489.921971 132.998883,511.894867 106.084715,511.894867 C79.1705462,511.894867 57.3027844,489.921971 57.3027844,462.902669 C57.3027844,435.883368 79.1705462,413.910472 106.084715,413.910472 Z M106.084715,486.662834 C119.016131,486.662834 129.529478,475.93922 129.634612,462.902669 C129.634612,449.760986 119.121265,439.142505 106.084715,439.142505 C93.0481643,439.142505 82.5348172,449.866119 82.5348172,462.902669 C82.5348172,476.044353 93.1532977,486.662834 106.084715,486.662834 Z M226.672805,217.100616 L200.389437,190.817248 L174.10607,217.100616 C171.582867,219.518686 168.428862,220.780287 165.169725,220.780287 C161.910587,220.780287 158.65145,219.518686 156.23338,217.100616 C151.292107,212.159343 151.292107,204.169199 156.23338,199.227926 L182.516747,172.944559 L156.23338,146.661191 C151.292107,141.719918 151.292107,133.729774 156.23338,128.788501 C161.174653,123.847228 169.164797,123.847228 174.10607,128.788501 L200.389437,155.071869 L226.672805,128.788501 C231.614078,123.847228 239.604222,123.847228 244.545495,128.788501 C249.486768,133.729774 249.486768,141.719918 244.545495,146.661191 L218.262127,172.944559 L244.545495,199.227926 C249.486768,204.169199 249.486768,212.159343 244.545495,217.100616 C242.022292,219.518686 238.868287,220.780287 235.60915,220.780287 C232.350012,220.780287 229.090875,219.518686 226.672805,217.100616 Z M437.885947,331.170431 C442.82722,336.111704 442.82722,343.996715 437.885947,349.043121 L411.602579,375.326489 L437.885947,401.609856 C442.82722,406.551129 442.82722,414.541273 437.885947,419.482546 C435.362743,421.900616 432.208739,423.162218 428.949602,423.162218 C425.690464,423.162218 422.431326,421.900616 420.013257,419.482546 L393.729889,393.199179 L367.446522,419.482546 C364.923318,421.900616 361.769314,423.162218 358.510177,423.162218 C355.251039,423.162218 351.991901,421.900616 349.573832,419.482546 C344.632559,414.541273 344.632559,406.551129 349.573832,401.609856 L375.857199,375.326489 L349.573832,349.043121 C344.632559,344.101848 344.632559,336.111704 349.573832,331.170431 C354.515105,326.229158 362.505248,326.229158 367.446522,331.170431 L393.729889,357.453799 L420.013257,331.170431 C424.95453,326.229158 432.944674,326.229158 437.885947,331.170431 Z M288.386152,396.248049 C293.222292,401.189322 293.222292,409.179466 288.386152,414.120739 L262.102784,440.404107 L288.386152,466.687474 C293.327425,471.628747 293.327425,479.618891 288.386152,484.560164 C285.862949,486.978234 282.708945,488.239836 279.449807,488.239836 C276.190669,488.239836 272.931532,486.978234 270.513462,484.560164 L244.230094,458.276797 L217.946727,484.560164 C215.423524,486.978234 212.26952,488.239836 209.010382,488.239836 C205.751244,488.239836 202.492107,486.978234 200.074037,484.560164 C195.132764,479.618891 195.132764,471.628747 200.074037,466.687474 L226.357405,440.404107 L200.074037,414.120739 C195.132764,409.179466 195.132764,401.189322 200.074037,396.248049 C205.01531,391.306776 213.005454,391.306776 217.946727,396.248049 L244.230094,422.531417 L270.513462,396.248049 C275.454735,391.306776 283.444879,391.306776 288.386152,396.248049 Z M206.697446,301.417659 C199.653503,301.417659 194.081429,295.740452 194.081429,288.801643 C194.081429,281.862834 199.758637,276.185626 206.697446,276.185626 C213.636255,276.185626 219.313462,281.862834 219.313462,288.801643 C219.313462,295.740452 213.636255,301.417659 206.697446,301.417659 Z M113.233791,338.634908 C107.346316,334.850103 105.769314,326.965092 109.659253,321.182752 C113.444057,315.400411 121.329068,313.823409 127.111409,317.608214 C132.893749,321.393018 134.470752,329.278029 130.685947,335.06037 C128.267877,338.740041 124.272805,340.737577 120.1726,340.737577 C117.75453,340.737577 115.33646,340.001643 113.233791,338.634908 Z M152.658842,284.701437 C158.96685,281.862834 166.430275,284.701437 169.375064,291.114579 C172.213667,297.422587 169.375064,304.887064 162.961922,307.725667 C161.279786,308.461602 159.492517,308.777002 157.810382,308.777002 C152.974242,308.777002 148.34837,306.043532 146.2457,301.312526 C143.407097,295.004517 146.2457,287.540041 152.658842,284.701437 Z M256.635844,301.417659 C249.66821,301.417659 244.019828,295.769276 244.019828,288.801643 C244.019828,281.834009 249.66821,276.185626 256.635844,276.185626 C263.603477,276.185626 269.25186,281.834009 269.25186,288.801643 C269.25186,295.769276 263.603477,301.417659 256.635844,301.417659 Z M106.084715,387.942505 C102.720444,387.942505 99.461306,386.57577 97.1483696,384.262834 C94.8354333,381.949897 93.4686982,378.69076 93.4686982,375.326489 C93.4686982,371.962218 94.8354333,368.70308 97.1483696,366.390144 C99.461306,364.077207 102.720444,362.710472 106.084715,362.710472 C109.448986,362.710472 112.708123,364.077207 115.02106,366.390144 C117.333996,368.70308 118.700731,371.962218 118.700731,375.326489 C118.700731,378.69076 117.333996,381.949897 115.02106,384.262834 C112.708123,386.57577 109.448986,387.942505 106.084715,387.942505 Z M451.343031,178.937166 C456.284304,183.878439 456.284304,191.868583 451.343031,196.704723 C448.819828,199.122793 445.665823,200.384394 442.406686,200.384394 C439.147548,200.384394 435.888411,199.122793 433.470341,196.704723 L406.240772,169.475154 L406.240772,202.171663 C406.240772,256.841068 361.453914,301.312526 306.469109,301.312526 C299.5303,301.312526 293.853092,295.635318 293.853092,288.696509 C293.853092,281.7577 299.5303,276.080493 306.469109,276.080493 C347.576296,276.080493 381.008739,242.96345 381.008739,202.171663 L381.008739,169.580287 L353.77917,196.809856 C348.837897,201.751129 340.847754,201.751129 335.90648,196.809856 C330.965207,191.868583 330.965207,183.878439 335.90648,178.937166 L384.688411,130.155236 C389.629684,125.213963 397.619828,125.213963 402.561101,130.155236 L451.343031,178.937166 Z" id="Combined-Shape" stroke="#00A7E1" stroke-width="3" fill-rule="nonzero"></path>
    </g>
</svg>