<?xml version="1.0" encoding="UTF-8"?>
<svg width="40px" height="40px" viewBox="0 0 40 40" version="1.1" xmlns="http://www.w3.org/2000/svg" xmlns:xlink="http://www.w3.org/1999/xlink">
    <!-- Generator: Sketch 50.2 (55047) - http://www.bohemiancoding.com/sketch -->
    <title>icons/training</title>
    <desc>Created with Sketch.</desc>
    <defs></defs>
    <g id="icons/training" stroke="none" stroke-width="1" fill="none" fill-rule="evenodd">
        <path d="M30.8310064,11.4539615 C29.8672377,12.8155032 27.6033405,11.5141756 28.5779872,10.1373019 C29.3856959,8.995803 30.2373448,7.89036403 31.1133191,6.80496788 C30.4152463,6.14706638 29.7236831,5.48162741 29.0429979,4.80334047 C27.850364,3.61464668 29.6958458,1.76985011 30.8884797,2.9585439 C31.5142612,3.58226981 32.1488651,4.19554604 32.7891221,4.80205567 C33.4833405,4.00171306 34.1883512,3.21019272 34.9143469,2.43665953 C36.0678373,1.20702355 37.909379,3.05618844 36.7593148,4.2814561 C36.0595289,5.02698073 35.3791863,5.78852248 34.7094647,6.55820128 C35.589379,7.33764454 36.4840257,8.10124197 37.4113062,8.82929336 C38.7339615,9.86749465 36.8733191,11.7008137 35.5662527,10.6740899 C34.6994433,9.99400428 33.8626124,9.2814561 33.0375161,8.55546039 C32.2764026,9.50038544 31.5338758,10.4607281 30.8310064,11.4539615 Z M10.3856103,26.0507066 C11.6369165,24.9349893 13.4889079,26.7739615 12.2306638,27.8952463 C11.3168308,28.7099786 10.4358887,29.5576017 9.564197,30.4153319 C10.1885225,31.0072805 10.8166167,31.5962313 11.4477088,32.1825268 C12.6831692,33.3290792 10.833576,35.170621 9.60248394,34.027152 C8.97087794,33.4412848 8.34244111,32.8519058 7.71717345,32.2595289 C7.09156317,32.8927623 6.4661242,33.5269379 5.83717345,34.1576017 C4.64805139,35.3502355 2.80325482,33.5056103 3.99194861,32.3129764 C4.61147752,31.6919058 5.2275803,31.0673233 5.84394004,30.4427409 C5.30586724,29.9060385 4.77284797,29.3640257 4.25310493,28.808651 C3.10492505,27.5816702 4.94646681,25.7327623 6.09815846,26.9635974 C6.61858672,27.5194861 7.15203426,28.0619272 7.69053533,28.5990578 C8.57104925,27.7313062 9.46184154,26.8740043 10.3856103,26.0507066 Z M39.4859957,30.6989293 C39.5203426,30.7701927 39.5504069,30.8472805 39.5733619,30.9319914 C40.0048822,32.5191435 40.1727623,34.4602998 39.2015418,35.9042398 C38.2672377,37.2917345 36.8772591,38.0393148 35.269636,38.4077944 C35.1769593,38.4290364 35.0873662,38.4404283 35.0012848,38.4434261 C34.8516488,38.4482227 34.6597859,38.4452248 34.5680514,38.4543041 C34.5132334,38.4595289 34.4575589,38.4599572 34.4010278,38.4543041 C32.5233405,38.2581585 31.0889079,37.3242827 30.2311777,35.7485225 C30.0937901,35.4949036 29.9150321,35.1783298 29.8462527,35.0322056 C29.8071092,34.9495503 29.7749036,34.8577302 29.7510064,34.7564026 C29.2125054,32.4868522 29.7401285,30.3683084 31.1375589,28.6036831 C31.3168308,28.3779015 31.5499786,28.0369165 31.7134904,27.8895075 C31.804454,27.808137 31.9148608,27.7347323 32.0462527,27.6733191 C33.5424411,26.9713919 35.2621842,26.6020557 36.8045396,27.4124197 C37.905439,27.9908351 38.6348608,28.9307923 39.1472377,30.0085653 C39.2711777,30.2687794 39.4260385,30.5749893 39.4859957,30.6989293 Z M37.0664668,34.3811563 C37.3630835,33.7673662 37.3565739,33.092848 37.2416274,32.4346895 C37.1924625,32.1506638 37.1141756,31.8875375 37.0919914,31.8409422 C37.0789722,31.8140471 37.0668094,31.7857816 37.0563597,31.7557173 C36.5092077,30.155546 35.4683512,29.2826552 33.9635118,29.703212 C33.6859957,29.7806424 33.3102355,30.0485653 33.132334,30.2747752 C32.3768737,31.2346895 32.0214133,32.3298501 32.172848,33.5442398 C32.2084797,33.8299786 32.3002998,34.1145182 32.336788,34.1880086 C32.3585439,34.2319486 32.3785867,34.2776017 32.3968308,34.3236831 C32.7260814,35.1731049 33.4960171,35.7503212 34.4006852,35.8447109 C34.4367452,35.848137 34.4719486,35.8543041 34.5072377,35.8603854 C34.5654818,35.8708351 34.8408565,35.8325482 35.1178587,35.7525482 C35.9090364,35.5237687 36.6936188,35.1527195 37.0664668,34.3811563 Z M27.0943897,16.0141328 C27.1831263,14.3404711 29.7928051,14.3314775 29.7041542,16.0137045 C29.5775589,18.4059101 29.4453961,20.7974304 29.3127195,23.1892077 C29.3105782,23.231863 29.3004711,23.2692077 29.294818,23.3100642 C29.2674946,24.0543041 28.6294647,24.8610707 27.661242,24.7084368 L20.2245824,23.534561 C18.5663383,23.2730621 19.2726338,20.7582869 20.9187152,21.0183298 C22.1530621,21.2136188 23.3878373,21.408137 24.6217559,21.6033405 C18.5675375,15.9776445 8.75674518,13.3383298 2.57618844,20.1981156 C1.44753747,21.4507066 -0.391862955,19.5995717 0.730963597,18.3532334 C7.98235546,10.3038972 19.9143469,13.2519914 26.8695503,20.1362741 C26.9452677,18.7627409 27.0217559,17.3887794 27.0943897,16.0141328 Z M0.787494647,9.74543897 C1.39049251,8.82167024 2.0164454,7.91349036 2.64471092,7.00685225 C1.85250535,6.20959315 1.08111349,5.39057816 0.339528908,4.54201285 C-0.762398287,3.28111349 1.07563169,1.42775161 2.18492505,2.69721627 C2.8208137,3.42509636 3.4812848,4.128394 4.1543469,4.81910064 C4.51554604,4.29002141 4.8730621,3.7587152 5.22364026,3.22201285 C6.13978587,1.81952891 8.39957173,3.12522484 7.47683084,4.53901499 C7.01053533,5.25336188 6.52950749,5.95845824 6.04582441,6.66107066 C6.65824411,7.22449679 7.28085653,7.77781585 7.92522484,8.30732334 C9.2262955,9.37618844 7.36890792,11.2113062 6.08017131,10.1522056 C5.55845824,9.72351178 5.04762313,9.28316916 4.54698073,8.83186296 C4.03743041,9.57036403 3.53156317,10.3110921 3.04077088,11.0624411 C2.12453961,12.4649251 -0.135246253,11.1589722 0.787494647,9.74543897 Z" id="Combined-Shape" fill="#FFFFFF" fill-rule="nonzero"></path>
    </g>
</svg>