<?xml version="1.0" encoding="UTF-8"?>
<svg width="22px" height="22px" viewBox="0 0 22 22" version="1.1" xmlns="http://www.w3.org/2000/svg" xmlns:xlink="http://www.w3.org/1999/xlink">
    <!-- Generator: Sketch 50.2 (55047) - http://www.bohemiancoding.com/sketch -->
    <title>icon</title>
    <desc>Created with Sketch.</desc>
    <defs></defs>
    <g id="icon" stroke="none" stroke-width="1" fill="none" fill-rule="evenodd">
        <path d="M13.3733776,4.4154026 L13.3733879,4.41541236 C14.6939949,1.12295122 18.7383387,0.56023732 20.8805177,1.27256424 L21.3375603,5.338757 C19.475926,4.04347536 17.081143,4.39749453 17.0200632,6.79616001 C16.9980144,8.49875944 18.937579,10.1613971 21.6725246,7.61977888 L22,11.7819774 C20.7910423,12.5837472 18.3361867,12.9539785 16.2831906,12.1211165 L16.2831906,17.471447 L12.4005622,17.471447 L12.4889476,20.4935976 L8.48269749,20.4935976 L8.542018,17.471447 L8.55679898,16.7081282 L6.45214502,16.7081282 L6.54619004,13.5547211 L12.2764825,13.2312093 L12.4004972,17.4715445 L12.4004015,17.4714633 L8.5418151,17.4714633 L3.23376101,17.471447 L3.22688157,14.5193109 L1.42908863,14.3300934 L2.15842368,6.85935161 L0,6.66873715 L0.348755911,3.06096779 L8.74235503,3.91135781 L8.69014967,4.42793697 L13.3733134,4.41534202 L13.3733776,4.4154026 L13.3733879,4.41548822 C13.0544572,5.21061401 12.8943989,6.16487218 12.9583215,7.29890963 C13.2135083,9.97521204 14.6159233,11.4448635 16.2831094,12.1211274 L16.2831094,4.40752835 L13.3733717,4.41535372 L13.3733776,4.4154026 Z M10.4785953,12.7844821 C11.7306337,12.7844821 12.8038513,11.8619172 12.8038513,10.6109509 C12.8038513,9.35995213 11.7354259,8.43741972 10.4833062,8.43741972 C9.23118658,8.43741972 8.20304785,9.35998462 8.20304785,10.6109509 C8.20304785,11.8619497 9.2265731,12.7844821 10.4785953,12.7844821 Z M8.69022423,4.42808317 L3.20343879,4.44283946 L3.2269204,14.5195445 L5.40045158,14.7483013 L6.16380288,7.30598758 L8.37583383,7.54044629 L8.69036231,4.42808317 L8.69022423,4.42808317 Z" id="Mask" fill="#000000"></path>
    </g>
</svg>