<?xml version="1.0" encoding="UTF-8"?>
<svg width="480px" height="240px" viewBox="0 0 480 240" version="1.1" xmlns="http://www.w3.org/2000/svg" xmlns:xlink="http://www.w3.org/1999/xlink">
    <!-- Generator: Sketch 50.2 (55047) - http://www.bohemiancoding.com/sketch -->
    <title>defeat</title>
    <desc>Created with Sketch.</desc>
    <defs>
        <polygon id="path-1" points="0 59.375 59.375 59.375 59.375 0 0 0"></polygon>
        <polygon id="path-3" points="0 63.3333333 63.3333333 63.3333333 63.3333333 0 0 0"></polygon>
        <polygon id="path-5" points="0 63.3333333 63.3333333 63.3333333 63.3333333 0 0 0"></polygon>
        <polygon id="path-7" points="0 47.5 47.5 47.5 47.5 0 0 0"></polygon>
        <polygon id="path-9" points="0 47.5 47.5 47.5 47.5 0 0 0"></polygon>
    </defs>
    <g id="defeat" stroke="none" stroke-width="1" fill="none" fill-rule="evenodd">
        <g id="emoji" transform="translate(36.000000, 18.000000)">
            <g id="1f616" transform="translate(34.753678, 158.753678) rotate(10.000000) translate(-34.753678, -158.753678) translate(4.753678, 128.753678)">
                <g id="g10" transform="translate(29.687500, 29.687500) scale(-1, 1) rotate(-180.000000) translate(-29.687500, -29.687500) ">
                    <g id="g12">
                        <g id="g14-Clipped">
                            <mask id="mask-2" fill="white">
                                <use xlink:href="#path-1"></use>
                            </mask>
                            <g id="path18"></g>
                            <g id="g14" mask="url(#mask-2)">
                                <g transform="translate(3.125000, 3.125000)">
                                    <g id="g20">
                                        <path d="M53.125,26.5625 C53.125,11.8921875 41.2328125,0 26.5625,0 C11.89375,0 0,11.8921875 0,26.5625 C0,41.23125 11.89375,53.125 26.5625,53.125 C41.2328125,53.125 53.125,41.23125 53.125,26.5625" id="path22" fill="#FDCB58" fill-rule="nonzero"></path>
                                    </g>
                                    <g id="g24" transform="translate(6.250000, 34.375000)">
                                        <path d="M1.5625,0 C0.7,0 0,0.7 0,1.5625 C0,2.4234375 0.6953125,3.121875 1.55625,3.125 C1.7984375,3.128125 7.13125,3.259375 11.25,8.75 C11.7671875,9.4375 12.746875,9.58125 13.4375,9.0625 C14.128125,8.5453125 14.2671875,7.565625 13.75,6.875 C8.653125,0.078125 1.85,0 1.5625,0" id="path26" fill="#664500" fill-rule="nonzero"></path>
                                    </g>
                                    <g id="g28" transform="translate(32.812500, 34.375000)">
                                        <path d="M12.5,0 C12.2125,0 5.4109375,0.078125 0.3125,6.875 C-0.20625,7.565625 -0.065625,8.5453125 0.625,9.0625 C1.315625,9.5828125 2.29375,9.440625 2.8125,8.75 C6.9375,3.2484375 12.2828125,3.1265625 12.509375,3.125 C13.36875,3.115625 14.0625,2.4125 14.0578125,1.5546875 C14.053125,0.69375 13.359375,0 12.5,0" id="path30" fill="#664500" fill-rule="nonzero"></path>
                                    </g>
                                    <g id="g32" transform="translate(29.061875, 19.999688)">
                                        <path d="M17.1875,3.125 C17.009375,3.259375 14.1703125,5.353125 9.928125,6.7875 C9.9703125,6.9671875 10,7.1515625 10,7.34375 C10,7.9203125 9.784375,8.4421875 9.4390625,8.85 C12.25625,9.6640625 14.6484375,9.6875 14.690625,9.6875 C15.5515625,9.690625 16.25,10.390625 16.2484375,11.253125 C16.246875,12.1140625 15.55,12.8125 14.6875,12.8125 C14.34375,12.8125 6.1703125,12.7546875 1.0828125,7.6671875 C0.6359375,7.2203125 0.5015625,6.5484375 0.7453125,5.9640625 C0.9859375,5.3796875 1.55625,5 2.1875,5 C9.359375,5 15.25625,0.66875 15.315625,0.6234375 C15.5953125,0.415625 15.9234375,0.3140625 16.2484375,0.3140625 C16.725,0.3140625 17.1953125,0.53125 17.5015625,0.940625 C18.0171875,1.63125 17.8765625,2.6078125 17.1875,3.125" id="path34" fill="#664500" fill-rule="nonzero"></path>
                                    </g>
                                    <g id="g36" transform="translate(5.792187, 19.854687)">
                                        <path d="M17.1875,7.8125 C12.1015625,12.8984375 3.928125,12.9578125 3.5828125,12.9578125 C2.7203125,12.9578125 2.021875,12.259375 2.021875,11.396875 C2.0203125,10.5359375 2.71875,9.834375 3.58125,9.8328125 C3.621875,9.8328125 6.015625,9.8078125 8.83125,8.9953125 C8.4875,8.5875 8.2703125,8.065625 8.2703125,7.4890625 C8.2703125,7.296875 8.3,7.1125 8.34375,6.9328125 C4.1,5.4984375 1.2609375,3.4046875 1.0828125,3.2703125 C0.3921875,2.753125 0.253125,1.7734375 0.7703125,1.0828125 C1.0765625,0.6734375 1.546875,0.4578125 2.021875,0.4578125 C2.346875,0.4578125 2.6765625,0.559375 2.9578125,0.7703125 C3.015625,0.8140625 8.875,5.1453125 16.0828125,5.1453125 C16.7140625,5.1453125 17.284375,5.525 17.5265625,6.109375 C17.76875,6.69375 17.634375,7.365625 17.1875,7.8125" id="path38" fill="#664500" fill-rule="nonzero"></path>
                                    </g>
                                    <g id="g40" transform="translate(12.500000, 7.812500)">
                                        <path d="M14.0625,0 C13.5875,0 13.1390625,0.215625 12.8421875,0.5859375 L7.8515625,6.8234375 L4.375,2.1875 C4.103125,1.825 3.6875,1.5984375 3.2359375,1.5671875 C2.7828125,1.5328125 2.3390625,1.7 2.0203125,2.0203125 L0.4578125,3.5828125 C-0.153125,4.19375 -0.153125,5.18125 0.4578125,5.7921875 C1.06875,6.403125 2.05625,6.403125 2.6671875,5.7921875 L2.95625,5.503125 L6.5625,10.3125 C6.853125,10.7 7.3046875,10.9296875 7.7875,10.9375 C8.25,10.953125 8.7296875,10.7296875 9.0328125,10.3515625 L14.0625,4.0640625 L19.0921875,10.3515625 C19.39375,10.728125 19.8484375,10.9375 20.3375,10.9375 C20.8203125,10.9296875 21.271875,10.7 21.5625,10.3125 L25.16875,5.503125 L25.4578125,5.7921875 C26.06875,6.403125 27.05625,6.403125 27.6671875,5.7921875 C28.278125,5.18125 28.278125,4.19375 27.6671875,3.5828125 L26.1046875,2.0203125 C25.784375,1.7 25.3578125,1.5296875 24.8890625,1.5671875 C24.4375,1.5984375 24.021875,1.825 23.75,2.1875 L20.2734375,6.8234375 L15.2828125,0.5859375 C14.9859375,0.215625 14.5375,0 14.0625,0" id="path42" fill="#664500" fill-rule="nonzero"></path>
                                    </g>
                                </g>
                            </g>
                        </g>
                    </g>
                </g>
            </g>
            <g id="1f622" transform="translate(281.000000, 38.000000) rotate(-10.000000) translate(-281.000000, -38.000000) translate(249.000000, 6.000000)">
                <g id="g10" transform="translate(31.666667, 31.666667) scale(-1, 1) rotate(-180.000000) translate(-31.666667, -31.666667) ">
                    <g id="g12">
                        <g id="g14-Clipped">
                            <mask id="mask-4" fill="white">
                                <use xlink:href="#path-3"></use>
                            </mask>
                            <g id="path18"></g>
                            <g id="g14" mask="url(#mask-4)">
                                <g transform="translate(3.333333, 0.000000)">
                                    <g id="g20" transform="translate(0.000000, 3.333333)">
                                        <path d="M56.6666667,28.3333333 C56.6666667,12.685 43.9816667,0 28.3333333,0 C12.6866667,0 0,12.685 0,28.3333333 C0,43.98 12.6866667,56.6666667 28.3333333,56.6666667 C43.9816667,56.6666667 56.6666667,43.98 56.6666667,28.3333333" id="path22" fill="#FFCC4D" fill-rule="nonzero"></path>
                                    </g>
                                    <g id="g24" transform="translate(13.333333, 27.500000)">
                                        <path d="M8.33333333,6.66666667 C8.33333333,3.44333333 6.46833333,0.833333333 4.16666667,0.833333333 C1.865,0.833333333 0,3.44333333 0,6.66666667 C0,9.88833333 1.865,12.5 4.16666667,12.5 C6.46833333,12.5 8.33333333,9.88833333 8.33333333,6.66666667" id="path26" fill="#664500" fill-rule="nonzero"></path>
                                    </g>
                                    <g id="g28" transform="translate(35.000000, 27.500000)">
                                        <path d="M8.33333333,6.66666667 C8.33333333,3.44333333 6.46833333,0.833333333 4.16666667,0.833333333 C1.865,0.833333333 0,3.44333333 0,6.66666667 C0,9.88833333 1.865,12.5 4.16666667,12.5 C6.46833333,12.5 8.33333333,9.88833333 8.33333333,6.66666667" id="path30" fill="#664500" fill-rule="nonzero"></path>
                                    </g>
                                    <g id="g32" transform="translate(6.665000, 40.000000)">
                                        <path d="M1.66666667,0 C1.32,0 0.968333333,0.108333333 0.668333333,0.333333333 C-0.0683333333,0.885 -0.216666667,1.93 0.335,2.66666667 C5.77166667,9.91666667 13.0283333,10 13.335,10 C14.255,10 15.0016667,9.25333333 15.0016667,8.33333333 C15.0016667,7.415 14.26,6.67 13.3416667,6.66666667 C13.0833333,6.66333333 7.39333333,6.52333333 3.00166667,0.666666667 C2.67333333,0.23 2.17333333,0 1.66666667,0" id="path34" fill="#664500" fill-rule="nonzero"></path>
                                    </g>
                                    <g id="g36" transform="translate(35.001667, 40.000000)">
                                        <path d="M13.3333333,0 C12.825,0 12.325,0.23 11.9983333,0.666666667 C7.59833333,6.535 1.89666667,6.665 1.655,6.66666667 C0.738333333,6.67666667 -0.00166666667,7.42666667 0.00333333333,8.34166667 C0.00833333333,9.26 0.748333333,10 1.665,10 C1.97166667,10 9.22666667,9.91666667 14.665,2.66666667 C15.2183333,1.93 15.0683333,0.885 14.3316667,0.333333333 C14.0316667,0.108333333 13.6816667,0 13.3333333,0" id="path38" fill="#664500" fill-rule="nonzero"></path>
                                    </g>
                                    <g id="g40" transform="translate(19.142333, 13.535167)">
                                        <path d="M18.3333333,1.66666667 C18.3133333,1.74 16.4233333,8.965 9.19166667,8.965 C1.95666667,8.965 0.0666666667,1.74 0.05,1.66666667 C-0.0383333333,1.31166667 0.121666667,0.948333333 0.435,0.76 C0.748333333,0.573333333 1.15666667,0.616666667 1.42833333,0.86 C1.445,0.871666667 3.11833333,2.29833333 9.19166667,2.29833333 C15.1733333,2.29833333 16.8866667,0.915 16.9516667,0.86 C17.11,0.71 17.3166667,0.631666667 17.525,0.631666667 C17.665,0.631666667 17.8066667,0.666666667 17.935,0.738333333 C18.2616667,0.925 18.425,1.30333333 18.3333333,1.66666667" id="path42" fill="#664500" fill-rule="nonzero"></path>
                                    </g>
                                    <g id="g44" transform="translate(8.333333, 0.000000)">
                                        <path d="M16.6666667,8.33333333 C16.6666667,3.73 12.9366667,0 8.33333333,0 C3.73,0 0,3.73 0,8.33333333 C0,12.9366667 6.66666667,25 8.33333333,25 C10,25 16.6666667,12.9366667 16.6666667,8.33333333" id="path46" fill="#5DADEC" fill-rule="nonzero"></path>
                                    </g>
                                </g>
                            </g>
                        </g>
                    </g>
                </g>
            </g>
            <g id="1f62d" transform="translate(334.000000, 139.000000)">
                <g id="g10" transform="translate(31.666667, 31.666667) scale(-1, 1) rotate(-180.000000) translate(-31.666667, -31.666667) ">
                    <g id="g12">
                        <g id="g14-Clipped">
                            <mask id="mask-6" fill="white">
                                <use xlink:href="#path-5"></use>
                            </mask>
                            <g id="path18"></g>
                            <g id="g14" mask="url(#mask-6)">
                                <g transform="translate(1.666667, 1.666667)">
                                    <g id="g20" transform="translate(1.666667, 1.666667)">
                                        <path d="M56.6666667,28.3333333 C56.6666667,12.685 43.9816667,0 28.3333333,0 C12.685,0 0,12.685 0,28.3333333 C0,43.9816667 12.685,56.6666667 28.3333333,56.6666667 C43.9816667,56.6666667 56.6666667,43.9816667 56.6666667,28.3333333" id="path22" fill="#FFCC4D" fill-rule="nonzero"></path>
                                    </g>
                                    <g id="g24" transform="translate(23.333333, 10.000000)">
                                        <path d="M13.3333333,5 C13.3333333,0.395 10.3483333,0 6.66666667,0 C2.98333333,0 0,0.395 0,5 C0,9.60166667 2.98333333,15 6.66666667,15 C10.3483333,15 13.3333333,9.60166667 13.3333333,5" id="path26" fill="#664500" fill-rule="nonzero"></path>
                                    </g>
                                    <g id="g28" transform="translate(35.000000, 34.999167)">
                                        <path d="M15,0 C14.7933333,0 14.5833333,0.0383333333 14.3816667,0.12 C5.66666667,3.605 2.095,8.85333333 1.94666667,9.07666667 C1.435,9.84166667 1.64166667,10.8766667 2.40833333,11.3883333 C3.17333333,11.8983333 4.205,11.6933333 4.71666667,10.9316667 C4.74833333,10.885 7.93333333,6.28833333 15.6183333,3.215 C16.4733333,2.87333333 16.89,1.90333333 16.5483333,1.04833333 C16.2883333,0.396666667 15.66,0 15,0" id="path30" fill="#664500" fill-rule="nonzero"></path>
                                    </g>
                                    <g id="g32" transform="translate(6.667500, 34.999167)">
                                        <path d="M3.33333333,0 C2.67166667,0 2.04666667,0.396666667 1.785,1.04833333 C1.44333333,1.90333333 1.85833333,2.87333333 2.71333333,3.215 C10.4,6.28833333 13.585,10.885 13.6166667,10.9316667 C14.13,11.6916667 15.165,11.8933333 15.9283333,11.3816667 C16.6883333,10.8683333 16.895,9.84 16.3866667,9.07666667 C16.2383333,8.85333333 12.665,3.605 3.95166667,0.12 C3.74833333,0.0383333333 3.54,0 3.33333333,0" id="path34" fill="#664500" fill-rule="nonzero"></path>
                                    </g>
                                    <g id="g36" transform="translate(13.333333, 1.666667)">
                                        <path d="M0,0 L6.66666667,0.0766666667 L6.66666667,31.665 L0,31.665 L0,0 Z M26.6666667,31.6666667 L33.3333333,31.6666667 L33.3333333,0 L26.6666667,0.0766666667 L26.6666667,31.6666667 Z" id="path38" fill="#5DADEC" fill-rule="nonzero"></path>
                                    </g>
                                    <g id="g40" transform="translate(9.998333, 28.333333)">
                                        <path d="M15,1.66666667 C14.75,1.66666667 14.495,1.72333333 14.2566667,1.84166667 C8.40333333,4.77 2.47166667,1.87333333 2.41333333,1.84166667 C1.58833333,1.42833333 0.59,1.765 0.176666667,2.58833333 C-0.235,3.41166667 0.1,4.41333333 0.923333333,4.825 C1.22666667,4.97333333 8.42,8.485 15.7466667,4.825 C16.57,4.41333333 16.905,3.41166667 16.4933333,2.58833333 C16.2,2.00333333 15.6116667,1.66666667 15,1.66666667" id="path42" fill="#664500" fill-rule="nonzero"></path>
                                    </g>
                                    <g id="g44" transform="translate(33.331667, 28.333333)">
                                        <path d="M15,1.66666667 C14.75,1.66666667 14.495,1.72333333 14.2566667,1.84166667 C8.40166667,4.76833333 2.47166667,1.87333333 2.41333333,1.84166667 C1.59,1.43 0.59,1.76333333 0.176666667,2.58833333 C-0.235,3.41166667 0.1,4.41333333 0.923333333,4.825 C1.225,4.97333333 8.425,8.485 15.7466667,4.825 C16.57,4.41333333 16.905,3.41166667 16.4916667,2.58833333 C16.2,2.00333333 15.6116667,1.66666667 15,1.66666667" id="path46" fill="#664500" fill-rule="nonzero"></path>
                                    </g>
                                    <g id="g48">
                                        <path d="M60,3.33333333 C60,1.49333333 46.5683333,0 30,0 C13.4316667,0 0,1.49333333 0,3.33333333 C0,5.17333333 13.4316667,6.66666667 30,6.66666667 C46.5683333,6.66666667 60,5.17333333 60,3.33333333" id="path50" fill="#5DADEC" fill-rule="nonzero"></path>
                                    </g>
                                    <g id="g52" transform="translate(25.000000, 11.666667)">
                                        <path d="M10,3.33333333 C10,0.571666667 7.76166667,0 5,0 C2.23833333,0 0,0.571666667 0,3.33333333 C0,6.095 2.23833333,6.66666667 5,6.66666667 C7.76166667,6.66666667 10,6.095 10,3.33333333" id="path54" fill="#E75A70" fill-rule="nonzero"></path>
                                    </g>
                                </g>
                            </g>
                        </g>
                    </g>
                </g>
            </g>
            <g id="1f621" transform="translate(64.393877, 38.393877) rotate(15.000000) translate(-64.393877, -38.393877) translate(40.393877, 14.393877)">
                <g id="g10" transform="translate(23.750000, 23.750000) scale(-1, 1) rotate(-180.000000) translate(-23.750000, -23.750000) ">
                    <g id="g12">
                        <g id="g14-Clipped">
                            <mask id="mask-8" fill="white">
                                <use xlink:href="#path-7"></use>
                            </mask>
                            <g id="path18"></g>
                            <g id="g14" mask="url(#mask-8)">
                                <g transform="translate(2.500000, 2.500000)">
                                    <g id="g20">
                                        <path d="M42.5,21.25 C42.5,9.51375 32.98625,0 21.25,0 C9.515,0 0,9.51375 0,21.25 C0,32.985 9.515,42.5 21.25,42.5 C32.98625,42.5 42.5,32.985 42.5,21.25" id="path22" fill="#DA2F47" fill-rule="nonzero"></path>
                                    </g>
                                    <g id="g24" transform="translate(11.856750, 5.151375)">
                                        <path d="M18.75,1.25 C18.69375,1.47375 17.29,6.72375 9.39375,6.72375 C1.49625,6.72375 0.0925,1.47375 0.0375,1.25 C-0.03125,0.97875 0.09125,0.6975 0.33375,0.5575 C0.5775,0.42125 0.8825,0.45875 1.0825,0.65375 C1.10625,0.6775 3.525,2.97375 9.39375,2.97375 C15.26125,2.97375 17.68125,0.6775 17.70375,0.65375 C17.82375,0.53625 17.98375,0.47375 18.14375,0.47375 C18.24875,0.47375 18.355,0.5 18.45125,0.55375 C18.69625,0.69375 18.81875,0.9775 18.75,1.25" id="path26" fill="#292F33" fill-rule="nonzero"></path>
                                    </g>
                                    <g id="g28" transform="translate(5.883750, 14.633750)">
                                        <path d="M12.5,7.5 C8.43125,11.56875 1.8925,11.61625 1.61625,11.61625 C0.92625,11.61625 0.3675,11.0575 0.3675,10.3675 C0.36625,9.67875 0.925,9.1175 1.615,9.11625 C1.65125,9.11625 4.02125,9.08875 6.59375,8.195 C5.8525,7.395 5.36625,6.1525 5.36625,4.74125 C5.36625,2.32375 6.765,0.36625 8.49125,0.36625 C10.2175,0.36625 11.61625,2.32375 11.61625,4.74125 C11.61625,4.95875 11.5925,5.16625 11.57,5.375 C11.58625,5.375 11.60125,5.36625 11.61625,5.36625 C11.93625,5.36625 12.25625,5.48875 12.5,5.7325 C12.98875,6.22125 12.98875,7.01125 12.5,7.5" id="path30" fill="#292F33" fill-rule="nonzero"></path>
                                    </g>
                                    <g id="g32" transform="translate(23.750000, 15.000000)">
                                        <path d="M11.25,11.25 C10.97375,11.25 4.43625,11.2025 0.36625,7.13375 C-0.1225,6.645 -0.1225,5.855 0.36625,5.36625 C0.61,5.1225 0.93,5 1.25,5 C1.26625,5 1.28,5.00875 1.295,5.00875 C1.275,4.8 1.25,4.5925 1.25,4.375 C1.25,1.9575 2.64875,0 4.375,0 C6.10125,0 7.5,1.9575 7.5,4.375 C7.5,5.78625 7.01375,7.02875 6.2725,7.82875 C8.845,8.7225 11.215,8.75 11.2525,8.75 C11.94125,8.75125 12.5,9.3125 12.49875,10.00125 C12.4975,10.69125 11.94,11.25 11.25,11.25" id="path34" fill="#292F33" fill-rule="nonzero"></path>
                                    </g>
                                </g>
                            </g>
                        </g>
                    </g>
                </g>
            </g>
            <g id="1f628" transform="translate(196.000000, 124.000000)">
                <g id="g10" transform="translate(23.750000, 23.750000) scale(-1, 1) rotate(-180.000000) translate(-23.750000, -23.750000) ">
                    <g id="g12">
                        <g id="g14-Clipped">
                            <mask id="mask-10" fill="white">
                                <use xlink:href="#path-9"></use>
                            </mask>
                            <g id="path18"></g>
                            <g id="g14" mask="url(#mask-10)">
                                <g transform="translate(2.500000, 2.500000)">
                                    <g id="g20">
                                        <path d="M42.5,21.25 C42.5,9.51375 32.98625,0 21.25,0 C9.515,0 0,9.51375 0,21.25 C0,32.985 9.515,42.5 21.25,42.5 C32.98625,42.5 42.5,32.985 42.5,21.25" id="path22" fill="#FFCC4D" fill-rule="nonzero"></path>
                                    </g>
                                    <g id="g24" transform="translate(10.000000, 18.125000)">
                                        <path d="M6.25,5 C6.25,2.5825 4.85125,0.625 3.125,0.625 C1.39875,0.625 0,2.5825 0,5 C0,7.41625 1.39875,9.375 3.125,9.375 C4.85125,9.375 6.25,7.41625 6.25,5" id="path26" fill="#664500" fill-rule="nonzero"></path>
                                    </g>
                                    <g id="g28" transform="translate(26.250000, 18.125000)">
                                        <path d="M6.25,5 C6.25,2.5825 4.85125,0.625 3.125,0.625 C1.39875,0.625 0,2.5825 0,5 C0,7.41625 1.39875,9.375 3.125,9.375 C4.85125,9.375 6.25,7.41625 6.25,5" id="path30" fill="#664500" fill-rule="nonzero"></path>
                                    </g>
                                    <g id="g32" transform="translate(0.000000, 18.750000)">
                                        <path d="M21.25,23.75 C9.515,23.75 0,14.235 0,2.5 C0,1.82625 0.0375,1.1625 0.1,0.505 C3.225,6.7675 11.50375,11.25 21.25,11.25 C30.9975,11.25 39.275,6.7675 42.4,0.505 C42.4625,1.1625 42.5,1.82625 42.5,2.5 C42.5,14.235 32.98625,23.75 21.25,23.75" id="path34" fill="#BDDDF4" fill-rule="nonzero"></path>
                                    </g>
                                    <g id="g36" transform="translate(4.998750, 28.750000)">
                                        <path d="M1.25,0 C0.99,0 0.72625,0.08125 0.50125,0.25 C-0.05125,0.66375 -0.1625,1.4475 0.25125,2 C4.32875,7.4375 9.77125,7.5 10.00125,7.5 C10.69125,7.5 11.25125,6.94 11.25125,6.25 C11.25125,5.56125 10.695,5.0025 10.00625,5 C9.8125,4.9975 5.545,4.8925 2.25125,0.5 C2.005,0.1725 1.63,0 1.25,0" id="path38" fill="#664500" fill-rule="nonzero"></path>
                                    </g>
                                    <g id="g40" transform="translate(26.251250, 28.750000)">
                                        <path d="M10,0 C9.61875,0 9.24375,0.1725 8.99875,0.5 C5.69875,4.90125 1.4225,4.99875 1.24125,5 C0.55375,5.0075 -0.00125,5.57 0.0025,6.25625 C0.00625,6.945 0.56125,7.5 1.24875,7.5 C1.47875,7.5 6.92,7.4375 10.99875,2 C11.41375,1.4475 11.30125,0.66375 10.74875,0.25 C10.52375,0.08125 10.26125,0 10,0" id="path42" fill="#664500" fill-rule="nonzero"></path>
                                    </g>
                                    <g id="g44" transform="translate(14.356750, 7.651375)">
                                        <path d="M13.75,1.25 C13.735,1.305 12.3175,6.72375 6.89375,6.72375 C1.46875,6.72375 0.05125,1.305 0.0375,1.25 C-0.02875,0.98375 0.0925,0.71125 0.3275,0.57 C0.56125,0.43 0.86875,0.4625 1.0725,0.645 C1.085,0.65375 2.34,1.72375 6.89375,1.72375 C11.38,1.72375 12.665,0.68625 12.71375,0.645 C12.8325,0.5325 12.9875,0.47375 13.14375,0.47375 C13.24875,0.47375 13.355,0.5 13.45125,0.55375 C13.69625,0.69375 13.81875,0.9775 13.75,1.25" id="path46" fill="#664500" fill-rule="nonzero"></path>
                                    </g>
                                </g>
                            </g>
                        </g>
                    </g>
                </g>
            </g>
        </g>
    </g>
</svg>