<?xml version="1.0" encoding="UTF-8"?>
<svg width="480px" height="240px" viewBox="0 0 480 240" version="1.1" xmlns="http://www.w3.org/2000/svg" xmlns:xlink="http://www.w3.org/1999/xlink">
    <!-- Generator: Sketch 50.2 (55047) - http://www.bohemiancoding.com/sketch -->
    <title>actions/thanks-emojis</title>
    <desc>Created with Sketch.</desc>
    <defs></defs>
    <g id="actions/thanks-emojis" stroke="none" stroke-width="1" fill="none" fill-rule="evenodd">
        <g id="1f4f8" transform="translate(358.935035, 182.633611) rotate(30.000000) translate(-358.935035, -182.633611) translate(326.935035, 154.189167)" fill-rule="nonzero">
            <path d="M0,17.7777778 C0,17.7777778 0,10.6666667 7.11111111,10.6666667 L56.8888889,10.6666667 C56.8888889,10.6666667 64,10.6666667 64,17.7777778 L64,49.7777778 C64,49.7777778 64,56.8888889 56.8888889,56.8888889 L7.11111111,56.8888889 C7.11111111,56.8888889 0,56.8888889 0,49.7777778 L0,17.7777778 Z" id="Shape" fill="#292F33"></path>
            <circle id="Oval" fill="#CCD6DD" cx="37.3333333" cy="33.7777778" r="17.7777778"></circle>
            <circle id="Oval" fill="#292F33" cx="37.3333333" cy="33.7777778" r="14.2222222"></circle>
            <circle id="Oval" fill="#3B88C3" cx="37.3333333" cy="33.7777778" r="8.88888889"></circle>
            <circle id="Oval" fill="#FFFFFF" cx="57.7777778" cy="16.8888889" r="2.66666667"></circle>
            <polygon id="Shape" fill="#FFAC33" points="28.4444444 16 33.7777778 5.33333333 23.1111111 8.88888889 16 0 12.4444444 8.88888889 1.77777778 7.11111111 8.88888889 17.7777778 0 24.8888889 10.6666667 24.8888889 7.11111111 35.5555556 17.7777778 30.2222222 28.4444444 39.1111111 26.6666667 24.8888889 37.3333333 23.1111111"></polygon>
            <polygon id="Shape" fill="#FFFFFF" points="17.7777778 24.8888889 12.4444444 28.4444444 14.2222222 23.1111111 8.88888889 21.3333333 14.2222222 17.7777778 8.88888889 12.4444444 16 12.4444444 17.7777778 7.11111111 21.3333333 12.4444444 26.6666667 10.6666667 23.1111111 16 28.4444444 21.3333333 23.1111111 23.1111111 24.8888889 30.2222222"></polygon>
        </g>
        <g id="1f44f" transform="translate(60.000000, 39.000000)" fill-rule="nonzero">
            <path d="M57.4257778,43.2835556 C56.1902222,41.488 56.88,38.8924444 56.5724444,36.0266667 C56.256,31.3511111 54.2471111,26.8213333 50.3502222,23.1982222 L37.0773333,10.8568889 C37.0773333,10.8568889 34.4622222,8.42311111 32.0266667,11.04 C29.5946667,13.6551111 32.2115556,16.0888889 32.2115556,16.0888889 L37.8186667,21.3048889 L42.6791111,25.824 C42.6791111,25.824 41.4613333,27.1324444 36.0817778,22.1297778 L17.9128889,5.23022222 C17.9128889,5.23022222 15.2942222,2.79822222 12.8604444,5.41511111 C10.4284444,8.03022222 13.0435556,10.464 13.0435556,10.464 L30.224,26.4444444 C30.1866667,26.4088889 28.9244444,27.6746667 28.9013333,27.6533333 L10.5191111,10.5564444 C10.5191111,10.5564444 7.90222222,8.12266667 5.46844444,10.7395556 C3.03466667,13.3564444 5.65155556,15.7884444 5.65155556,15.7884444 L24.0355556,32.8888889 C24.0568889,32.9102222 22.8728889,34.2471111 22.9084444,34.2808889 L7.05066667,19.5288889 C7.05066667,19.5288889 4.43377778,17.0951111 2,19.712 C-0.433777778,22.3288889 2.18311111,24.7626667 2.18311111,24.7626667 L19.0435556,40.4426667 C19.1982222,40.5866667 18.1546667,42.0568889 18.3484444,42.2364444 L6.19911111,30.9368889 C6.19911111,30.9368889 3.58222222,28.5031111 1.14844444,31.1217778 C-1.28533333,33.7386667 1.33155556,36.1724444 1.33155556,36.1724444 L21.1484444,54.5955556 C24.4568889,57.6728889 27.8542222,59.2302222 31.9502222,59.8008889 C32.784,59.9164444 33.8506667,59.9164444 34.288,59.9715556 C35.6693333,60.1457778 36.8817778,60.6364444 38.5048889,61.632 C40.5937778,62.912 43.728,63.4453333 45.5288889,61.52 L51.6693333,54.9511111 L57.3386667,48.8853333 C59.1377778,46.9617778 58.816,45.3013333 57.4257778,43.2835556 Z" id="Shape" fill="#EF9645"></path>
            <path d="M3.47733333,62.2684444 C3.02222222,62.2684444 2.56711111,62.0942222 2.22044444,61.7475556 C1.52533333,61.0524444 1.52533333,59.9288889 2.22044444,59.2337778 L8.53333333,52.9244444 C9.22844444,52.2293333 10.352,52.2293333 11.0471111,52.9244444 C11.7422222,53.6195556 11.7422222,54.7431111 11.0471111,55.4382222 L4.73422222,61.7493333 C4.38755556,62.096 3.93244444,62.2684444 3.47733333,62.2684444 Z M15.4702222,63.9075556 C15.2764444,63.9075556 15.0773333,63.8755556 14.8817778,63.808 C13.9555556,63.4844444 13.4666667,62.4711111 13.792,61.5431111 L15.5182222,56.6133333 C15.8417778,55.6871111 16.8568889,55.2 17.7831111,55.5217778 C18.7093333,55.8471111 19.1982222,56.8604444 18.8728889,57.7866667 L17.1466667,62.7164444 C16.8906667,63.4488889 16.2044444,63.9075556 15.4702222,63.9075556 Z M1.84,50.2773333 C1.10755556,50.2773333 0.421333333,49.8204444 0.163555556,49.0915556 C-0.163555556,48.1653333 0.321777778,47.1502222 1.248,46.8231111 L5.68355556,45.2568889 C6.61333333,44.9368889 7.62488889,45.4186667 7.952,46.3413333 C8.27911111,47.2675556 7.79377778,48.2826667 6.86755556,48.6097778 L2.432,50.176 C2.23466667,50.2453333 2.03555556,50.2773333 1.84,50.2773333 Z M54.2133333,11.5804444 C53.7582222,11.5804444 53.3031111,11.4062222 52.9564444,11.0595556 C52.2613333,10.3644444 52.2613333,9.23911111 52.9564444,8.544 L59.2711111,2.23288889 C59.9662222,1.53955556 61.0897778,1.53955556 61.7848889,2.23288889 C62.48,2.92622222 62.48,4.05333333 61.7848889,4.74844444 L55.4702222,11.0595556 C55.1235556,11.408 54.6684444,11.5804444 54.2133333,11.5804444 Z M46.8106667,8.56355556 C46.6168889,8.56355556 46.4177778,8.52977778 46.224,8.46222222 C45.2977778,8.13866667 44.8088889,7.12533333 45.1324444,6.19733333 L46.8568889,1.26755556 C47.1822222,0.341333333 48.1937778,-0.147555556 49.1217778,0.176 C50.048,0.499555556 50.5368889,1.51288889 50.2133333,2.44088889 L48.4888889,7.37066667 C48.2328889,8.10488889 47.5448889,8.56355556 46.8106667,8.56355556 Z M57.7315556,18.8284444 C56.9991111,18.8284444 56.3128889,18.3715556 56.0551111,17.6426667 C55.728,16.7164444 56.2151111,15.7013333 57.1395556,15.3742222 L61.5733333,13.808 C62.5013333,13.4791111 63.5146667,13.968 63.8417778,14.8924444 C64.1688889,15.8186667 63.6817778,16.8337778 62.7573333,17.1608889 L58.3235556,18.7271111 C58.1262222,18.7964444 57.9271111,18.8284444 57.7315556,18.8284444 Z" id="Shape" fill="#FA743E"></path>
            <path d="M62.9155556,42.3502222 C61.7404444,40.5155556 62.5173333,37.9431111 62.3075556,35.0684444 C62.1475556,30.3857778 60.2933333,25.7902222 56.5208889,22.0373333 L43.6711111,9.25688889 C43.6711111,9.25688889 41.1395556,6.73777778 38.6168889,9.27111111 C36.0977778,11.8026667 38.6311111,14.3235556 38.6311111,14.3235556 L44.0604444,19.7262222 L48.7644444,24.4053333 C48.7644444,24.4053333 47.5022222,25.6711111 42.2951111,20.4906667 C37.0844444,15.3084444 24.7057778,2.98844444 24.7057778,2.98844444 C24.7057778,2.98844444 22.1724444,0.469333333 19.6515556,3.00266667 C17.1306667,5.53422222 19.664,8.05333333 19.664,8.05333333 L36.2968889,24.6044444 C36.2613333,24.5688889 34.9564444,25.7902222 34.9333333,25.7671111 L17.1377778,8.06044444 C17.1377778,8.06044444 14.6044444,5.53955556 12.0835556,8.07288889 C9.56444444,10.6062222 12.096,13.1253333 12.096,13.1253333 L29.8933333,30.8355556 C29.9146667,30.8568889 28.6844444,32.1528889 28.72,32.1884444 L13.3688889,16.912 C13.3688889,16.912 10.8355556,14.3928889 8.31466667,16.9262222 C5.79377778,19.4595556 8.32711111,21.9804444 8.32711111,21.9804444 L24.6488889,38.2204444 C24.7982222,38.368 23.7066667,39.8044444 23.8933333,39.9911111 L12.1315556,28.288 C12.1315556,28.288 9.59822222,25.7688889 7.07733333,28.3022222 C4.55644444,30.8355556 7.08977778,33.3564444 7.08977778,33.3564444 L26.272,52.4355556 C29.4755556,55.6231111 32.8177778,57.2924444 36.8924444,58.0017778 C37.7226667,58.1457778 38.7893333,58.1813333 39.2231111,58.2506667 C40.5973333,58.4711111 41.792,59.0026667 43.3831111,60.0533333 C45.4275556,61.4026667 48.5422222,62.0408889 50.4071111,60.1777778 L56.7662222,53.8204444 L62.6364444,47.9502222 C64.5013333,46.0835556 64.2364444,44.4124444 62.9155556,42.3502222 Z" id="Shape" fill="#FFDB5E"></path>
        </g>
        <g id="1f44c" transform="translate(369.000000, 29.000000)" fill-rule="nonzero">
            <path d="M25.1394286,32.5714286 C23.7851429,32.5714286 22.5828571,31.6045714 22.3314286,30.2251429 L17.76,5.08228571 C17.4777143,3.53028571 18.5074286,2.04228571 20.0594286,1.76 C21.6114286,1.47314286 23.0994286,2.50742857 23.3817143,4.05942857 L27.9531429,29.2022857 C28.2354286,30.7542857 27.2057143,32.2422857 25.6525714,32.5245714 C25.4811429,32.5565714 25.3097143,32.5714286 25.1394286,32.5714286 Z" id="Shape" fill="#EF9645"></path>
            <path d="M29,28.3028571 C29.2731429,27.4514286 29.1485714,26.4845714 28.5714286,25.7142857 C28.504,25.6251429 28.0685714,25.0457143 27.4091429,24.1828571 C27.4148571,24.1234286 27.4285714,24.0548571 27.4285714,24 C27.4285714,23.4765714 25.2422857,21.0022857 23.1542857,18.7588571 C21.3405714,16.5131429 19.4274286,14.2434286 18.0205714,12.8365714 L16.5645714,11.3805714 L14.7222857,12.3017143 C8.18742857,15.5691429 4.84,16.7074286 4.81142857,16.7177143 C3.31428571,17.2171429 2.50514286,18.8342857 3.00457143,20.3314286 C3.504,21.8285714 5.12114286,22.6342857 6.61828571,22.1394286 C6.752,22.0948571 9.66514286,21.112 15.3611429,18.3554286 C16.6114286,19.7611429 18.0788571,21.5497143 19.4457143,23.2651429 L20.2502857,24.6068571 C20.4434286,24.9291429 20.4171429,25.3371429 20.1805714,25.6308571 L16.1657143,30.6502857 C16.0571429,30.7862857 15.912,30.8868571 15.7485714,30.9417143 L12.856,31.9062857 C12.672,31.968 12.472,31.968 12.288,31.9062857 L6.88228571,30.1051429 C6.10971429,27.7257143 6.27314286,25.4171429 6.27542857,25.392 C6.41257143,23.8194286 5.248,22.4342857 3.67657143,22.2982857 C2.10857143,22.152 0.72,23.3234286 0.582857143,24.896 C0.557714286,25.1942857 -4.21884749e-15,32.2377143 4.36914286,37.0034286 C6.89257143,39.7554286 10.4217143,41.152 14.8582857,41.152 C15.6125714,41.152 16.3245714,41.1622857 16.9965714,41.1725714 C17.6011429,41.1817143 18.1874286,41.1908571 18.7531429,41.1908571 C21.912,41.1908571 24.472,40.9268571 26.4537143,38.9725714 C28.3382857,37.1142857 29.144,34.1782857 29.144,29.1531429 C29.1428571,28.8525714 29.0845714,28.5725714 29,28.3028571 Z" id="Shape" fill="#FFDC5D"></path>
            <path d="M27.4297143,24 C26.9908571,24 26.5737143,23.7474286 26.384,23.3211429 L21.8125714,13.0354286 C21.5565714,12.4582857 21.816,11.7828571 22.3931429,11.5268571 C22.9714286,11.2685714 23.6457143,11.5302857 23.9017143,12.1062857 L28.4731429,22.392 C28.7291429,22.9691429 28.4697143,23.6445714 27.8925714,23.9005714 C27.7417143,23.9691429 27.5851429,24 27.4297143,24 Z" id="Shape" fill="#EF9645"></path>
            <path d="M24.8754286,39.2914286 L23.1257143,33.8514286 C23.1257143,33.8514286 23.0502857,33.864 22.9257143,33.9268571 C22.9451429,33.9165714 25.0068571,32.7897143 25.7382857,27.0662857 C26.624,20.1234286 24.8537143,16.0948571 24.8354286,16.056 L24.7291429,15.792 L20.7291429,4.24457143 C20.2125714,2.75314286 21.0022857,1.12571429 22.4937143,0.609142857 C23.9828571,0.0937142857 25.6125714,0.883428571 26.1291429,2.37371429 L30.0937143,13.8171429 C30.5245714,14.8308571 32.4194286,19.8571429 31.4057143,27.7897143 C30.2148571,37.1188571 25.7565714,39.008 24.8754286,39.2914286 Z" id="Shape" fill="#FFDC5D"></path>
        </g>
        <g id="26bd" transform="translate(75.393877, 182.393877) rotate(-15.000000) translate(-75.393877, -182.393877) translate(51.393877, 158.393877)" fill-rule="nonzero">
            <circle id="Oval" fill="#F5F8FA" cx="24" cy="24" r="24"></circle>
            <path d="M24,14.6666667 C23.264,14.6666667 22.6666667,14.0693333 22.6666667,13.3333333 L22.6666667,4 C22.6666667,3.264 23.264,2.66666667 24,2.66666667 C24.736,2.66666667 25.3333333,3.264 25.3333333,4 L25.3333333,13.3333333 C25.3333333,14.0693333 24.736,14.6666667 24,14.6666667 Z M15.2226667,20.6666667 C15.0893333,20.6666667 14.9533333,20.6466667 14.82,20.604 L4.09866667,17.2146667 C3.396,16.992 3.00666667,16.244 3.22933333,15.5413333 C3.45066667,14.8386667 4.20266667,14.4506667 4.90266667,14.672 L15.6253333,18.0613333 C16.328,18.284 16.7173333,19.0333333 16.4946667,19.7346667 C16.3133333,20.3026667 15.788,20.6666667 15.2226667,20.6666667 Z M33.3893333,20.2786667 C32.8106667,20.2786667 32.2786667,19.8986667 32.1093333,19.316 C31.904,18.608 32.3106667,17.8693333 33.0186667,17.664 L42.0186667,15.0533333 C42.7266667,14.8493333 43.4653333,15.2573333 43.6693333,15.9626667 C43.8746667,16.6706667 43.468,17.4093333 42.76,17.6146667 L33.76,20.2253333 C33.6373333,20.2613333 33.512,20.2786667 33.3893333,20.2786667 Z M36.0573333,40.2226667 C35.6493333,40.2226667 35.2493333,40.036 34.9866667,39.6853333 L27.708,29.908 C27.268,29.3186667 27.3906667,28.4826667 27.9813333,28.0426667 C28.5706667,27.6013333 29.4066667,27.7253333 29.8466667,28.316 L37.1253333,38.0933333 C37.5653333,38.6826667 37.4426667,39.5186667 36.852,39.9586667 C36.6133333,40.1373333 36.3333333,40.2226667 36.0573333,40.2226667 Z M11.6653333,40.112 C11.4026667,40.112 11.1386667,40.0346667 10.9053333,39.8733333 C10.3,39.452 10.152,38.6226667 10.572,38.0173333 L17.4053333,28.184 C17.8253333,27.5786667 18.656,27.4293333 19.2613333,27.8493333 C19.8666667,28.2693333 20.0146667,29.1013333 19.5946667,29.7053333 L12.7613333,39.5386667 C12.5026667,39.9133333 12.0866667,40.112 11.6653333,40.112 Z M4.66666667,36.0826667 C4.08,36.0826667 3.54133333,35.692 3.38,35.0986667 L0.462666667,24.3493333 C0.269333333,23.6386667 0.689333333,22.9066667 1.40133333,22.7133333 C2.11466667,22.5253333 2.84533333,22.9413333 3.03733333,23.652 L5.95466667,34.4013333 C6.148,35.112 5.728,35.844 5.016,36.036 C4.89866667,36.0693333 4.78133333,36.0826667 4.66666667,36.0826667 Z M29.3333333,45.3333333 L17.3333333,45.3333333 C16.5973333,45.3333333 16,44.7373333 16,44 C16,43.2626667 16.5973333,42.6666667 17.3333333,42.6666667 L29.3333333,42.6666667 C30.0706667,42.6666667 30.6666667,43.2626667 30.6666667,44 C30.6666667,44.7373333 30.0706667,45.3333333 29.3333333,45.3333333 Z M42.8346667,36.1666667 C42.7293333,36.1666667 42.6213333,36.1546667 42.5146667,36.128 C41.8,35.952 41.3626667,35.2293333 41.54,34.5146667 L44.3733333,23.0146667 C44.5506667,22.3 45.2786667,21.8653333 45.9866667,22.0386667 C46.7013333,22.2146667 47.1386667,22.9373333 46.9613333,23.6533333 L44.128,35.1533333 C43.9773333,35.76 43.4333333,36.1666667 42.8346667,36.1666667 Z M40.416,10.2506667 C40.1893333,10.2506667 39.96,10.1933333 39.7493333,10.072 L29.6666667,4.23866667 C29.0293333,3.86933333 28.8106667,3.05466667 29.1813333,2.416 C29.548,1.77866667 30.3626667,1.55866667 31.0026667,1.92933333 L41.0853333,7.76266667 C41.7226667,8.132 41.9413333,8.94666667 41.5706667,9.58533333 C41.324,10.012 40.876,10.2506667 40.416,10.2506667 Z M7.33466667,10.2506667 C6.91866667,10.2506667 6.51066667,10.0573333 6.25066667,9.69466667 C5.82133333,9.09466667 5.95733333,8.26266667 6.556,7.83333333 L14.8066667,1.916 C15.4053333,1.48666667 16.2386667,1.624 16.668,2.22133333 C17.0973333,2.82 16.96,3.65333333 16.3626667,4.08266667 L8.11066667,10 C7.87466667,10.168 7.604,10.2506667 7.33466667,10.2506667 Z" id="Shape" fill="#CCD6DD"></path>
            <path d="M33.9906667,18.0213333 L24.38,11.244 C23.916,10.9173333 23.2946667,10.92 22.832,11.252 L13.276,18.1413333 C12.8186667,18.472 12.6173333,19.0533333 12.776,19.596 L16.1093333,31.04 C16.2746667,31.608 16.796,32 17.3893333,32 L29.3333333,32 C29.9066667,32 30.4133333,31.6346667 30.5973333,31.092 L34.4866667,19.536 C34.6746667,18.9773333 34.472,18.3613333 33.9906667,18.0213333 Z M1.72266667,26.056 C1.8,26.056 1.87866667,26.0493333 1.956,26.0346667 C2.348,25.9653333 2.68933333,25.724 2.88533333,25.376 L7.38533333,17.376 C7.45333333,17.2546667 7.50133333,17.1253333 7.52933333,16.988 L9.30666667,8.26666667 C9.38666667,7.87466667 9.28533333,7.46666667 9.032,7.15733333 C8.77866667,6.84666667 8.4,6.66666667 8,6.66666667 L7.42933333,6.66666667 C2.86,11.036 0,17.1786667 0,24 C0,24.3546667 0.0373333333,24.7 0.0533333333,25.0506667 L0.856,25.736 C1.09866667,25.944 1.40666667,26.056 1.72266667,26.056 Z M14.156,3.99333333 C14.2973333,4.28533333 14.5733333,4.49066667 14.8933333,4.54266667 L23.3933333,5.932 C23.4466667,5.94 23.5013333,5.94533333 23.5546667,5.94533333 C23.608,5.94533333 23.6626667,5.94133333 23.7173333,5.932 L31.8293333,4.59866667 C32.096,4.55466667 32.336,4.404 32.4893333,4.18 C32.644,3.956 32.7,3.68 32.6466667,3.41333333 L32.2573333,1.48933333 C29.68,0.542666667 26.9066667,0 24,0 C20.7666667,0 17.688,0.648 14.8733333,1.808 L14.1786667,3.07466667 C14.0226667,3.35866667 14.0146667,3.70133333 14.156,3.99333333 Z M41.512,7.62533333 L39.5066667,7.49866667 C39.2026667,7.48133333 38.9,7.6 38.6946667,7.83066667 C38.492,8.06133333 38.404,8.36666667 38.4613333,8.67066667 L40.0173333,16.9346667 C40.04,17.0493333 40.0813333,17.132 40.1413333,17.2333333 C42.1306667,20.572 44.344,24.3013333 44.6493333,24.9426667 C44.6813333,25.0546667 44.732,25.048 44.8013333,25.144 C44.988,25.404 45.2973333,25.3333333 45.6173333,25.3333333 L45.6266667,25.3333333 C45.8906667,25.3333333 46.0573333,25.4586667 47.984,24.3293333 C47.9853333,24.2186667 48,24.1106667 48,24 C48,17.6626667 45.5253333,11.9146667 41.512,7.62533333 Z M19.388,44.5013333 C19.4026667,44.236 19.3106667,43.9746667 19.1333333,43.776 L13.1333333,37.1093333 C13.0533333,37.0213333 12.9586667,36.9466667 12.852,36.892 C5.00533333,32.8 4.86,32.752 4.764,32.7186667 C4.66,32.6853333 4.54933333,32.6666667 4.44133333,32.6666667 C3.72533333,32.6666667 3.51466667,32.7533333 2.86133333,35.3653333 C5.84266667,40.8973333 10.932,45.12 17.0533333,46.9693333 L19.0533333,45.192 C19.252,45.016 19.372,44.7666667 19.388,44.5013333 Z M43.1653333,33.0786667 C42.9133333,32.972 42.6253333,32.9746667 42.376,33.0853333 L34.2653333,36.6413333 C34.124,36.7026667 33.9986667,36.796 33.9,36.9146667 L28.2333333,43.692 C28.0613333,43.8973333 27.98,44.1613333 28.004,44.428 C28.0306667,44.6946667 28.16,44.94 28.3666667,45.108 C29.2773333,45.8533333 30.048,46.4813333 30.7226667,47.028 C36.6386667,45.3026667 41.5946667,41.364 44.6613333,36.1666667 L43.712,33.648 C43.616,33.3906667 43.4173333,33.1853333 43.1653333,33.0786667 Z" id="Shape" fill="#292F33"></path>
        </g>
        <g id="1f4af" transform="translate(259.500000, 63.500000) rotate(15.000000) translate(-259.500000, -63.500000) translate(241.000000, 46.000000)" fill="#BB1A34" fill-rule="nonzero">
            <path d="M2.728,20 C2.111,20 1.775,19.744 1.601,19.529 C1.43,19.318 1.253,18.944 1.376,18.364 L4.104,5.658 L2.39,5.755 L2.377,5.755 C1.86,5.755 1.485,5.587 1.25,5.296 C1.03,5.024 0.951,4.675 1.029,4.316 C1.179,3.614 1.912,3.03 2.696,2.987 L6.704,2.76 C6.782,2.755 6.854,2.752 6.921,2.752 C7.068,2.752 7.457,2.752 7.704,3.058 C7.956,3.37 7.871,3.767 7.843,3.897 L4.719,18.454 C4.532,19.338 3.8,19.943 2.853,19.996 L2.728,20 Z M13.471,18 C12.032,18 10.836,17.461 10.012,16.441 C8.849,15.002 8.545,12.79 9.134,10.044 C10.166,5.232 13.342,1.858 17.036,1.649 C18.626,1.56 19.942,2.101 20.829,3.198 C21.992,4.637 22.296,6.849 21.707,9.595 C20.675,14.405 17.499,17.779 13.803,17.989 C13.691,17.997 13.58,18 13.471,18 Z M16.885,4.254 L16.748,4.258 C14.808,4.369 13.193,6.562 12.428,10.124 C11.95,12.352 12.047,14.023 12.7,14.831 C12.997,15.199 13.417,15.386 13.949,15.386 L14.089,15.382 C16.029,15.273 17.643,13.081 18.407,9.518 C18.885,7.29 18.789,5.618 18.137,4.81 C17.841,4.441 17.419,4.254 16.885,4.254 Z M28.476,16.361 C27.037,16.361 25.839,15.822 25.014,14.801 C23.851,13.362 23.547,11.15 24.136,8.404 C25.169,3.591 28.345,0.218 32.039,0.01 C33.642,-0.08 34.942,0.463 35.829,1.559 C36.992,2.998 37.296,5.21 36.707,7.955 C35.676,12.764 32.501,16.138 28.805,16.351 C28.693,16.359 28.584,16.361 28.476,16.361 Z M31.887,2.614 L31.751,2.618 C29.81,2.729 28.195,4.922 27.431,8.483 C26.953,10.712 27.05,12.384 27.703,13.191 C28,13.559 28.422,13.746 28.954,13.746 L29.094,13.742 C31.033,13.633 32.648,11.44 33.412,7.878 C33.891,5.651 33.795,3.979 33.142,3.171 C32.844,2.801 32.422,2.614 31.887,2.614 Z M12,34.001 C11.19,34.001 10.428,33.505 10.127,32.702 C9.739,31.668 10.263,30.515 11.297,30.127 C11.634,30.001 19.696,27.019 31.833,26.007 C32.934,25.911 33.9,26.734 33.992,27.834 C34.084,28.935 33.265,29.901 32.165,29.993 C20.575,30.959 12.779,33.844 12.701,33.873 C12.471,33.959 12.233,34.001 12,34.001 Z M3.001,28 C2.197,28 1.438,27.512 1.133,26.717 C0.737,25.686 1.251,24.529 2.282,24.134 C2.824,23.925 15.798,19.008 34.894,18.003 C36.007,17.934 36.939,18.792 36.997,19.895 C37.056,20.998 36.208,21.94 35.105,21.998 C16.682,22.968 3.844,27.819 3.716,27.868 C3.481,27.957 3.239,28 3.001,28 Z" id="Shape"></path>
        </g>
        <g id="1f3c6" transform="translate(226.528371, 204.174817) rotate(-15.000000) translate(-226.528371, -204.174817) translate(208.028371, 186.174817)" fill-rule="nonzero">
            <path d="M5.123,5 L11.123,5 C12.227,5 13,4.896 13,6 L13,4 C13,2.896 12.227,2 11.123,2 L3.123,2 C1.123,2 -0.46,4.125 0.123,7 C0.123,7 1.914,16.375 2.04,16.958 C2.373,18.5 4.164,20 6.081,20 L13.039,20 C14.144,20 13,18.104 13,17 L13,15 C13,16.104 12.227,17 11.123,17 L7.123,17 C6.019,17 5.29,15.958 5.123,15 C4.956,14.042 3.539,7.667 3.539,7.667 C3.206,5.75 4.018,5 5.123,5 Z M30.935,5 L24.935,5 C23.831,5 22,4.896 22,6 L22,4 C22,2.896 23.831,2 24.935,2 L32.935,2 C34.935,2 36.519,4.125 35.935,7 C35.935,7 34.302,16.419 34.164,17 C33.81,18.5 32.122,20 30.164,20 L23.018,20 C21.914,20 22,18.104 22,17 L22,15 C22,16.104 23.831,17 24.935,17 L28.935,17 C30.039,17 30.769,15.958 30.935,15 C31.101,14.042 32.519,7.667 32.519,7.667 C32.851,5.75 32.04,5 30.935,5 Z M20.832,22 C20.832,15.042 18.123,22 18.123,22 C18.123,22 15.123,15.042 15.123,22 C15.123,28.958 11.832,32 11.832,32 L24.124,32 C24.123,32 20.832,28.958 20.832,22 Z" id="Shape" fill="#FFAC33"></path>
            <path d="M29.123,6.577 C29.123,13.352 22.353,24.769 18.123,24.769 C13.892,24.769 7.123,13.352 7.123,6.577 C7.123,1.382 8.123,0.258 10.123,0.258 C11.497,0.258 16.148,0.231 18.123,0.231 L25.123,0.23 C28.04,0.229 29.123,0.914 29.123,6.577 Z" id="Shape" fill="#FFCC4D"></path>
            <path d="M27,33 C27,34.104 27.227,35 26.123,35 L10.123,35 C9.018,35 9,34.104 9,33 L9,32 C9,30.896 10.164,30 11.206,30 L25.123,30 C26.165,30 27,30.896 27,32 L27,33 Z" id="Shape" fill="#C1694F"></path>
            <path d="M29,34.625 C29,35.385 29.165,36 27.748,36 L8.498,36 C7.206,36 7,35.385 7,34.625 L7,34.375 C7,33.615 7.738,33 8.498,33 L27.748,33 C28.507,33 29,33.615 29,34.375 L29,34.625 Z" id="Shape" fill="#C1694F"></path>
        </g>
    </g>
</svg>