<?xml version="1.0" encoding="UTF-8"?>
<svg width="480px" height="240px" viewBox="0 0 480 240" version="1.1" xmlns="http://www.w3.org/2000/svg" xmlns:xlink="http://www.w3.org/1999/xlink">
    <!-- Generator: Sketch 50.2 (55047) - http://www.bohemiancoding.com/sketch -->
    <title>victory</title>
    <desc>Created with Sketch.</desc>
    <defs>
        <polygon id="path-1" points="0 59.375 59.375 59.375 59.375 0 0 0"></polygon>
        <polygon id="path-3" points="0 63.3333333 63.3333333 63.3333333 63.3333333 0 0 0"></polygon>
        <polygon id="path-5" points="0 47.5 47.5 47.5 47.5 0 0 0"></polygon>
        <polygon id="path-7" points="0 47.5 47.5 47.5 47.5 0 0 0"></polygon>
        <polygon id="path-9" points="0 47.5 47.5 47.5 47.5 0 0 0"></polygon>
    </defs>
    <g id="victory" stroke="none" stroke-width="1" fill="none" fill-rule="evenodd">
        <g id="emoji" transform="translate(25.000000, 21.000000)">
            <g id="1f603" transform="translate(58.927305, 155.927305) rotate(-7.500000) translate(-58.927305, -155.927305) translate(28.927305, 125.927305)">
                <g id="g10" transform="translate(29.687500, 29.687500) scale(-1, 1) rotate(-180.000000) translate(-29.687500, -29.687500) ">
                    <g id="g12">
                        <g id="g14-Clipped">
                            <mask id="mask-2" fill="white">
                                <use xlink:href="#path-1"></use>
                            </mask>
                            <g id="path18"></g>
                            <g id="g14" mask="url(#mask-2)">
                                <g transform="translate(3.125000, 3.125000)">
                                    <g id="g20">
                                        <path d="M53.125,26.5625 C53.125,11.8921875 41.2328125,0 26.5625,0 C11.89375,0 0,11.8921875 0,26.5625 C0,41.23125 11.89375,53.125 26.5625,53.125 C41.2328125,53.125 53.125,41.23125 53.125,26.5625" id="path22" fill="#FFCC4D" fill-rule="nonzero"></path>
                                    </g>
                                    <g id="g24" transform="translate(12.500000, 25.781250)">
                                        <path d="M7.8125,9.375 C7.8125,5.490625 6.0640625,0.78125 3.90625,0.78125 C1.7484375,0.78125 0,5.490625 0,9.375 C0,13.2578125 1.7484375,17.96875 3.90625,17.96875 C6.0640625,17.96875 7.8125,13.2578125 7.8125,9.375" id="path26" fill="#664500" fill-rule="nonzero"></path>
                                    </g>
                                    <g id="g28" transform="translate(32.812500, 25.781250)">
                                        <path d="M7.8125,9.375 C7.8125,5.490625 6.0640625,0.78125 3.90625,0.78125 C1.7484375,0.78125 0,5.490625 0,9.375 C0,13.2578125 1.7484375,17.96875 3.90625,17.96875 C6.0640625,17.96875 7.8125,13.2578125 7.8125,9.375" id="path30" fill="#664500" fill-rule="nonzero"></path>
                                    </g>
                                    <g id="g32" transform="translate(9.375000, 4.687500)">
                                        <path d="M17.1875,15.625 C11.5265625,15.625 7.7703125,16.284375 3.125,17.1875 C2.0640625,17.3921875 0,17.1875 0,14.0625 C0,7.8125 7.1796875,0 17.1875,0 C27.19375,0 34.375,7.8125 34.375,14.0625 C34.375,17.1875 32.3109375,17.39375 31.25,17.1875 C26.6046875,16.284375 22.8484375,15.625 17.1875,15.625" id="path34" fill="#664500" fill-rule="nonzero"></path>
                                    </g>
                                    <g id="g36" transform="translate(12.500000, 12.500000)">
                                        <path d="M0,6.25 C0,6.25 4.6875,4.6875 14.0625,4.6875 C23.4375,4.6875 28.125,6.25 28.125,6.25 C28.125,6.25 25,0 14.0625,0 C3.125,0 0,6.25 0,6.25" id="path38" fill="#FFFFFF" fill-rule="nonzero"></path>
                                    </g>
                                </g>
                            </g>
                        </g>
                    </g>
                </g>
            </g>
            <g id="1f60d" transform="translate(388.393877, 59.393877) rotate(-15.000000) translate(-388.393877, -59.393877) translate(356.393877, 27.393877)">
                <g id="g10" transform="translate(31.666667, 31.666667) scale(-1, 1) rotate(-180.000000) translate(-31.666667, -31.666667) ">
                    <g id="g12">
                        <g id="g14-Clipped">
                            <mask id="mask-4" fill="white">
                                <use xlink:href="#path-3"></use>
                            </mask>
                            <g id="path18"></g>
                            <g id="g14" mask="url(#mask-4)">
                                <g transform="translate(0.000000, 3.333333)">
                                    <g id="g20" transform="translate(3.333333, 0.000000)">
                                        <path d="M56.6666667,28.3333333 C56.6666667,12.685 43.9816667,0 28.3333333,0 C12.685,0 0,12.685 0,28.3333333 C0,43.9816667 12.685,56.6666667 28.3333333,56.6666667 C43.9816667,56.6666667 56.6666667,43.9816667 56.6666667,28.3333333" id="path22" fill="#FFCC4D" fill-rule="nonzero"></path>
                                    </g>
                                    <g id="g24" transform="translate(15.000000, 6.919000)">
                                        <path d="M16.6666667,15 C11.7233333,15 8.44166667,15.5766667 4.385,16.365 C3.45666667,16.5433333 1.655,16.365 1.655,13.6366667 C1.655,8.17666667 7.92666667,1.35333333 16.6666667,1.35333333 C25.4066667,1.35333333 31.6783333,8.17666667 31.6783333,13.6366667 C31.6783333,16.365 29.875,16.545 28.9483333,16.365 C24.8933333,15.5766667 21.6116667,15 16.6666667,15" id="path26" fill="#664500" fill-rule="nonzero"></path>
                                    </g>
                                    <g id="g28" transform="translate(1.083167, 31.198667)">
                                        <path d="M28.3333333,21.6666667 C26.9016667,25.7183333 22.46,27.845 18.4066667,26.4166667 C15.9466667,25.5483333 14.205,23.565 13.5266667,21.2416667 C11.5416667,22.625 8.94166667,23.075 6.48666667,22.21 C2.435,20.78 0.306666667,16.335 1.73666667,12.2833333 C1.94,11.7083333 2.21,11.1783333 2.52333333,10.6866667 C5.775,4.71666667 15.17,0.52 20.86,0.468333333 C25.2533333,4.08 29.9366667,13.2416667 28.7216667,19.93 C28.6583333,20.51 28.5333333,21.0933333 28.3333333,21.6666667" id="path30" fill="#E75A70" fill-rule="nonzero"></path>
                                    </g>
                                    <g id="g32" transform="translate(32.249333, 31.198667)">
                                        <path d="M1.66666667,21.6666667 C3.09833333,25.7183333 7.54166667,27.845 11.5933333,26.4166667 C14.055,25.5483333 15.795,23.565 16.475,21.2416667 C18.46,22.625 21.06,23.075 23.515,22.21 C27.565,20.78 29.6933333,16.335 28.265,12.2833333 C28.06,11.7083333 27.7916667,11.1783333 27.4766667,10.6866667 C24.225,4.71666667 14.83,0.52 9.14,0.468333333 C4.74666667,4.08 0.065,13.2416667 1.28,19.93 C1.34333333,20.51 1.46833333,21.0933333 1.66666667,21.6666667" id="path34" fill="#E75A70" fill-rule="nonzero"></path>
                                    </g>
                                </g>
                            </g>
                        </g>
                    </g>
                </g>
            </g>
            <g id="1f61d" transform="translate(316.784610, 146.784610) rotate(30.000000) translate(-316.784610, -146.784610) translate(292.784610, 122.784610)">
                <g id="g10" transform="translate(23.750000, 23.750000) scale(-1, 1) rotate(-180.000000) translate(-23.750000, -23.750000) ">
                    <g id="g12">
                        <g id="g14-Clipped">
                            <mask id="mask-6" fill="white">
                                <use xlink:href="#path-5"></use>
                            </mask>
                            <g id="path18"></g>
                            <g id="g14" mask="url(#mask-6)">
                                <g transform="translate(2.500000, -1.250000)">
                                    <g id="g20" transform="translate(0.000000, 3.750000)">
                                        <path d="M42.5,21.25 C42.5,9.51375 32.98625,0 21.25,0 C9.515,0 0,9.51375 0,21.25 C0,32.985 9.515,42.5 21.25,42.5 C32.98625,42.5 42.5,32.985 42.5,21.25" id="path22" fill="#FFCC4D" fill-rule="nonzero"></path>
                                    </g>
                                    <g id="g24" transform="translate(7.500000, 7.454875)">
                                        <path d="M0,11.25 C0,6.295 5.745,0 13.75,0 C21.755,0 27.5,6.25 27.5,11.25 C27.5,11.25 14.58375,7.805 0,11.25" id="path26" fill="#664500" fill-rule="nonzero"></path>
                                    </g>
                                    <g id="g28" transform="translate(13.750000, 0.103750)">
                                        <path d="M0,16.25 L0,8.64625 C0,4.89625 2.5,1.14625 7.5,1.14625 C12.5,1.14625 15,4.89625 15,8.64625 L15,16.19875 C7.135,14.58375 0,16.25 0,16.25" id="path30" fill="#E75A70" fill-rule="nonzero"></path>
                                    </g>
                                    <g id="g32" transform="translate(23.249500, 23.499750)">
                                        <path d="M13.75,2.5 C13.6075,2.60625 11.33625,4.2825 7.9425,5.43 C7.97625,5.57375 8,5.72125 8,5.875 C8,6.33625 7.8275,6.75375 7.55125,7.08 C9.805,7.73125 11.71875,7.75 11.7525,7.75 C12.44125,7.7525 13,8.3125 12.99875,9.0025 C12.9975,9.69125 12.44,10.25 11.75,10.25 C11.475,10.25 4.93625,10.20375 0.86625,6.13375 C0.50875,5.77625 0.40125,5.23875 0.59625,4.77125 C0.78875,4.305 1.245,4 1.75,4 C7.4875,4 12.205,0.53375 12.2525,0.49875 C12.4775,0.3325 12.73875,0.25125 12.99875,0.25125 C13.38,0.25125 13.75625,0.42375 14.00125,0.7525 C14.41375,1.305 14.30125,2.08625 13.75,2.5" id="path34" fill="#664500" fill-rule="nonzero"></path>
                                    </g>
                                    <g id="g36" transform="translate(4.633750, 23.383750)">
                                        <path d="M13.75,6.25 C9.68125,10.31875 3.1425,10.36625 2.86625,10.36625 C2.17625,10.36625 1.6175,9.8075 1.6175,9.1175 C1.61625,8.42875 2.175,7.8675 2.865,7.86625 C2.8975,7.86625 4.8125,7.84625 7.065,7.19625 C6.79,6.87 6.61625,6.4525 6.61625,5.99125 C6.61625,5.8375 6.64,5.69 6.675,5.54625 C3.28,4.39875 1.00875,2.7225 0.86625,2.61625 C0.31375,2.2025 0.2025,1.41875 0.61625,0.86625 C0.86125,0.53875 1.2375,0.36625 1.6175,0.36625 C1.8775,0.36625 2.14125,0.4475 2.36625,0.61625 C2.4125,0.65125 7.1,4.11625 12.86625,4.11625 C13.37125,4.11625 13.8275,4.42125 14.02125,4.8875 C14.215,5.355 14.1075,5.8925 13.75,6.25" id="path38" fill="#664500" fill-rule="nonzero"></path>
                                    </g>
                                </g>
                            </g>
                        </g>
                    </g>
                </g>
            </g>
            <g id="1f60a" transform="translate(162.393877, 44.393877) rotate(15.000000) translate(-162.393877, -44.393877) translate(138.393877, 20.393877)">
                <g id="g10" transform="translate(23.750000, 23.750000) scale(-1, 1) rotate(-180.000000) translate(-23.750000, -23.750000) ">
                    <g id="g12">
                        <g id="g14-Clipped">
                            <mask id="mask-8" fill="white">
                                <use xlink:href="#path-7"></use>
                            </mask>
                            <g id="path18"></g>
                            <g id="g14" mask="url(#mask-8)">
                                <g transform="translate(2.500000, 2.500000)">
                                    <g id="g20">
                                        <path d="M42.5,21.25 C42.5,9.51375 32.98625,0 21.25,0 C9.51375,0 0,9.51375 0,21.25 C0,32.98625 9.51375,42.5 21.25,42.5 C32.98625,42.5 42.5,32.98625 42.5,21.25" id="path22" fill="#FFCC4D" fill-rule="nonzero"></path>
                                    </g>
                                    <g id="g24" transform="translate(1.250000, 15.000000)">
                                        <path d="M12.5,6.25 C12.5,2.7975 9.70125,0 6.25,0 C2.79875,0 0,2.7975 0,6.25 C0,9.70125 2.79875,12.5 6.25,12.5 C9.70125,12.5 12.5,9.70125 12.5,6.25" id="path26" fill="#FF7892" fill-rule="nonzero"></path>
                                    </g>
                                    <g id="g28" transform="translate(28.750000, 15.000000)">
                                        <path d="M12.5,6.25 C12.5,2.7975 9.7025,0 6.25,0 C2.7975,0 0,2.7975 0,6.25 C0,9.70125 2.7975,12.5 6.25,12.5 C9.7025,12.5 12.5,9.70125 12.5,6.25" id="path30" fill="#FF7892" fill-rule="nonzero"></path>
                                    </g>
                                    <g id="g32" transform="translate(9.168750, 9.213875)">
                                        <path d="M23.75,7.5 C23.5275,7.70125 23.195,7.71375 22.95625,7.53625 C22.9075,7.5 18.05375,3.91125 12.08125,3.91125 C6.12375,3.91125 1.25375,7.5 1.20625,7.53625 C0.9675,7.71375 0.635,7.69875 0.4125,7.5 C0.19125,7.3 0.14125,6.97 0.295,6.715 C0.45625,6.44625 4.31625,0.16125 12.08125,0.16125 C19.84625,0.16125 23.7075,6.44625 23.8675,6.715 C24.02125,6.97125 23.9725,7.3 23.75,7.5" id="path34" fill="#664500" fill-rule="nonzero"></path>
                                    </g>
                                    <g id="g36" transform="translate(7.498750, 25.000000)">
                                        <path d="M1.25,0 C1.0625,0 0.87125,0.0425 0.6925,0.13125 C0.075,0.44125 -0.17625,1.1925 0.1325,1.80875 C0.19875,1.94 1.78125,5 6.25125,5 C10.7225,5 12.30375,1.93875 12.36875,1.80875 C12.67875,1.19125 12.4275,0.44125 11.81,0.13125 C11.19625,-0.17375 10.45375,0.07125 10.14,0.6775 C10.08625,0.77625 9.1025,2.5 6.25125,2.5 C3.355,2.5 2.3775,0.70875 2.37,0.69125 C2.15,0.2525 1.70875,0 1.25,0" id="path38" fill="#664500" fill-rule="nonzero"></path>
                                    </g>
                                    <g id="g40" transform="translate(21.251250, 25.000000)">
                                        <path d="M12.5,0 C12.04125,-0.00125 11.6,0.2525 11.38,0.69125 C11.34875,0.74875 10.3725,2.5 7.49875,2.5 C4.625,2.5 3.64875,0.74875 3.60875,0.675 C3.28375,0.07375 2.53375,-0.1625 1.9275,0.15 C1.32125,0.465 1.075,1.1975 1.38,1.80875 C1.445,1.93875 3.0275,5 7.49875,5 C11.97,5 13.5525,1.93875 13.61625,1.80875 C13.92625,1.19125 13.675,0.44125 13.0575,0.13125 C12.87875,0.0425 12.6875,0 12.5,0" id="path42" fill="#664500" fill-rule="nonzero"></path>
                                    </g>
                                </g>
                            </g>
                        </g>
                    </g>
                </g>
            </g>
            <g id="1f601" transform="translate(29.393877, 29.393877) rotate(-15.000000) translate(-29.393877, -29.393877) translate(5.393877, 5.393877)">
                <g id="g10" transform="translate(23.750000, 23.750000) scale(-1, 1) rotate(-180.000000) translate(-23.750000, -23.750000) ">
                    <g id="g12">
                        <g id="g14-Clipped">
                            <mask id="mask-10" fill="white">
                                <use xlink:href="#path-9"></use>
                            </mask>
                            <g id="path18"></g>
                            <g id="g14" mask="url(#mask-10)">
                                <g transform="translate(2.500000, 2.500000)">
                                    <g id="g20" stroke-width="1" fill="none" fill-rule="evenodd">
                                        <path d="M42.5,21.25 C42.5,9.51375 32.98625,0 21.25,0 C9.515,0 0,9.51375 0,21.25 C0,32.985 9.515,42.5 21.25,42.5 C32.98625,42.5 42.5,32.985 42.5,21.25" id="path22" fill="#FFCC4D" fill-rule="nonzero"></path>
                                    </g>
                                    <g id="g24" stroke-width="1" fill="none" fill-rule="evenodd" transform="translate(5.000000, 10.000000)">
                                        <path d="M27.5,0 L5,0 C2.25,0 0,2.25 0,5 C0,7.75 2.25,10 5,10 L27.5,10 C30.25,10 32.5,7.75 32.5,5 C32.5,2.25 30.25,0 27.5,0" id="path26" fill="#664500" fill-rule="nonzero"></path>
                                    </g>
                                    <polygon id="path28" fill="#F5F8FA" fill-rule="nonzero" points="28.75 17.5 22.5 17.5 22.5 12.5 28.75 12.5"></polygon>
                                    <polygon id="path30" fill="#F5F8FA" fill-rule="nonzero" points="13.75 12.5 20 12.5 20 17.5 13.75 17.5"></polygon>
                                    <g id="g32" stroke-width="1" fill="none" fill-rule="evenodd" transform="translate(7.500000, 12.500000)">
                                        <path d="M3.75,5 L2.5,5 C1.12,5 0,3.88 0,2.5 C0,1.12 1.12,0 2.5,0 L3.75,0 L3.75,5 Z" id="path34" fill="#F5F8FA" fill-rule="nonzero"></path>
                                    </g>
                                    <g id="g36" stroke-width="1" fill="none" fill-rule="evenodd" transform="translate(31.250000, 12.500000)">
                                        <path d="M1.25,5 L0,5 L0,0 L1.25,0 C2.63,0 3.75,1.12 3.75,2.5 C3.75,3.88 2.63,5 1.25,5" id="path38" fill="#F5F8FA" fill-rule="nonzero"></path>
                                    </g>
                                    <g id="g40" stroke-width="1" fill="none" fill-rule="evenodd" transform="translate(8.750000, 22.500000)">
                                        <path d="M10,0 C9.47625,0 8.98875,0.33125 8.81375,0.855 C8.56,1.60375 7.5425,3.75 6.25,3.75 C4.9225,3.75 3.89,1.46625 3.68625,0.855 C3.4675,0.2 2.7625,-0.155 2.105,0.065 C1.45,0.2825 1.095,0.99 1.31375,1.645 C1.47125,2.11625 2.94375,6.25 6.25,6.25 C9.55625,6.25 11.02875,2.11625 11.18625,1.645 C11.405,0.99 11.05,0.2825 10.395,0.065 C10.26375,0.02125 10.13125,0 10,0" id="path42" fill="#664500" fill-rule="nonzero"></path>
                                    </g>
                                    <g id="g44" stroke-width="1" fill="none" fill-rule="evenodd" transform="translate(22.500000, 22.500000)">
                                        <path d="M8.75,0 C8.22625,0 7.73875,0.33125 7.565,0.855 C7.31125,1.60375 6.29125,3.75 5,3.75 C3.6725,3.75 2.63875,1.46625 2.435,0.855 C2.21625,0.2 1.515,-0.155 0.855,0.065 C0.2,0.2825 -0.15375,0.99 0.065,1.645 C0.22125,2.11625 1.69375,6.25 5,6.25 C8.30625,6.25 9.77875,2.11625 9.935,1.645 C10.15375,0.99 9.8,0.2825 9.145,0.065 C9.01375,0.02125 8.88125,0 8.75,0" id="path46" fill="#664500" fill-rule="nonzero"></path>
                                    </g>
                                </g>
                            </g>
                        </g>
                    </g>
                </g>
            </g>
        </g>
    </g>
</svg>