<?xml version="1.0" encoding="UTF-8"?>
<svg width="360px" height="160px" viewBox="0 0 360 160" version="1.1" xmlns="http://www.w3.org/2000/svg" xmlns:xlink="http://www.w3.org/1999/xlink">
    <!-- Generator: Sketch 50.2 (55047) - http://www.bohemiancoding.com/sketch -->
    <title>logos/fanatic</title>
    <desc>Created with Sketch.</desc>
    <defs></defs>
    <g id="logos/fanatic" stroke="none" stroke-width="1" fill="none" fill-rule="evenodd">
        <path d="M352.3358,45.8519603 C370.332913,81.8468812 355.545946,125.711066 319.375403,143.620796 C283.192054,161.537387 239.114836,146.821237 221.116738,110.826316 C216.973786,102.540456 214.568393,93.83898 213.758715,85.1326026 C213.728179,84.7963846 213.999057,84.5091781 214.3379,84.5150595 L217.733229,84.5768138 C218.006077,84.5817149 218.236569,84.7777603 218.282864,85.0453623 C218.539952,86.5362878 219.330915,91.1580588 219.34963,91.6168051 C219.3516,91.6481724 219.35357,91.6795396 219.35948,91.7109069 C220.519822,97.50699 222.452411,103.252101 225.223243,108.793325 C229.645937,117.639875 235.767773,125.112147 242.980999,131.025857 C243.096246,131.119959 243.243997,131.151326 243.392734,131.152306 L243.395689,131.152306 L261.294301,130.140712 C261.560254,130.126009 261.774986,129.928003 261.822266,129.667262 C261.832117,129.616291 261.843937,129.566299 261.860682,129.516307 L269.883586,106.117305 C269.857976,106.066333 269.804786,106.032025 269.78016,105.981054 L250.840392,72.611181 C250.741892,72.4386611 250.559665,72.3288756 250.359708,72.3239745 L240.595306,72.0740166 C240.299803,72.067155 240.060446,71.8368016 240.04173,71.5437137 L239.826013,68.1148791 C239.804343,67.7825821 240.074236,67.5041976 240.408154,67.5130197 L251.965274,67.808068 C252.015509,67.808068 252.065745,67.8149296 252.11401,67.8257121 C252.311012,67.8698223 252.514909,67.7923844 252.65084,67.6453503 L257.508909,62.3756492 C257.796532,62.063937 258.313662,62.1639201 258.462398,62.5599319 L259.814817,66.1612864 C259.889677,66.3612528 259.845352,66.5857248 259.700555,66.7425611 L255.689596,71.0937894 C255.523129,71.2751314 255.492594,71.5417532 255.61375,71.7554427 L272.74307,101.942518 C272.864226,102.155227 273.110478,102.266973 273.351806,102.218942 L307.50111,95.3397078 C307.742437,95.2906964 307.925649,95.0926905 307.954214,94.848614 L309.768602,79.1394938 C309.797168,78.8914963 309.987274,78.6905498 310.235497,78.6474198 L313.771682,78.0239953 C314.145986,77.9573399 314.479904,78.2700323 314.436564,78.6464395 L312.360163,96.6600738 C312.335538,96.8747435 312.436009,97.0854923 312.619221,97.2021394 L332.957702,110.135256 C333.060143,110.201912 333.155689,110.276409 333.24434,110.357768 C333.446267,110.543031 333.746695,110.571457 333.970292,110.412661 L351.819654,97.7246004 C351.999911,97.5952104 352.190018,97.498168 352.389975,97.4285718 C352.572202,97.3658373 352.716998,97.226645 352.769204,97.0433426 C355.744918,86.6460733 356.273869,75.5224556 354.033956,64.6252705 C354.002436,64.4743155 353.91083,64.3419849 353.779824,64.2586655 L335.769905,52.8625448 C335.627079,52.7723639 335.531533,52.6223891 335.510848,52.4547703 L334.942497,47.9251407 C334.882411,47.44777 335.408407,47.1184137 335.814231,47.3781739 L350.950876,57.0530158 C351.402995,57.3421828 351.971346,56.9030411 351.798969,56.3962636 C350.81593,53.5163563 349.636873,50.6678162 348.243084,47.87907 C345.081203,41.5566049 339.82125,35.152781 335.128664,30.2898741 C335.030163,30.1869503 334.974017,30.0526592 334.971062,29.9105262 L334.861726,24.6202403 C334.850891,24.1232652 335.442882,23.8546829 335.813246,24.1869799 C342.462062,30.1418598 348.115033,37.4112243 352.3358,45.8519603 Z M326.950128,133.561705 L330.972908,114.703115 C331.026098,114.454137 330.906912,114.199278 330.679375,114.083611 C330.617319,114.052244 330.555263,114.016956 330.494193,113.976766 L308.452629,99.953637 C308.328518,99.8752188 308.177811,99.8467922 308.033015,99.876199 L274.868721,106.565269 C274.670734,106.605458 274.508207,106.747591 274.443197,106.937755 L266.19374,130.988609 C266.18192,131.025857 266.167145,131.062126 266.150399,131.097414 C266.034168,131.350312 266.103119,131.649282 266.330656,131.810039 L286.91736,146.35661 C286.976461,146.394839 287.025712,146.44287 287.070037,146.493841 C287.178388,146.61637 287.33599,146.684986 287.500486,146.683025 C297.556451,146.594805 307.741452,144.300093 317.338402,139.546972 C320.663795,137.90117 323.793171,136.003451 326.72456,133.905764 C326.840792,133.823425 326.920577,133.699917 326.950128,133.561705 Z M250.716281,135.299647 C250.161721,135.331015 249.974569,136.055403 250.446389,136.34653 C258.397387,141.253547 267.270356,144.505941 276.499897,145.900804 C277.092873,145.990985 277.406106,145.223467 276.916556,144.877447 L262.589589,134.759542 C262.484193,134.685045 262.356142,134.648777 262.227105,134.655638 L250.716281,135.299647 Z M332.920272,127.517624 C332.804041,128.05969 333.461042,128.430216 333.865881,128.049888 C340.473327,121.84603 345.677134,114.460018 349.31773,106.406472 C349.557087,105.87813 348.942441,105.373313 348.468651,105.710511 L335.804381,114.715858 C335.689134,114.798197 335.608364,114.920725 335.578813,115.059917 L332.920272,127.517624 Z M329.949938,24.3837615 L318.24399,25.7556476 L318.24399,17.4379745 C318.24399,14.9778039 317.710918,13.2575489 316.659527,12.3252944 C315.797956,11.5608457 314.577398,11.2841133 312.927039,11.4774335 C309.270282,11.9062705 307.492064,14.3055993 307.492064,18.8147673 L307.492064,57.9331488 C307.492064,60.3560292 308.01235,62.0458632 309.03817,62.9565287 C309.892855,63.7150895 311.126199,63.9878966 312.810982,63.7896699 C316.516915,63.3549449 318.24399,61.0566921 318.24399,56.556356 L318.24399,45.7667365 L329.949938,44.3948503 L329.949938,54.5760511 C329.949938,66.6050786 323.794037,73.9522256 312.616244,75.2622885 C311.585507,75.3839723 310.595094,75.4438328 309.647957,75.4438328 C305.648933,75.4438328 302.41411,74.3673242 300.003484,72.2280454 C296.794232,69.3802531 295.167477,64.7739344 295.167477,58.5376422 L295.167477,20.8676899 C295.167477,8.83866246 301.323378,1.49151543 312.500188,0.181452482 C317.888936,-0.450517958 322.132859,0.570055424 325.113932,3.21569565 C328.323183,6.06348792 329.949938,10.6688253 329.949938,16.9060988 L329.949938,24.3837615 Z M264.165698,80.1149187 L264.165698,6.67583195 L276.491268,5.23034676 L276.491268,78.6694335 L264.165698,80.1149187 Z M211.838086,24.1551138 L211.838086,12.8090855 L247.857824,8.58548176 L247.857824,19.9315101 L236.010248,21.32106 L236.010248,83.4141184 L223.685661,84.8596036 L223.685661,22.7665452 L211.838086,24.1551138 Z M167.905867,76.3083763 L165.125434,91.2264114 L157.70865,92.0958614 L171.511479,18.0355988 L183.154481,16.6705819 L196.95731,87.493468 L188.921888,88.4355357 L186.140472,74.1700788 L167.905867,76.3083763 Z M168.936604,69.2536627 L185.008431,67.3695273 L176.868755,26.5132271 L168.936604,69.2536627 Z M112.394575,97.4067683 L105.182366,98.2516853 L105.182366,25.8096202 L115.382532,24.6143718 L132.071032,75.0228463 L132.071032,22.6566373 L139.178987,21.8234961 L139.178987,94.2655612 L130.834737,95.2439378 L112.394575,38.8327254 L112.394575,97.4067683 Z M57.61011,89.2372746 L54.8286934,104.156291 L47.4119104,105.025741 L61.2157229,30.9644971 L72.8577413,29.5994802 L86.6615538,100.422366 L78.6251482,101.365415 L75.8447152,87.0989771 L57.61011,89.2372746 Z M58.6408471,82.1825611 L74.7116912,80.2984257 L66.5729987,39.4431068 L58.6408471,82.1825611 Z M28.0285448,68.5902901 L28.0285448,75.9384184 L11.4413487,77.8843771 L11.4413487,109.240513 L3.40592664,110.183562 L3.40592664,37.7405156 L32.0452723,34.3824366 L32.0452723,41.730565 L11.4413487,44.1465762 L11.4413487,70.5362487 L28.0285448,68.5902901 Z M0.878042444,130.031747 L209.663871,104.396071 C210.212039,104.328764 210.71098,104.718579 210.778287,105.266748 L211.144912,108.252668 C211.212218,108.800836 210.822403,109.299776 210.274235,109.367083 L1.48840601,135.002759 C0.940237902,135.070066 0.44129709,134.680251 0.37399051,134.132083 L0.00736563572,131.146163 C-0.0599409441,130.597994 0.329874341,130.099054 0.878042444,130.031747 Z M28.8501044,142.834382 L217.751884,119.64016 C218.300052,119.572854 218.798993,119.962669 218.8663,120.510837 L219.232925,123.496757 C219.300231,124.044925 218.910416,124.543866 218.362248,124.611173 L29.460468,147.805395 C28.9122999,147.872701 28.4133591,147.482886 28.3460525,146.934718 L27.9794276,143.948798 C27.9121211,143.40063 28.3019363,142.901689 28.8501044,142.834382 Z M61.8342433,154.696385 L231.846176,133.821545 C232.394344,133.754238 232.893285,134.144053 232.960592,134.692222 L233.327217,137.678142 C233.394523,138.22631 233.004708,138.72525 232.45654,138.792557 L62.4446069,159.667398 C61.8964388,159.734704 61.397498,159.344889 61.3301914,158.796721 L60.9635665,155.810801 C60.8962599,155.262633 61.2860752,154.763692 61.8342433,154.696385 Z" id="Combined-Shape" fill="#FEFEFE"></path>
    </g>
</svg>